<svg xmlns="http://www.w3.org/2000/svg" width="24" height="24">
  <path fill="none" d="M0 0h24v24H0V0z"/>
  <path d="M3 5h2V3c-1.1 0-2 0.9-2 2z m0 8h2v-2H3v2z m4 8h2v-2H7v2zM3 9h2V7H3v2z m10-6h-2v2h2V3z m6 0v2h2c0-1.1-0.9-2-2-2zM5 21v-2H3c0 1.1 0.9 2 2 2z m-2-4h2v-2H3v2zM9 3H7v2h2V3z m2 18h2v-2h-2v2z m8-8h2v-2h-2v2z m0 8c1.1 0 2-0.9 2-2h-2v2z m0-12h2V7h-2v2z m0 8h2v-2h-2v2z m-4 4h2v-2h-2v2z m0-16h2V3h-2v2zM8 17h8c0.55 0 1-0.45 1-1V8c0-0.55-0.45-1-1-1H8c-0.55 0-1 0.45-1 1v8c0 0.55 0.45 1 1 1z m1-8h6v6H9V9z"/>
</svg>
