<svg xmlns="http://www.w3.org/2000/svg" width="24" height="24">
  <path fill="none" d="M0 0h24v24H0V0z"/>
  <path d="M5 18h4.83l0.59 0.59L12 20.17l1.59-1.59 0.58-0.58H19V4H5v14z m8-1h-2v-2h2v2zM12 5c2.21 0 4 1.79 4 4 0 2.5-3 2.75-3 5h-2c0-3.25 3-3 3-5 0-1.1-0.9-2-2-2s-2 0.9-2 2H8c0-2.21 1.79-4 4-4z" opacity=".3"/>
  <path d="M21 4c0-1.1-0.9-2-2-2H5c-1.11 0-2 0.9-2 2v14c0 1.1 0.89 2 2 2h4l3 3 3-3h4c1.1 0 2-0.9 2-2V4z m-2 14h-4.83l-0.59 0.59L12 20.17l-1.59-1.59-0.58-0.58H5V4h14v14z m-8-3h2v2h-2z m1-8c1.1 0 2 0.9 2 2 0 2-3 1.75-3 5h2c0-2.25 3-2.5 3-5 0-2.21-1.79-4-4-4S8 6.79 8 9h2c0-1.1 0.9-2 2-2z"/>
</svg>
