<svg xmlns="http://www.w3.org/2000/svg" width="24" height="24">
  <path fill="none" d="M0 0h24v24H0V0z"/>
  <path d="M19 13c0 2.08-0.8 3.97-2.1 5.39V17H14v-4H7v-2h3V8h4V3.46c-0.95-0.3-1.95-0.46-3-0.46C5.48 3 1 7.48 1 13s4.48 10 10 10 10-4.48 10-10c0-0.34-0.02-0.67-0.05-1h-2.03c0.04 0.33 0.08 0.66 0.08 1z m-9 7.93c-3.95-0.49-7-3.85-7-7.93 0-0.62 0.08-1.21 0.21-1.79L8 16v3h2v1.93zM22 4v-0.36c0-1.31-0.94-2.5-2.24-2.63C18.26 0.86 17 2.03 17 3.5V4h-1v6h7V4h-1z m-1 0h-3v-0.5c0-0.83 0.67-1.5 1.5-1.5s1.5 0.67 1.5 1.5V4z"/>
</svg>
