<svg xmlns="http://www.w3.org/2000/svg" width="24" height="24">
  <path fill="none" d="M0 0H24V24H0z"/>
  <path d="M16.1 10.44l1.5-4.05-4.05 1.5L16.1 10.44zM14.57 14.57L9.43 9.43l-2.71 1.01 4.89 1.95 1.95 4.89L14.57 14.57z" opacity=".3"/>
  <path d="M12 6.34L21 3l-3.34 9-1.56-1.56 1.5-4.05-4.05 1.5L12 6.34zM21.19 21.19l-5.07-5.07L14.31 21H12.9l-2.83-7.07L3 11.1V9.69l4.88-1.81L2.81 2.81l1.41-1.41 18.38 18.38L21.19 21.19zM14.57 14.57L9.43 9.43l-2.71 1.01 4.89 1.95 1.95 4.89L14.57 14.57z"/>
</svg>
