<svg xmlns="http://www.w3.org/2000/svg" width="24" height="24">
  <path fill="none" d="M0 0h24v24H0V0z"/>
  <path d="M21.71 11.29l-9-9C12.52315540514423 2.1027719110077334 12.269509470406096 1.9975559679229495 12.005 1.9975559679229495 11.740490529593906 1.9975559679229495 11.486844594855771 2.1027719110077334 11.3 2.2899999999999987l-9 9C2.112771911007735 11.476844594855768 2.007555967922951 11.730490529593904 2.007555967922951 11.995 2.007555967922951 12.259509470406094 2.112771911007735 12.513155405144229 2.3000000000000003 12.7l9 9c0.39 0.39 1.02 0.39 1.41 0l9-9C21.897228088992264 12.513155405144229 22.002444032077047 12.259509470406094 22.002444032077047 11.995 22.002444032077047 11.730490529593904 21.897228088992264 11.47684459485577 21.71 11.29zM14 14.5V12h-4v2c0 0.55-0.45 1-1 1s-1-0.45-1-1v-3c0-0.55 0.45-1 1-1h5V7.5l3.15 3.15c0.2 0.2 0.2 0.51 0 0.71L14 14.5z"/>
</svg>
