<svg xmlns="http://www.w3.org/2000/svg" width="24" height="24">
  <path fill="none" d="M0 0h24v24H0V0z"/>
  <path d="M19.96 10.59c0.04-0.31-0.19-0.59-0.5-0.59H17V8.86c1.54-0.4 2.72-1.68 2.96-3.27 0.04-0.31-0.19-0.59-0.5-0.59H17V4c0-0.55-0.45-1-1-1H8c-0.55 0-1 0.45-1 1v1H4.54c-0.31 0-0.54 0.28-0.5 0.59C4.28 7.18 5.46 8.46 7 8.86V10H4.54c-0.31 0-0.54 0.28-0.5 0.59 0.24 1.59 1.42 2.87 2.96 3.27V15H4.54c-0.31 0-0.54 0.28-0.5 0.59 0.24 1.59 1.42 2.87 2.96 3.27V20c0 0.55 0.45 1 1 1h8c0.55 0 1-0.45 1-1v-1.14c1.54-0.4 2.72-1.68 2.96-3.27 0.04-0.31-0.19-0.59-0.5-0.59H17v-1.14c1.54-0.4 2.72-1.68 2.96-3.27zM12 19c-1.11 0-2-0.9-2-2s0.89-2 2-2c1.1 0 2 0.9 2 2s-0.89 2-2 2z m0-5c-1.11 0-2-0.9-2-2s0.89-2 2-2c1.1 0 2 0.9 2 2s-0.89 2-2 2z m0-5c-1.11 0-2-0.9-2-2 0-1.11 0.89-2 2-2 1.1 0 2 0.89 2 2 0 1.1-0.89 2-2 2z"/>
</svg>
