<svg xmlns="http://www.w3.org/2000/svg" width="24" height="24">
  <path fill="none" d="M0 0h24v24H0V0z"/>
  <path d="M6 15h12c0.55 0 1-0.45 1-1v-3.95c0-0.55-0.45-1-1-1H6c-0.55 0-1 0.45-1 1V14c0 0.55 0.45 1 1 1z m5-13v1.05c0 0.55 0.45 0.95 1 0.95s1-0.4 1-0.95V2c0-0.55-0.45-1-1-1s-1 0.45-1 1z m7.34 2.3l-0.38 0.38c-0.39 0.39-0.39 1.02 0 1.41 0.39 0.39 1.02 0.39 1.41 0l0.38-0.38c0.39-0.39 0.39-1.02 0-1.41-0.39-0.39-1.02-0.39-1.41 0zM13 22v-0.96c0-0.55-0.45-1-1-1s-1 0.45-1 1V22c0 0.55 0.45 1 1 1s1-0.45 1-1z m6.74-3.61l-0.39-0.39c-0.39-0.39-1.02-0.39-1.41 0-0.39 0.39-0.39 1.02 0 1.41l0.38 0.39c0.39 0.39 1.02 0.39 1.41 0l0.01-0.01c0.39-0.38 0.39-1.02 0-1.4zM4.25 5.71l0.39 0.39c0.39 0.39 1.02 0.39 1.41 0 0.39-0.39 0.39-1.02 0-1.41l-0.39-0.39c-0.39-0.39-1.02-0.39-1.41 0-0.38 0.39-0.38 1.03 0 1.41z m1.42 14.08l0.38-0.38c0.39-0.39 0.39-1.02 0-1.41-0.39-0.39-1.02-0.39-1.41 0l-0.38 0.38c-0.39 0.39-0.39 1.02 0 1.41 0.38 0.39 1.02 0.39 1.41 0z"/>
</svg>
