<svg xmlns="http://www.w3.org/2000/svg" width="24" height="24">
  <path d="M19 3H5c-1.11 0-2 0.9-2 2v14c0 1.1 0.89 2 2 2h14c1.1 0 2-0.9 2-2V5c0-1.1-0.9-2-2-2z m-8.75 12c-0.41 0-0.75-0.34-0.75-0.75V13h-2v1.25c0 0.41-0.34 0.75-0.75 0.75S6 14.66 6 14.25v-4.5c0-0.41 0.34-0.75 0.75-0.75s0.75 0.34 0.75 0.75v1.75h2V9.75c0-0.41 0.34-0.75 0.75-0.75s0.75 0.34 0.75 0.75v4.5c0 0.41-0.34 0.75-0.75 0.75z m3.25-6H17c0.55 0 1 0.45 1 1v4c0 0.55-0.45 1-1 1h-3.5c-0.28 0-0.5-0.22-0.5-0.5v-5c0-0.28 0.22-0.5 0.5-0.5z m1 4.5h2v-3h-2v3z"/>
</svg>
