<svg xmlns="http://www.w3.org/2000/svg" width="24" height="24">
  <path fill="none" d="M0 0H24V24H0z"/>
  <path d="M23 8.75h-4v-1.5h4v1.5z m-0.38-4.38L22 3l-3.62 1.63L19 6l3.62-1.63zM19 10l-0.62 1.37L22 13l0.62-1.37L19 10z m-8 3c0.55 0 1 0.45 1 1v2c0 0.55-0.45 1-1 1H9.64l-0.74 2.78C8.547320757046503 21.09114720485278 7.357750514450856 22.001783735391516 6 22 5.067683931909375 22.00218236235388 4.187525182360975 21.57007003954651 3.619080485791668 20.831091934006412 3.0506357892223606 20.09211382846631 2.8587463832332283 19.13056354907489 3.1000000000000005 18.23l1.82-6.8C3.7277005358006656 10.697744792861974 3.0008211970981122 9.399205140908975 3 8c0-2.21 1.79-4 4-4h8c1.49 0 2.45 1.56 1.79 2.89l-2 4C14.45 11.57 13.75 12 13 12h-2.02l-0.27 1H11z"/>
</svg>
