<svg xmlns="http://www.w3.org/2000/svg" width="24" height="24">
  <path fill="none" d="M0 0h24v24H0V0z"/>
  <path d="M2 21h10c0.55 0 1 0.45 1 1s-0.45 1-1 1H2c-0.55 0-1-0.45-1-1s0.45-1 1-1zM5.24 8.07l2.83-2.83L20.8 17.97c0.78 0.78 0.78 2.05 0 2.83-0.78 0.78-2.05 0.78-2.83 0L5.24 8.07z m8.49-5.66l2.83 2.83c0.78 0.78 0.78 2.05 0 2.83l-1.42 1.42-5.65-5.66 1.41-1.41c0.78-0.79 2.05-0.79 2.83-0.01z m-9.9 7.07l5.66 5.66-1.41 1.41c-0.78 0.78-2.05 0.78-2.83 0l-2.83-2.83c-0.78-0.78-0.78-2.05 0-2.83l1.41-1.41z"/>
</svg>
