<svg xmlns="http://www.w3.org/2000/svg" width="24" height="24">
  <path fill="none" d="M0 0h24v24H0V0z"/>
  <path d="M6 11H2c-0.55 0-1 0.45-1 1s0.45 1 1 1h4c0.55 0 1-0.45 1-1s-0.45-1-1-1z m2.47-3.94l-0.72-0.72c-0.39-0.39-1.02-0.39-1.41 0-0.39 0.39-0.39 1.02 0 1.41l0.71 0.71c0.39 0.39 1.02 0.39 1.41 0 0.39-0.38 0.39-1.02 0.01-1.4zM12 1c-0.56 0-1 0.45-1 1v4c0 0.55 0.45 1 1 1s1-0.45 1-1V2c0-0.55-0.45-1-1-1z m5.66 5.35c-0.39-0.39-1.02-0.39-1.41 0l-0.71 0.71c-0.39 0.39-0.39 1.02 0 1.41 0.39 0.39 1.02 0.39 1.41 0l0.71-0.71c0.38-0.39 0.38-1.03 0-1.41zM17 12c0 0.56 0.45 1 1 1h4c0.55 0 1-0.45 1-1s-0.45-1-1-1h-4c-0.55 0-1 0.45-1 1z m-5-3c-1.66 0-3 1.34-3 3s1.34 3 3 3 3-1.34 3-3-1.34-3-3-3z m3.53 7.94l0.71 0.71c0.39 0.39 1.02 0.39 1.41 0 0.39-0.39 0.39-1.02 0-1.41l-0.71-0.71c-0.39-0.39-1.02-0.39-1.41 0-0.38 0.39-0.38 1.03 0 1.41z m-9.19 0.71c0.39 0.39 1.02 0.39 1.41 0l0.71-0.71c0.39-0.39 0.39-1.02 0-1.41-0.39-0.39-1.02-0.39-1.41 0l-0.71 0.71c-0.38 0.39-0.38 1.03 0 1.41zM12 23c0.56 0 1-0.45 1-1v-4c0-0.55-0.45-1-1-1s-1 0.45-1 1v4c0 0.55 0.45 1 1 1z"/>
</svg>
