<svg xmlns="http://www.w3.org/2000/svg" width="24" height="24">
  <path fill="none" d="M0 0h24v24H0V0z"/>
  <path d="M13 14v6c0 0.55 0.45 1 1 1h6c0.55 0 1-0.45 1-1v-6c0-0.55-0.45-1-1-1h-6c-0.55 0-1 0.45-1 1z m-9 7h6c0.55 0 1-0.45 1-1v-6c0-0.55-0.45-1-1-1H4c-0.55 0-1 0.45-1 1v6c0 0.55 0.45 1 1 1zM3 4v6c0 0.55 0.45 1 1 1h6c0.55 0 1-0.45 1-1V4c0-0.55-0.45-1-1-1H4c-0.55 0-1 0.45-1 1z m12.95-1.6L11.7 6.64c-0.39 0.39-0.39 1.02 0 1.41l4.25 4.25c0.39 0.39 1.02 0.39 1.41 0l4.25-4.25c0.39-0.39 0.39-1.02 0-1.41L17.37 2.4c-0.39-0.39-1.03-0.39-1.42 0z"/>
</svg>
