<svg xmlns="http://www.w3.org/2000/svg" width="24" height="24">
  <path fill="none" d="M0 0h24v24H0V0z"/>
  <path d="M22 3H7c-0.69 0-1.23 0.35-1.59 0.88L0.37 11.45c-0.22 0.34-0.22 0.77 0 1.11l5.04 7.56c0.36 0.52 0.97 0.88 1.66 0.88H22c1.1 0 2-0.9 2-2V5c0-1.1-0.9-2-2-2zM9 13.5c-0.83 0-1.5-0.67-1.5-1.5s0.67-1.5 1.5-1.5 1.5 0.67 1.5 1.5-0.67 1.5-1.5 1.5z m5 0c-0.83 0-1.5-0.67-1.5-1.5s0.67-1.5 1.5-1.5 1.5 0.67 1.5 1.5-0.67 1.5-1.5 1.5z m5 0c-0.83 0-1.5-0.67-1.5-1.5s0.67-1.5 1.5-1.5 1.5 0.67 1.5 1.5-0.67 1.5-1.5 1.5z"/>
</svg>
