<svg xmlns="http://www.w3.org/2000/svg" width="24" height="24">
  <path fill="none" d="M0 0H24V24H0z"/>
  <path d="M9 6c-3.31 0-6 2.69-6 6s2.69 6 6 6 6-2.69 6-6S12.31 6 9 6zM12 10.5h-2v5H8v-5H6V9h6V10.5z" opacity=".3"/>
  <path d="M9 4c-4.42 0-8 3.58-8 8 0 4.42 3.58 8 8 8s8-3.58 8-8C17 7.58 13.42 4 9 4zM9 18c-3.31 0-6-2.69-6-6s2.69-6 6-6 6 2.69 6 6S12.31 18 9 18zM12 10.5h-2v5H8v-5H6V9h6V10.5zM20.25 3.75L23 5l-2.75 1.25L19 9l-1.25-2.75L15 5l2.75-1.25L19 1 20.25 3.75zM20.25 17.75L23 19l-2.75 1.25L19 23l-1.25-2.75L15 19l2.75-1.25L19 15 20.25 17.75z"/>
</svg>
