<svg xmlns="http://www.w3.org/2000/svg" width="24" height="24">
  <path fill="none" d="M0 0h24v24H0V0z"/>
  <path d="M9 19h6V5H9v14z m3-13c0.83 0 1.5 0.67 1.5 1.5S12.83 9 12 9s-1.5-0.67-1.5-1.5S11.17 6 12 6z m0 4.5c0.83 0 1.5 0.67 1.5 1.5s-0.67 1.5-1.5 1.5-1.5-0.67-1.5-1.5 0.67-1.5 1.5-1.5z m0 4.5c0.83 0 1.5 0.67 1.5 1.5S12.83 18 12 18s-1.5-0.67-1.5-1.5 0.67-1.5 1.5-1.5z" opacity=".3"/>
  <path d="M20 5h-3V4c0-0.55-0.45-1-1-1H8c-0.55 0-1 0.45-1 1v1H4c0 1.86 1.28 3.41 3 3.86V10H4c0 1.86 1.28 3.41 3 3.86V15H4c0 1.86 1.28 3.41 3 3.86V20c0 0.55 0.45 1 1 1h8c0.55 0 1-0.45 1-1v-1.14c1.72-0.45 3-2 3-3.86h-3v-1.14c1.72-0.45 3-2 3-3.86h-3V8.86c1.72-0.45 3-2 3-3.86z m-5 14H9V5h6v14z m-3-1c0.83 0 1.5-0.67 1.5-1.5S12.83 15 12 15s-1.5 0.67-1.5 1.5 0.67 1.5 1.5 1.5z m0-4.5c0.83 0 1.5-0.67 1.5-1.5s-0.67-1.5-1.5-1.5-1.5 0.67-1.5 1.5 0.67 1.5 1.5 1.5zM12 9c0.83 0 1.5-0.67 1.5-1.5S12.83 6 12 6s-1.5 0.67-1.5 1.5S11.17 9 12 9z"/>
</svg>
