<svg xmlns="http://www.w3.org/2000/svg" width="24" height="24">
  <path fill="none" d="M0 0H24V24H0z"/>
  <path d="M6.6 19.32l-1.06 1.06L2 16.85l1.06-1.06L6.6 19.32zM8.72 17.2l-1.06 1.06-3.54-3.54 1.06-1.06L8.72 17.2zM13.67 12.25l-1.41 1.41-3.54-3.54 1.41-1.41L13.67 12.25zM18.26 7.66L17.2 8.72l-3.54-3.54 1.06-1.06L18.26 7.66zM20.38 5.54L19.32 6.6l-3.54-3.54L16.85 2 20.38 5.54z" opacity=".3"/>
  <path d="M15.44 0.59l-3.18 3.18c-0.78 0.78-0.78 2.05 0 2.83l1.24 1.24-0.71 0.71L11.55 7.3c-0.78-0.78-2.05-0.78-2.83 0L7.3 8.72c-0.78 0.78-0.78 2.05 0 2.83l1.24 1.24-0.71 0.71L6.6 12.25c-0.78-0.78-2.05-0.78-2.83 0l-3.18 3.18c-0.78 0.78-0.78 2.05 0 2.83l3.54 3.54c0.78 0.78 2.05 0.78 2.83 0l3.18-3.18c0.78-0.78 0.78-2.05 0-2.83l-1.24-1.24 0.71-0.71 1.24 1.24c0.78 0.78 2.05 0.78 2.83 0l1.41-1.41c0.78-0.78 0.78-2.05 0-2.83L13.84 9.6l0.71-0.71 1.24 1.24c0.78 0.78 2.05 0.78 2.83 0l3.18-3.18c0.78-0.78 0.78-2.05 0-2.83l-3.54-3.54C17.48-0.2 16.22-0.2 15.44 0.59zM6.6 19.32l-1.06 1.06L2 16.85l1.06-1.06L6.6 19.32zM8.72 17.2l-1.06 1.06-3.54-3.54 1.06-1.06L8.72 17.2zM13.67 12.25l-1.41 1.41-3.54-3.54 1.41-1.41L13.67 12.25zM18.26 7.66L17.2 8.72l-3.54-3.54 1.06-1.06L18.26 7.66zM20.38 5.54L19.32 6.6l-3.54-3.54L16.85 2 20.38 5.54zM21 14l2 0c0 4.97-4.03 9-9 9l0-2C17.87 21 21 17.87 21 14zM17 14l2 0c0 2.76-2.24 5-5 5l0-2C15.66 17 17 15.66 17 14z"/>
</svg>
