<svg xmlns="http://www.w3.org/2000/svg" width="24" height="24">
  <path fill="none" d="M0 0h24v24H0V0z"/>
  <path d="M18.52 15.16c0.41-0.73 1.18-1.16 1.63-1.8 0.48-0.68 0.21-1.94-1.14-1.94-0.88 0-1.32 0.67-1.5 1.23l-1.37-0.57c0.37-1.12 1.38-2.08 2.86-2.08 1.23 0 2.08 0.56 2.51 1.26 0.37 0.6 0.58 1.73 0.01 2.57-0.63 0.93-1.23 1.21-1.56 1.81-0.13 0.24-0.18 0.4-0.18 1.18h-1.52C18.26 16.41 18.19 15.74 18.52 15.16zM17.95 18.95c0-0.59 0.47-1.04 1.05-1.04 0.59 0 1.04 0.45 1.04 1.04 0 0.58-0.44 1.05-1.04 1.05C18.42 20 17.95 19.53 17.95 18.95z"/>
  <path fill-opacity=".3" d="M14 13c0-2.76 2.24-5 5-5 1.63 0 3.07 0.79 3.98 2L24 8.98C20.93 5.9 16.69 4 12 4 7.31 4 3.07 5.9 0 8.98L12 21l4.01-4.02C14.8 16.07 14 14.63 14 13z"/>
</svg>
