<svg xmlns="http://www.w3.org/2000/svg" width="24" height="24">
  <path fill="none" d="M0 0h24v24H0V0z"/>
  <path d="M19 3H5c-1.1 0-2 0.9-2 2v14c0 1.1 0.9 2 2 2h14c1.1 0 2-0.9 2-2V5c0-1.1-0.9-2-2-2z m-7 2.75c0-0.41 0.34-0.75 0.75-0.75s0.75 0.34 0.75 0.75V8l1.79-2.69c0.13-0.19 0.35-0.31 0.59-0.31 0.56 0 0.9 0.63 0.59 1.1L15.2 8l1.27 1.9c0.31 0.47-0.02 1.1-0.59 1.1-0.24 0-0.46-0.12-0.59-0.31L13.5 8v2.25c0 0.41-0.34 0.75-0.75 0.75s-0.75-0.34-0.75-0.75v-4.5z m-5 2.5c0-0.55 0.45-1 1-1h1.5V6.5H7.75c-0.41 0-0.75-0.34-0.75-0.75S7.34 5 7.75 5H10c0.55 0 1 0.45 1 1v1.75c0 0.55-0.45 1-1 1H8.5v0.75h1.75c0.41 0 0.75 0.34 0.75 0.75s-0.34 0.75-0.75 0.75H8c-0.55 0-1-0.45-1-1V8.25z m11.74 5.01l-5.03 5.03c-0.39 0.39-1.02 0.39-1.41 0L9 15l-2.49 2.49c-0.56 0.56-1.51 0.16-1.51-0.62 0-0.23 0.09-0.46 0.26-0.62l3.03-3.03c0.39-0.39 1.02-0.39 1.41 0L13 16.5l4.49-4.49c0.56-0.56 1.51-0.16 1.51 0.62 0 0.24-0.09 0.46-0.26 0.63z"/>
</svg>
