<svg xmlns="http://www.w3.org/2000/svg" width="24" height="24">
  <path fill="none" d="M0 0h24v24H0V0z m0 0h24v24H0V0z m0 0h24v24H0V0z m0 0h24v24H0V0z"/>
  <path d="M8.9 6c0-1.71 1.39-3.1 3.1-3.1s3.1 1.39 3.1 3.1v2h-4.66L20 17.56V10c0-1.1-0.9-2-2-2h-1V6c0-2.76-2.24-5-5-5-2.32 0-4.26 1.59-4.82 3.74L8.9 6.46V6z m-3.78-0.49c-0.39-0.39-1.02-0.39-1.41 0-0.39 0.39-0.39 1.02 0 1.41l1.33 1.33C4.42 8.6 4 9.25 4 10v10c0 1.1 0.9 2 2 2h12.78l0.29 0.29c0.39 0.39 1.02 0.39 1.41 0 0.39-0.39 0.39-1.02 0-1.41L5.12 5.51z"/>
</svg>
