<svg xmlns="http://www.w3.org/2000/svg" width="24" height="24">
  <path fill="none" d="M0 0h24v24H0V0z"/>
  <path d="M16 3c-0.55 0-1 0.45-1 1v5c0 0.55 0.45 1 1 1s1-0.45 1-1V4c0-0.55-0.45-1-1-1z m3 1v5c0 0.55 0.45 1 1 1s1-0.45 1-1V4c0-0.55-0.45-1-1-1s-1 0.45-1 1z m0.23 11.26l-2.54-0.29c-0.61-0.07-1.21 0.14-1.64 0.57l-1.84 1.84c-2.83-1.44-5.15-3.75-6.59-6.59l1.85-1.85c0.43-0.43 0.64-1.03 0.57-1.64l-0.29-2.52c-0.12-1.01-0.97-1.77-1.99-1.77H5.03c-1.13 0-2.07 0.94-2 2.07 0.53 8.54 7.36 15.36 15.89 15.89 1.13 0.07 2.07-0.87 2.07-2v-1.73c0.01-1.01-0.75-1.86-1.76-1.98z"/>
</svg>
