<svg xmlns="http://www.w3.org/2000/svg" width="24" height="24">
  <path d="M20 3H4c-1.1 0-1.99 0.9-1.99 2L2 15c0 1.1 0.9 2 2 2h16c1.1 0 2-0.9 2-2V5c0-1.1-0.9-2-2-2z m-9 3h2v2h-2V6z m0 3h2v2h-2V9zM8 6h2v2H8V6z m0 3h2v2H8V9z m-1 2H5V9h2v2z m0-3H5V6h2v2z m8 7H9c-0.55 0-1-0.45-1-1s0.45-1 1-1h6c0.55 0 1 0.45 1 1s-0.45 1-1 1z m1-4h-2V9h2v2z m0-3h-2V6h2v2z m3 3h-2V9h2v2z m0-3h-2V6h2v2z m-6.65 14.65l2.79-2.79C15.280059859549693 19.71714984506075 15.321487768909511 19.504564393125158 15.245315983529453 19.31957577148787 15.169144198149397 19.134587149850585 14.990037583335704 19.012810031398203 14.79 19.009999999999998H9.21c-0.45 0-0.67 0.54-0.35 0.85l2.79 2.79c0.19 0.19 0.51 0.19 0.7 0z"/>
</svg>
