<svg xmlns="http://www.w3.org/2000/svg" width="24" height="24">
  <path fill="none" d="M0 0h24v24H0V0z"/>
  <path d="M1.41 1.13L0 2.54l4.39 4.39 2.21 4.66-1.35 2.45c-0.16 0.28-0.25 0.61-0.25 0.96 0 1.1 0.9 2 2 2h7.46l1.38 1.38c-0.5 0.36-0.83 0.95-0.83 1.62 0 1.1 0.89 2 1.99 2 0.67 0 1.26-0.33 1.62-0.84L21.46 24l1.41-1.41L1.41 1.13zM7 15l1.1-2h2.36l2 2H7z"/>
  <path d="M18.31 6H9.12l4.99 5h1.44z" opacity=".3"/>
  <path d="M20 4H7.12l2 2h9.19l-2.76 5h-1.44l1.94 1.94c0.54-0.14 0.99-0.49 1.25-0.97l3.58-6.49C21.25 4.82 20.76 4 20 4zM7 18c-1.1 0-1.99 0.9-1.99 2S5.9 22 7 22s2-0.9 2-2-0.9-2-2-2z"/>
</svg>
