<svg xmlns="http://www.w3.org/2000/svg" width="24" height="24">
  <path fill="none" d="M0 0H24V24H0z"/>
  <path d="M10 18H14V19H10z" opacity=".3"/>
  <path d="M10 16H14V17H10z" opacity=".3"/>
  <path d="M12 3c-0.46 0-0.93 0.04-1.4 0.14C7.84 3.67 5.64 5.9 5.12 8.66c-0.48 2.61 0.48 5.01 2.22 6.56C7.77 15.6 8 16.13 8 16.69V19c0 1.1 0.9 2 2 2h0.28c0.35 0.6 0.98 1 1.72 1s1.38-0.4 1.72-1H14c1.1 0 2-0.9 2-2v-2.31c0-0.55 0.22-1.09 0.64-1.46C18.09 13.95 19 12.08 19 10 19 6.13 15.87 3 12 3zM14 19h-4v-1h4V19zM14 17h-4v-1h4V17zM15.31 13.74c-0.09 0.08-0.16 0.18-0.24 0.26H8.92c-0.08-0.09-0.15-0.19-0.24-0.27-1.32-1.18-1.91-2.94-1.59-4.7 0.36-1.94 1.96-3.55 3.89-3.93C11.32 5.03 11.66 5 12 5c2.76 0 5 2.24 5 5C17 11.43 16.39 12.79 15.31 13.74z"/>
  <path d="M11.5 11H12.5V14H11.5z"/>
  <path d="M10.59 8.79H11.59V11.79H10.59z" transform="rotate(-45.001 11.086 10.293)"/>
  <path d="M12.41 8.79H13.41V11.79H12.41z" transform="rotate(-134.999 12.914 10.293)"/>
</svg>
