<svg xmlns="http://www.w3.org/2000/svg" width="24" height="24">
  <path fill="none" d="M0 0H24V24H0z"/>
  <path d="M5 6.3V11c0 4.52 2.98 8.69 7 9.93 1.74-0.53 3.28-1.62 4.47-3.04l-1.72-1.72c-1.94 1.29-4.58 1.07-6.29-0.64-1.95-1.95-1.95-5.12 0-7.07 1.95-1.95 5.12-1.95 7.07 0 1.71 1.71 1.92 4.35 0.64 6.29l1.45 1.45C18.49 14.65 19 12.85 19 11V6.3l-7-3.11L5 6.3z" opacity=".3"/>
  <path d="M12 1L3 5v6c0 5.55 3.84 10.74 9 12 0.65-0.16 1.27-0.38 1.87-0.65 1.8-0.82 3.36-2.13 4.57-3.74C20.04 16.46 21 13.77 21 11V5L12 1zM19 11c0 1.85-0.51 3.65-1.38 5.21l-1.45-1.45c1.29-1.94 1.07-4.58-0.64-6.29-1.95-1.95-5.12-1.95-7.07 0-1.95 1.95-1.95 5.12 0 7.07 1.71 1.71 4.35 1.92 6.29 0.64l1.72 1.72c-1.19 1.42-2.73 2.51-4.47 3.04C7.98 19.69 5 15.52 5 11V6.3l7-3.11 7 3.11V11zM15 12c0 1.66-1.34 3-3 3s-3-1.34-3-3 1.34-3 3-3S15 10.34 15 12z"/>
</svg>
