<svg xmlns="http://www.w3.org/2000/svg" width="24" height="24">
  <path fill="none" d="M0 0H24V24H0z"/>
  <path d="M10.7 13.53l-1.71-1.71C9 11.88 9 11.94 9 12c0 1.1-0.9 2-2 2s-2-0.9-2-2 0.9-2 2-2c0.06 0 0.12 0 0.18 0.01L5.47 8.3C4.02 8.9 3 10.33 3 12c0 2.21 1.79 4 4 4C8.67 16 10.1 14.98 10.7 13.53zM12.19 15.02C11.15 16.8 9.21 18 7 18c-3.31 0-6-2.69-6-6 0-2.21 1.2-4.15 2.98-5.19L1.39 4.22l1.41-1.41 18.38 18.38-1.41 1.41L12.19 15.02zM16.26 13.43l1.24-0.93 1.81 1.36L21.17 12l-1-1-6.34 0-2-2L21 9l0 0 3 3-4.5 4.5-0.69-0.51L16.26 13.43z"/>
</svg>
