<svg xmlns="http://www.w3.org/2000/svg" width="24" height="24">
  <path fill="none" d="M0 0h24v24H0V0z"/>
  <path d="M20 20H4V8h4.05l1.83-2H15V4H9L7.17 6H4c-1.1 0-2 0.9-2 2v12c0 1.1 0.9 2 2 2h16c1.1 0 2-0.9 2-2V9h-2v11zM16 2v1.33c2.58 0 4.66 2.09 4.67 4.66H22C21.99 4.68 19.31 2 16 2z m0 2.67V6c1.11 0 1.99 0.89 2 1.99h1.33c-0.01-1.84-1.49-3.32-3.33-3.32z"/>
  <path d="M14.98 10.01c-0.13-0.09-0.26-0.18-0.39-0.26 0.14 0.08 0.27 0.17 0.39 0.26zM17 9c0-0.37-0.11-0.71-0.28-1.01-0.18-0.3-0.43-0.55-0.73-0.72C15.7 7.1 15.36 7 15 7V6H9.88L8.05 8H4v12h16V9h-3z m-5 10c-2.76 0-5-2.24-5-5s2.24-5 5-5 5 2.24 5 5-2.24 5-5 5z" opacity=".3"/>
  <path d="M12 9c-2.76 0-5 2.24-5 5s2.24 5 5 5 5-2.24 5-5-2.24-5-5-5z m0 8c-1.65 0-3-1.35-3-3s1.35-3 3-3 3 1.35 3 3-1.35 3-3 3z"/>
</svg>
