<svg xmlns="http://www.w3.org/2000/svg" width="24" height="24">
  <path fill="none" d="M0 0H24V24H0z"/>
  <path d="M2 16H22V21H2z"/>
  <path d="M18.66 11.5c-1.95 0-2.09 1-3.33 1-1.19 0-1.42-1-3.33-1-1.95 0-2.09 1-3.33 1-1.19 0-1.42-1-3.33-1-1.95 0-2.09 1-3.33 1v2c1.9 0 2.17-1 3.35-1 1.19 0 1.42 1 3.33 1 1.95 0 2.09-1 3.33-1 1.19 0 1.42 1 3.33 1 1.95 0 2.09-1 3.33-1 1.19 0 1.4 0.98 3.32 1l-0.01-1.98C20.38 12.19 20.37 11.5 18.66 11.5z"/>
  <path d="M22 9c0.02-4-4.28-6-10-6C6.29 3 2 5 2 9v1h20L22 9 22 9z"/>
</svg>
