<svg xmlns="http://www.w3.org/2000/svg" width="24" height="24">
  <path fill="none" d="M0 0H24V24H0z"/>
  <path d="M12 2c1.1 0 2 0.9 2 2s-0.9 2-2 2-2-0.9-2-2S10.9 2 12 2zM10 20c-1.66 0-3-1.34-3-3 0-1.31 0.84-2.41 2-2.83V12.1c-2.28 0.46-4 2.48-4 4.9 0 2.76 2.24 5 5 5 2.42 0 4.44-1.72 4.9-4h-2.07C12.42 19.16 11.31 20 10 20zM20.49 20.49L3.51 3.51c-0.39-0.39-1.02-0.39-1.41 0-0.39 0.39-0.39 1.02 0 1.41l7.9 7.9V15c0 1.1 0.9 2 2 2h2.17l4.9 4.9c0.39 0.39 1.02 0.39 1.41 0C20.88 21.51 20.88 20.88 20.49 20.49zM18.16 10.93c-1.25-0.21-2.43-0.88-3.23-1.76l-1.29-1.43C13.4 7.5 13.2 7.38 13.01 7.28c-0.36-0.19-0.72-0.3-1.2-0.26-0.49 0.04-0.91 0.27-1.23 0.61L14 11.05c1 0.83 2.4 1.54 3.8 1.82C18.42 13 19 12.53 19 11.9 19 11.42 18.64 11.01 18.16 10.93z"/>
</svg>
