<svg xmlns="http://www.w3.org/2000/svg" width="24" height="24">
  <path fill="none" d="M0 0H24V24H0z"/>
  <path d="M13 13L13 13c-0.56 0.56-1.45 0.56-2 0.01L11 13c-0.55-0.55-0.55-1.44 0-1.99L11 11c0.55-0.55 1.44-0.55 1.99 0L13 11C13.55 11.55 13.55 12.45 13 13zM12 6l2.12 2.12 2.5-2.5-3.2-3.2c-0.78-0.78-2.05-0.78-2.83 0l-3.2 3.2 2.5 2.5L12 6zM6 12l2.12-2.12-2.5-2.5-3.2 3.2c-0.78 0.78-0.78 2.05 0 2.83l3.2 3.2 2.5-2.5L6 12zM18 12l-2.12 2.12 2.5 2.5 3.2-3.2c0.78-0.78 0.78-2.05 0-2.83l-3.2-3.2-2.5 2.5L18 12zM12 18l-2.12-2.12-2.5 2.5 3.2 3.2c0.78 0.78 2.05 0.78 2.83 0l3.2-3.2-2.5-2.5L12 18z"/>
</svg>
