<svg xmlns="http://www.w3.org/2000/svg" width="24" height="24">
  <path fill="none" d="M0 0H24V24H0z"/>
  <path d="M20 21c-1.39 0-2.78-0.47-4-1.32-2.44 1.71-5.56 1.71-8 0C6.78 20.53 5.39 21 4 21H2v2h2c1.38 0 2.74-0.35 4-0.99 2.52 1.29 5.48 1.29 8 0 1.26 0.65 2.62 0.99 4 0.99h2v-2H20zM3.95 19H4c1.6 0 3.02-0.88 4-2 0.98 1.12 2.4 2 4 2s3.02-0.88 4-2c0.98 1.12 2.4 2 4 2h0.05l1.9-6.68c0.11-0.37 0.04-1.06-0.66-1.28L20 10.62V6c0-1.1-0.9-2-2-2h-3V1H9v3H6C4.9 4 4 4.9 4 6v4.62l-1.29 0.42c-0.63 0.19-0.81 0.84-0.66 1.28L3.95 19zM6 6h12v3.97L12 8 6 9.97V6z"/>
</svg>
