<svg xmlns="http://www.w3.org/2000/svg" width="24" height="24">
  <path fill="none" d="M0 0h24v24H0V0z"/>
  <circle cx="7" cy="6" r="2"/>
  <path d="M11.15 12c-0.31-0.22-0.59-0.46-0.82-0.72l-1.4-1.55c-0.19-0.21-0.43-0.38-0.69-0.5-0.29-0.14-0.62-0.23-0.96-0.23h-0.03C6.01 9 5 10.01 5 11.25V12H2v8c0 1.1 0.9 2 2 2h16c1.1 0 2-0.9 2-2v-8H11.15zM7 20H5v-6h2v6z m4 0H9v-6h2v6z m4 0h-2v-6h2v6z m4 0h-2v-6h2v6zM17.42 7.21c0.57 0.62 0.82 1.41 0.67 2.2l-0.11 0.59h1.91l0.06-0.43c0.21-1.36-0.27-2.71-1.3-3.71l-0.07-0.07c-0.57-0.62-0.82-1.41-0.67-2.2L18 3h-1.89l-0.06 0.43c-0.2 1.36 0.27 2.71 1.3 3.72l0.07 0.06z m-4 0c0.57 0.62 0.82 1.41 0.67 2.2l-0.11 0.59h1.91l0.06-0.43c0.21-1.36-0.27-2.71-1.3-3.71l-0.07-0.07c-0.57-0.62-0.82-1.41-0.67-2.2L14 3h-1.89l-0.06 0.43c-0.2 1.36 0.27 2.71 1.3 3.72l0.07 0.06z"/>
</svg>
