<svg xmlns="http://www.w3.org/2000/svg" width="24" height="24">
  <path fill="none" d="M0 0h24v24H0V0z"/>
  <path d="M7 20.01L17 20l1.1-10H5.89L7 20.01z m5-9.41s3 3.4 3 5.4c0 1.66-1.34 3-3 3s-3-1.34-3-3c0-2 3-5.4 3-5.4z" opacity=".3"/>
  <path d="M5.01 20.23C5.13 21.23 5.97 22 7 22h10c1.03 0 1.87-0.77 1.99-1.77L21 2H3l2.01 18.23zM17 20l-10 0.01L5.89 10H18.1L17 20z m1.76-16l-0.43 4H5.67l-0.44-4h13.53zM12 19c1.66 0 3-1.34 3-3 0-2-3-5.4-3-5.4S9 14 9 16c0 1.66 1.34 3 3 3z m0-5.09c0.59 0.91 1 1.73 1 2.09 0 0.55-0.45 1-1 1s-1-0.45-1-1c0-0.37 0.41-1.19 1-2.09z"/>
</svg>
