<svg xmlns="http://www.w3.org/2000/svg" width="24" height="24">
  <path fill="none" d="M0 0H24V24H0z"/>
  <path d="M9.99 11.01 9 8.83 8.01 11.01 5.83 12 8.01 12.99 9 15.17 9.99 12.99 12.17 12z" opacity=".3"/>
  <path d="M19 9 20.25 6.25 23 5 20.25 3.75 19 1 17.75 3.75 15 5 17.75 6.25z"/>
  <path d="M19 15 17.75 17.75 15 19 17.75 20.25 19 23 20.25 20.25 23 19 20.25 17.75z"/>
  <path d="M11.5 9.5L9 4 6.5 9.5 1 12l5.5 2.5L9 20l2.5-5.5L17 12 11.5 9.5zM9.99 12.99L9 15.17l-0.99-2.18L5.83 12l2.18-0.99L9 8.83l0.99 2.18L12.17 12 9.99 12.99z"/>
</svg>
