<svg xmlns="http://www.w3.org/2000/svg" width="24" height="24">
  <path fill="none" d="M0 0h24v24H0V0z"/>
  <path d="M9.4 10.5l4.77-8.26C13.47 2.09 12.75 2 12 2c-2.4 0-4.6 0.85-6.32 2.25l3.66 6.35 0.06-0.1zM21.54 9c-0.92-2.92-3.15-5.26-6-6.34L11.88 9h9.66z m0.26 1h-7.49l0.29 0.5 4.76 8.25C21 16.97 22 14.61 22 12c0-0.69-0.07-1.35-0.2-2zM8.54 12l-3.9-6.75C3.01 7.03 2 9.39 2 12c0 0.69 0.07 1.35 0.2 2h7.49l-1.15-2z m-6.08 3c0.92 2.92 3.15 5.26 6 6.34L12.12 15H2.46z m11.27 0l-3.9 6.76c0.7 0.15 1.42 0.24 2.17 0.24 2.4 0 4.6-0.85 6.32-2.25l-3.66-6.35-0.93 1.6z"/>
</svg>
