<svg xmlns="http://www.w3.org/2000/svg" width="24" height="24">
  <path fill="none" d="M0 0h24v24H0V0z"/>
  <path d="M11.17 8l-0.59-0.59L9.17 6H4v12h16V8h-8.83zM19 16v1h-8v-1c0-1.33 2.67-2 4-2s4 0.67 4 2z m-4-7c1.1 0 2 0.9 2 2s-0.9 2-2 2-2-0.9-2-2 0.9-2 2-2z" opacity=".3"/>
  <path d="M20 6h-8l-2-2H4c-1.1 0-1.99 0.9-1.99 2L2 18c0 1.1 0.9 2 2 2h16c1.1 0 2-0.9 2-2V8c0-1.1-0.9-2-2-2z m0 12H4V6h5.17l2 2H20v10z m-5-5c1.1 0 2-0.9 2-2s-0.9-2-2-2-2 0.9-2 2 0.9 2 2 2z m-4 3v1h8v-1c0-1.33-2.67-2-4-2s-4 0.67-4 2z"/>
</svg>
