<svg xmlns="http://www.w3.org/2000/svg" width="24" height="24">
  <path fill="none" d="M0 0h24v24H0V0z"/>
  <path d="M13 8.5H14V9.5H13z" opacity=".3"/>
  <path d="M10 8.5H11V9.5H10z" opacity=".3"/>
  <path d="M11.5 8.5H12.5V9.5H11.5z" opacity=".3"/>
  <path d="M5 19h14V5H5V19zM12 6c1.66 0 3 1.34 3 3s-1.34 3-3 3-3-1.34-3-3S10.34 6 12 6z" opacity=".3"/>
  <path d="M12 12c1.66 0 3-1.34 3-3s-1.34-3-3-3S9 7.34 9 9 10.34 12 12 12zM13 8.5h1v1h-1V8.5zM11.5 8.5h1v1h-1V8.5zM10 8.5h1v1h-1V8.5z"/>
  <path d="M19 3H5C3.9 3 3 3.9 3 5v14c0 1.1 0.9 2 2 2h14c1.1 0 2-0.9 2-2V5C21 3.9 20.1 3 19 3zM19 19H5V5h14V19z"/>
</svg>
