<svg xmlns="http://www.w3.org/2000/svg" width="24" height="24">
  <path d="M19.99 4c0-1.1-0.89-2-1.99-2h-7.17c-0.53 0-1.04 0.21-1.42 0.59L4.59 7.41C4.21 7.79 4 8.3 4 8.83V20c0 1.1 0.9 2 2 2h12.01c1.1 0 1.99-0.9 1.99-2l-0.01-16zM8 19c-0.55 0-1-0.45-1-1s0.45-1 1-1 1 0.45 1 1-0.45 1-1 1z m8 0c-0.55 0-1-0.45-1-1s0.45-1 1-1 1 0.45 1 1-0.45 1-1 1z m-8-4c-0.55 0-1-0.45-1-1v-2c0-0.55 0.45-1 1-1s1 0.45 1 1v2c0 0.55-0.45 1-1 1z m4 4c-0.55 0-1-0.45-1-1v-2c0-0.55 0.45-1 1-1s1 0.45 1 1v2c0 0.55-0.45 1-1 1z m0-6c-0.55 0-1-0.45-1-1s0.45-1 1-1 1 0.45 1 1-0.45 1-1 1z m4 2c-0.55 0-1-0.45-1-1v-2c0-0.55 0.45-1 1-1s1 0.45 1 1v2c0 0.55-0.45 1-1 1z"/>
</svg>
