<svg xmlns="http://www.w3.org/2000/svg" width="24" height="24">
  <path fill="none" d="M0 0h24v24H0V0z"/>
  <path d="M12.6 18.06c-0.36 0.28-0.87 0.28-1.23 0l-6.15-4.78c-0.36-0.28-0.86-0.28-1.22 0-0.51 0.4-0.51 1.17 0 1.57l6.76 5.26c0.72 0.56 1.73 0.56 2.46 0l6.76-5.26c0.51-0.4 0.51-1.17 0-1.57l-0.01-0.01c-0.36-0.28-0.86-0.28-1.22 0l-6.15 4.79z m0.63-3.02l6.76-5.26c0.51-0.4 0.51-1.18 0-1.58l-6.76-5.26c-0.72-0.56-1.73-0.56-2.46 0L4.01 8.21c-0.51 0.4-0.51 1.18 0 1.58l6.76 5.26c0.72 0.56 1.74 0.56 2.46-0.01z"/>
</svg>
