<svg xmlns="http://www.w3.org/2000/svg" width="24" height="24">
  <path fill="none" d="M0 0h24v24H0V0z"/>
  <circle cx="11" cy="8" r="2" opacity=".3"/>
  <path d="M5 18h4.99L9 17l0.93-0.94C7.55 16.33 5.2 17.37 5 18z" opacity=".3"/>
  <path d="M11 12c2.21 0 4-1.79 4-4s-1.79-4-4-4-4 1.79-4 4 1.79 4 4 4z m0-6c1.1 0 2 0.9 2 2s-0.9 2-2 2-2-0.9-2-2 0.9-2 2-2z m-1 12H5c0.2-0.63 2.55-1.67 4.93-1.94h0.03l0.46-0.45L12 14.06c-0.39-0.04-0.68-0.06-1-0.06-2.67 0-8 1.34-8 4v2h9l-2-2z m10.6-5.5l-5.13 5.17-2.07-2.08L12 17l3.47 3.5L22 13.91z"/>
</svg>
