<svg xmlns="http://www.w3.org/2000/svg" width="24" height="24">
  <path fill="none" d="M0 0H24V24H0z"/>
  <path d="M19 5c0-1.1-0.9-2-2-2h-3v2h3v2.65L13.52 12H10V7H6c-2.21 0-4 1.79-4 4v3h2c0 1.66 1.34 3 3 3s3-1.34 3-3h4.48L19 8.35V5zM7 15c-0.55 0-1-0.45-1-1h2C8 14.55 7.55 15 7 15z"/>
  <path d="M5 4H10V6H5z"/>
  <path d="M19 11c-1.66 0-3 1.34-3 3s1.34 3 3 3 3-1.34 3-3S20.66 11 19 11zM19 15c-0.55 0-1-0.45-1-1s0.45-1 1-1 1 0.45 1 1S19.55 15 19 15z"/>
  <path d="M7 20 11 20 11 18 17 21 13 21 13 23z"/>
</svg>
