<svg xmlns="http://www.w3.org/2000/svg" width="24" height="24">
  <path fill="none" d="M0 0h24v24H0V0z"/>
  <path d="M11 16c0 0.55 0.45 1 1 1s1-0.45 1-1v-2h-2v2z m-8 0c0 0.55 0.45 1 1 1s1-0.45 1-1v-2H3v2z m16 0c0 0.55 0.45 1 1 1s1-0.45 1-1v-2h-2v2z" opacity=".3"/>
  <path d="M5 2c0-0.55-0.45-1-1-1s-1 0.45-1 1v4H1v10c0 1.3 0.84 2.4 2 2.82V23h2v-4.18C6.16 18.4 7 17.3 7 16V6H5V2z m0 14c0 0.55-0.45 1-1 1s-1-0.45-1-1v-2h2v2z m0-4H3V8h2v4z m8-10c0-0.55-0.45-1-1-1s-1 0.45-1 1v4H9v10c0 1.3 0.84 2.4 2 2.82V23h2v-4.18c1.16-0.42 2-1.52 2-2.82V6h-2V2z m0 14c0 0.55-0.45 1-1 1s-1-0.45-1-1v-2h2v2z m0-4h-2V8h2v4z m8-6V2c0-0.55-0.45-1-1-1s-1 0.45-1 1v4h-2v10c0 1.3 0.84 2.4 2 2.82V23h2v-4.18c1.16-0.42 2-1.52 2-2.82V6h-2z m0 10c0 0.55-0.45 1-1 1s-1-0.45-1-1v-2h2v2z m0-4h-2V8h2v4z"/>
</svg>
