<svg xmlns="http://www.w3.org/2000/svg" width="24" height="24">
  <path fill="none" d="M0 0h24v24H0V0z"/>
  <path d="M12.25 9c0.41 0 0.75 0.34 0.75 0.75v4.5c0 0.41-0.34 0.75-0.75 0.75s-0.75-0.34-0.75-0.75v-4.5c0-0.41 0.34-0.75 0.75-0.75zM10 9.75c0-0.41-0.34-0.75-0.75-0.75H6c-0.6 0-1 0.5-1 1v4c0 0.5 0.4 1 1 1h3c0.6 0 1-0.5 1-1v-1.25c0-0.41-0.34-0.75-0.75-0.75s-0.75 0.34-0.75 0.75v0.75h-2v-3h2.75c0.41 0 0.75-0.34 0.75-0.75z m9 0c0-0.41-0.34-0.75-0.75-0.75H15.5c-0.55 0-1 0.45-1 1v4.25c0 0.41 0.34 0.75 0.75 0.75s0.75-0.34 0.75-0.75V13h1.25c0.41 0 0.75-0.34 0.75-0.75s-0.34-0.75-0.75-0.75H16v-1h2.25c0.41 0 0.75-0.34 0.75-0.75z"/>
</svg>
