<svg xmlns="http://www.w3.org/2000/svg" width="24" height="24">
  <path fill="none" d="M0 0v24h24V0H0z m1 13V7c0-1.66 1.34-3 3-3h12c1.66 0 3 1.34 3 3v7c0 1.1-0.9 2-2 2H4c-1.66 0-3-1.34-3-3z m22 5c0 1.1-0.9 2-2 2H5c-0.55 0-1-0.45-1-1s0.45-1 1-1h16V8c0-0.55 0.45-1 1-1s1 0.45 1 1v10z"/>
  <path d="M23 8v10c0 1.1-0.9 2-2 2H5c-0.55 0-1-0.45-1-1s0.45-1 1-1h16V8c0-0.55 0.45-1 1-1s1 0.45 1 1zM4 16c-1.66 0-3-1.34-3-3V7c0-1.66 1.34-3 3-3h12c1.66 0 3 1.34 3 3v7c0 1.1-0.9 2-2 2H4z m3-6c0 1.66 1.34 3 3 3s3-1.34 3-3-1.34-3-3-3-3 1.34-3 3z"/>
</svg>
