<svg xmlns="http://www.w3.org/2000/svg" width="24" height="24">
  <path fill="none" d="M0 0h24v24H0V0z"/>
  <path d="M15.5 5.5c1.1 0 2-0.9 2-2s-0.9-2-2-2-2 0.9-2 2 0.9 2 2 2zM5 22c2.8 0 5-2.2 5-5s-2.2-5-5-5-5 2.2-5 5 2.2 5 5 5z m0-8.5c1.9 0 3.5 1.6 3.5 3.5S6.9 20.5 5 20.5 1.5 18.9 1.5 17s1.6-3.5 3.5-3.5z m2.8-2.3L11 14v5h2v-6.2l-2.2-2.3 2.4-2.4 0.8 0.8c1.3 1.3 3 2.1 5.1 2.1V9c-1.5 0-2.7-0.6-3.6-1.5l-1.9-1.9c-0.5-0.4-1-0.6-1.6-0.6s-1.1 0.2-1.4 0.6L7.8 8.4c-0.4 0.4-0.6 0.9-0.6 1.4 0 0.6 0.2 1.1 0.6 1.4zM19 12c-2.8 0-5 2.2-5 5s2.2 5 5 5 5-2.2 5-5-2.2-5-5-5z m0 8.5c-1.9 0-3.5-1.6-3.5-3.5s1.6-3.5 3.5-3.5 3.5 1.6 3.5 3.5-1.6 3.5-3.5 3.5z"/>
</svg>
