<svg xmlns="http://www.w3.org/2000/svg" width="24" height="24">
  <path fill="none" d="M0 0h24v24H0V0z"/>
  <path d="M5.12 14l-0.12 0.34V19h14v-4.66l-0.12-0.34H5.12z m2.38 4c-0.83 0-1.5-0.67-1.5-1.5S6.67 15 7.5 15s1.5 0.67 1.5 1.5S8.33 18 7.5 18z m9 0c-0.83 0-1.5-0.67-1.5-1.5s0.67-1.5 1.5-1.5 1.5 0.67 1.5 1.5-0.67 1.5-1.5 1.5z" opacity=".3"/>
  <path d="M15.5 3.5c0 0.83 0.67 1.5 1.5 1.5s1.5-0.67 1.5-1.5c0-1-1.5-2.7-1.5-2.7s-1.5 1.7-1.5 2.7z m-2 0c0-1-1.5-2.7-1.5-2.7s-1.5 1.7-1.5 2.7c0 0.83 0.67 1.5 1.5 1.5s1.5-0.67 1.5-1.5z m-5 0C8.5 2.5 7 0.8 7 0.8S5.5 2.5 5.5 3.5C5.5 4.33 6.17 5 7 5s1.5-0.67 1.5-1.5zM21 14l-2.08-5.99C18.72 7.42 18.16 7 17.5 7h-11c-0.66 0-1.21 0.42-1.42 1.01L3 14v8c0 0.55 0.45 1 1 1h1c0.55 0 1-0.45 1-1v-1h12v1c0 0.55 0.45 1 1 1h1c0.55 0 1-0.45 1-1v-8zM6.85 9h10.29l1.04 3H5.81l1.04-3zM19 19H5v-4.66l0.12-0.34h13.77l0.11 0.34V19z"/>
  <circle cx="7.5" cy="16.5" r="1.5"/>
  <circle cx="16.5" cy="16.5" r="1.5"/>
</svg>
