<svg xmlns="http://www.w3.org/2000/svg" width="24" height="24">
  <g fill="none">
    <path d="M0 0H24V24H0z"/>
    <path d="M0 0H24V24H0z"/>
  </g>
  <path d="M16 4h-1V3c0-0.55-0.45-1-1-1h0c-0.55 0-1 0.45-1 1v1h-2V3c0-0.55-0.45-1-1-1h0C9.45 2 9 2.45 9 3v1H8C5.79 4 4 5.79 4 8v10c0 2.21 1.79 4 4 4h8c2.21 0 4-1.79 4-4V8C20 5.79 18.21 4 16 4zM12 18c-1.38 0-2.5-1.1-2.5-2.46 0-1.02 0.38-1.35 2.12-3.35 0.2-0.23 0.56-0.23 0.75 0 1.73 1.99 2.12 2.34 2.12 3.35C14.5 16.9 13.38 18 12 18zM15 10H9c-0.55 0-1-0.45-1-1v0c0-0.55 0.45-1 1-1h6c0.55 0 1 0.45 1 1v0C16 9.55 15.55 10 15 10z"/>
</svg>
