<svg xmlns="http://www.w3.org/2000/svg" width="24" height="24">
  <g fill="none">
    <path d="M0 0H24V24H0z"/>
    <path d="M0 0H24V24H0z"/>
  </g>
  <path d="M23 12l-2.44-2.79 0.34-3.69-3.61-0.82L15.4 1.5 12 2.96 8.6 1.5 6.71 4.69 3.1 5.5 3.44 9.2 1 12l2.44 2.79-0.34 3.7 3.61 0.82L8.6 22.5l3.4-1.47 3.4 1.46 1.89-3.19 3.61-0.82-0.34-3.69L23 12zM9.38 16.01L7 13.61c-0.39-0.39-0.39-1.02 0-1.41l0.07-0.07c0.39-0.39 1.03-0.39 1.42 0l1.61 1.62 5.15-5.16c0.39-0.39 1.03-0.39 1.42 0l0.07 0.07c0.39 0.39 0.39 1.02 0 1.41l-5.92 5.94C10.41 16.4 9.78 16.4 9.38 16.01z"/>
</svg>
