<svg xmlns="http://www.w3.org/2000/svg" width="24" height="24">
  <path fill="none" d="M0 0H24V24H0z"/>
  <circle cx="19" cy="5" r="3"/>
  <path d="M10.76 9.24L15 5 10.76 0.76 9.34 2.17 11.17 4H7.82C7.4 2.84 6.3 2 5 2 3.34 2 2 3.34 2 5c0 1.3 0.84 2.4 2 2.82v8.37C2.84 16.6 2 17.7 2 19c0 1.66 1.34 3 3 3s3-1.34 3-3c0-1.3-0.84-2.4-2-2.82V7.82c0.85-0.31 1.51-0.97 1.82-1.82h3.36L9.34 7.83l1.42 1.41z"/>
  <path d="M10 19 10 22 13 22 19.26 15.74 16.26 12.74z"/>
  <path d="M20.12 10.29c-0.39-0.39-1.02-0.39-1.41 0l-1.38 1.38 3 3 1.38-1.38c0.39-0.39 0.39-1.02 0-1.41l-1.59-1.59z"/>
</svg>
