<svg xmlns="http://www.w3.org/2000/svg" width="24" height="24">
  <path fill="none" d="M0 0h24v24H0V0z"/>
  <path d="M12 1C5.9 1 1 5.9 1 12s4.9 11 11 11 11-4.9 11-11S18.1 1 12 1zM12 21c-4.99 0-9-4.01-9-9s4.01-9 9-9 9 4.01 9 9S16.99 21 12 21z"/>
  <path d="M19.73 11.42L12.54 4.2c-0.36-0.27-0.8-0.27-1.15 0L4.2 11.42c-0.27 0.36-0.27 0.8 0 1.16l7.19 7.22c0.36 0.27 0.8 0.27 1.15 0l7.19-7.22C20.09 12.22 20.09 11.69 19.73 11.42zM13.5 14.5l-1.41-1.41L13.17 12H10v3H8v-4c0-0.6 0.4-1 1-1h4.17l-1.09-1.09L13.5 7.5 17 11 13.5 14.5z"/>
</svg>
