<svg xmlns="http://www.w3.org/2000/svg" width="24" height="24">
  <path fill="none" d="M0 0h24v24H0V0z"/>
  <path d="M18.92 6.01C18.72 5.42 18.16 5 17.5 5h-11c-0.66 0-1.21 0.42-1.42 1.01l-1.97 5.67c-0.07 0.21-0.11 0.43-0.11 0.66v7.16c0 0.83 0.67 1.5 1.5 1.5S6 20.33 6 19.5V19h12v0.5c0 0.82 0.67 1.5 1.5 1.5 0.82 0 1.5-0.67 1.5-1.5v-7.16c0-0.22-0.04-0.45-0.11-0.66l-1.97-5.67zM6.5 16c-0.83 0-1.5-0.67-1.5-1.5S5.67 13 6.5 13s1.5 0.67 1.5 1.5S7.33 16 6.5 16z m11 0c-0.83 0-1.5-0.67-1.5-1.5s0.67-1.5 1.5-1.5 1.5 0.67 1.5 1.5-0.67 1.5-1.5 1.5zM5 11l1.27-3.82c0.14-0.4 0.52-0.68 0.95-0.68h9.56c0.43 0 0.81 0.28 0.95 0.68L19 11H5z"/>
</svg>
