<svg xmlns="http://www.w3.org/2000/svg" width="24" height="24">
  <path fill="none" d="M0 0h24v24H0V0z"/>
  <path d="M16 10.53c-0.29-0.29-0.77-0.29-1.06 0l-4.35 4.35L9 13.29c-0.29-0.29-0.77-0.29-1.06 0-0.29 0.29-0.29 0.77 0 1.06l1.94 1.94c0.39 0.39 1.02 0.39 1.41 0l4.7-4.7c0.3-0.29 0.3-0.77 0.01-1.06zM19 3h-1V2c0-0.55-0.45-1-1-1s-1 0.45-1 1v1H8V2c0-0.55-0.45-1-1-1s-1 0.45-1 1v1H5c-1.11 0-1.99 0.9-1.99 2L3 19c0 1.1 0.89 2 2 2h14c1.1 0 2-0.9 2-2V5c0-1.1-0.9-2-2-2z m-1 16H6c-0.55 0-1-0.45-1-1V8h14v10c0 0.55-0.45 1-1 1z"/>
</svg>
