<svg xmlns="http://www.w3.org/2000/svg" width="24" height="24">
  <path fill="none" d="M0 0H24V24H0z"/>
  <path d="M19.78 17.51c-2.47 0-6.57-1.33-8.68-5.43-2.33-4.51-0.5-8.48 0.53-10.07C6.27 2.2 1.98 6.59 1.98 12c0 0.14 0.02 0.28 0.02 0.42 0.61-0.26 1.28-0.42 1.98-0.42 0-3.09 1.73-5.77 4.3-7.1-0.5 2.19-0.54 5.04 1.04 8.1 1.57 3.04 4.18 4.95 6.8 5.86-1.23 0.74-2.65 1.15-4.13 1.15-0.5 0-1-0.05-1.48-0.14-0.37 0.7-0.94 1.27-1.64 1.64 0.98 0.32 2.03 0.5 3.11 0.5 3.5 0 6.58-1.8 8.37-4.52-0.17 0.01-0.37 0.02-0.57 0.02z"/>
  <path d="M7 16h-0.18C6.4 14.84 5.3 14 4 14c-1.66 0-3 1.34-3 3s1.34 3 3 3h3c1.1 0 2-0.9 2-2s-0.9-2-2-2z"/>
</svg>
