<svg xmlns="http://www.w3.org/2000/svg" width="24" height="24">
  <path fill="none" d="M0 0h24v24H0V0z"/>
  <path d="M20 14v-4h-4v2.89L17.11 14z m-10-1.45V14h1.45zM14 10h-0.89l0.89 0.89z m5.11 6l0.89 0.89V16zM8 4h-0.89l0.89 0.89z m6 4V4h-4v2.89L11.11 8z m2-4h4v4h-4z m-6 12v4h4v-3.45l-0.55-0.55z m-6-6v4h4v-3.45L7.45 10z m12 10h1.45L16 18.55zM4 16h4v4H4z m0-9.45V8h1.45z" opacity=".3"/>
  <path d="M8 4v0.89l2 2V4h4v4h-2.89l2 2H14v0.89l2 2V10h4v4h-2.89l2 2H20v0.89l2 2V4c0-1.1-0.9-2-2-2H5.11l2 2H8z m8 0h4v4h-4V4zM1.41 1.14L0 2.55l2 2V20c0 1.1 0.9 2 2 2h15.45l2.01 2.01 1.41-1.41L1.41 1.14zM10 12.55L11.45 14H10v-1.45z m-6-6L5.45 8H4V6.55zM8 20H4v-4h4v4z m0-6H4v-4h3.45l0.55 0.55V14z m6 6h-4v-4h3.45l0.55 0.55V20z m2 0v-1.45L17.45 20H16z"/>
</svg>
