<svg xmlns="http://www.w3.org/2000/svg" width="24" height="24">
  <path fill="none" d="M0 0h24v24H0z"/>
  <path d="M19 3H5c-1.1 0-2 0.9-2 2v14c0 1.1 0.9 2 2 2h14c1.1 0 2-0.9 2-2V5c0-1.1-0.9-2-2-2zM6.75 7h3.5c0.41 0 0.75 0.34 0.75 0.75s-0.34 0.75-0.75 0.75h-3.5c-0.41 0-0.75-0.34-0.75-0.75S6.34 7 6.75 7zM18 19H5L19 5v13c0 0.55-0.45 1-1 1z m-3.5-3v1.25c0 0.41 0.34 0.75 0.75 0.75s0.75-0.34 0.75-0.75V16h1.25c0.41 0 0.75-0.34 0.75-0.75s-0.34-0.75-0.75-0.75H16v-1.25c0-0.41-0.34-0.75-0.75-0.75s-0.75 0.34-0.75 0.75v1.25h-1.25c-0.41 0-0.75 0.34-0.75 0.75s0.34 0.75 0.75 0.75h1.25z"/>
</svg>
