<svg xmlns="http://www.w3.org/2000/svg" width="24" height="24">
  <path fill="none" d="M0 0h24v24H0V0z"/>
  <path d="M21 16H9c-0.55 0-1-0.45-1-1V4h0.79c0.45 0 0.67-0.54 0.35-0.85l-1.79-1.8c-0.2-0.2-0.51-0.2-0.71 0l-1.79 1.8c-0.31 0.31-0.09 0.85 0.36 0.85H6v2H3c-0.55 0-1 0.45-1 1s0.45 1 1 1h3v8c0 1.1 0.9 2 2 2h8v2h-0.79c-0.45 0-0.67 0.54-0.35 0.85l1.79 1.79c0.2 0.2 0.51 0.2 0.71 0l1.79-1.79c0.32-0.31 0.09-0.85-0.35-0.85H18v-2h3c0.55 0 1-0.45 1-1s-0.45-1-1-1z m-5-2h2V8c0-1.1-0.9-2-2-2h-6v2h5c0.55 0 1 0.45 1 1v5z"/>
</svg>
