<svg xmlns="http://www.w3.org/2000/svg" width="24" height="24">
  <path fill="none" d="M0 0h24v24H0V0z"/>
  <path d="M8 4v0.89l2 2V4h4v4h-2.89l2 2H14v0.89l2 2V10h4v4h-2.89l2 2H20v0.89l2 2V4c0-1.1-0.9-2-2-2H5.11l2 2H8z m8 0h3c0.55 0 1 0.45 1 1v3h-4V4z m6.16 17.88L2.12 1.84c-0.39-0.39-1.02-0.39-1.41 0-0.39 0.39-0.39 1.02 0 1.41L2 4.55V20c0 1.1 0.9 2 2 2h15.45l1.3 1.3c0.39 0.39 1.02 0.39 1.41 0 0.39-0.39 0.39-1.03 0-1.42zM10 12.55L11.45 14H10v-1.45z m-6-6L5.45 8H4V6.55zM8 20H5c-0.55 0-1-0.45-1-1v-3h4v4z m0-6H4v-4h3.45l0.55 0.55V14z m6 6h-4v-4h3.45l0.55 0.55V20z m2 0v-1.45L17.45 20H16z"/>
</svg>
