<svg xmlns="http://www.w3.org/2000/svg" width="24" height="24">
  <path fill="none" d="M0 0h24v24H0V0z"/>
  <path d="M20 4H4c-1.11 0-1.99 0.89-1.99 2L2 18c0 1.11 0.89 2 2 2h16c1.11 0 2-0.89 2-2V6c0-1.11-0.89-2-2-2z m0 13c0 0.55-0.45 1-1 1H5c-0.55 0-1-0.45-1-1V7c0-0.55 0.45-1 1-1h14c0.55 0 1 0.45 1 1v10z m-6-7c0.55 0 1-0.45 1-1s-0.45-1-1-1h-1v-0.01c0-0.55-0.45-1-1-1s-1 0.45-1 1V8h-1c-0.55 0-1 0.45-1 1v3c0 0.55 0.45 1 1 1h3v1h-3c-0.55 0-1 0.45-1 1s0.45 1 1 1h1c0 0.55 0.45 1 1 1s1-0.45 1-1h1c0.55 0 1-0.45 1-1v-3c0-0.55-0.45-1-1-1h-3v-1h3z"/>
</svg>
