<svg xmlns="http://www.w3.org/2000/svg" width="24" height="24">
  <path fill="none" d="M0 0h24v24H0z"/>
  <path d="M20.39 8.56l-1.24 1.86C20.354900009398 12.823143035558216 20.27225077544334 15.67078482363243 18.930000000000003 18H5.07C3.306496692429633 14.940690959162332 3.7573839889835163 11.087014045276371 6.179478429777942 8.517427649952122 8.601572870572367 5.947841254627875 12.421904697881743 5.270205777355384 15.580000000000002 6.850000000000001l1.86-1.24C13.372946882805621 2.974083221094965 8.001167733847373 3.6339981010870144 4.693055470288952 7.175942704703508 1.3849432067305312 10.717887308320002 1.0928778481897403 16.122163087770748 4 20h16C22.512371929096723 16.643393801849957 22.664088411241778 12.075929181482964 20.379999999999995 8.56z"/>
  <path d="M10.59 15.41C10.965136514284534 15.78555408606018 11.474181503801864 15.996573312831543 12.004999999999999 15.996573312831543 12.535818496198134 15.996573312831543 13.044863485715464 15.78555408606018 13.42 15.41l5.66-8.49-8.49 5.66C10.214445913939816 12.955136514284538 10.003426687168455 13.464181503801866 10.003426687168455 13.995000000000001 10.003426687168455 14.525818496198138 10.214445913939818 15.034863485715466 10.589999999999998 15.410000000000002z"/>
</svg>
