<svg xmlns="http://www.w3.org/2000/svg" width="24" height="24">
  <g fill="none">
    <path d="M0 0H24V24H0z"/>
    <path d="M0 0H24V24H0z"/>
  </g>
  <path d="M12 9c-3.15 0-6 2.41-6 6.15 0 2.35 1.78 5.11 5.34 8.27 0.37 0.33 0.95 0.33 1.33 0C16.22 20.25 18 17.5 18 15.15 18 11.41 15.15 9 12 9zM12 16.5c-0.83 0-1.5-0.67-1.5-1.5s0.67-1.5 1.5-1.5 1.5 0.67 1.5 1.5S12.83 16.5 12 16.5zM16.18 6.82c-0.35 0.35-0.89 0.38-1.3 0.09C14.07 6.34 13.07 6 12 6S9.93 6.34 9.12 6.91c-0.41 0.28-0.95 0.26-1.3-0.09-0.43-0.43-0.39-1.15 0.09-1.5C9.06 4.49 10.48 4 12 4s2.94 0.49 4.09 1.32C16.58 5.67 16.61 6.39 16.18 6.82zM4.97 3.97C4.55 3.54 4.59 2.85 5.05 2.47 6.95 0.93 9.37 0 12.01 0c2.64 0 5.06 0.93 6.95 2.48 0.46 0.38 0.5 1.07 0.08 1.49-0.36 0.36-0.93 0.39-1.32 0.07C16.16 2.77 14.17 2 12.01 2 9.83 2 7.84 2.77 6.29 4.04 5.9 4.36 5.33 4.32 4.97 3.97z"/>
</svg>
