<svg xmlns="http://www.w3.org/2000/svg" width="24" height="24">
  <path fill="none" d="M0 0H24V24H0z"/>
  <circle cx="12" cy="23" r="1"/>
  <circle cx="8" cy="23" r="1"/>
  <circle cx="16" cy="23" r="1"/>
  <path d="M13.41 10L17 6.42c0.39-0.39 0.39-1.02 0-1.42l-4.79-4.79C12.07 0.07 11.89 0 11.71 0 11.32 0 11 0.32 11 0.71v6.88L7.11 3.71c-0.39-0.39-1.02-0.39-1.41 0-0.39 0.39-0.39 1.02 0 1.41L10.59 10l-4.89 4.89c-0.39 0.39-0.39 1.02 0 1.41 0.39 0.39 1.02 0.39 1.41 0L11 12.41v6.88c0 0.39 0.32 0.71 0.71 0.71 0.19 0 0.37-0.07 0.5-0.21L17 15c0.39-0.39 0.39-1.02 0-1.42L13.41 10zM13 3.83l1.88 1.88L13 7.59V3.83zM13 16.17v-3.76l1.88 1.88L13 16.17z"/>
</svg>
