<svg xmlns="http://www.w3.org/2000/svg" width="24" height="24">
  <path fill="none" d="M0 0H24V24H0z"/>
  <circle cx="20" cy="12" r="2"/>
  <circle cx="4" cy="12" r="2"/>
  <circle cx="12" cy="20" r="2"/>
  <path d="M13.74 6.13H19.96V8.129999999999999H13.74z" transform="rotate(-44.919 16.852 7.129)"/>
  <path d="M8.32 9.68 8.63 10 10.05 8.59 6.03 4.55 6.02 4.55 5.71 4.23 4.29 5.64 8.31 9.69z"/>
  <path d="M15.41 13.94 14 15.35 17.99 19.36 18.34 19.71 19.76 18.3 15.77 14.29z"/>
  <path d="M8.59 13.95 4.56 17.96 4.24 18.29 5.65 19.7 9.68 15.68 10.01 15.36z"/>
  <circle cx="12" cy="4" r="2"/>
</svg>
