<svg xmlns="http://www.w3.org/2000/svg" width="24" height="24">
  <path fill="none" d="M0 0h24v24H0V0z"/>
  <path d="M9.12 14.47V9.53H8.09v2.88L6.03 9.53H5v4.94h1.03v-2.88l2.1 2.88z m4.12-3.9V9.53h-3.3v4.94h3.3v-1.03h-2.06v-0.91h2.06v-1.04h-2.06v-0.92z m0.82-1.04v4.12c0 0.45 0.37 0.82 0.82 0.82h3.29c0.45 0 0.82-0.37 0.82-0.82V9.53h-1.03v3.71h-0.92v-2.89h-1.03v2.9h-0.93V9.53h-1.02z"/>
  <path d="M4 6h16v12H4z" opacity=".3"/>
  <path d="M20 4H4c-1.11 0-1.99 0.89-1.99 2L2 18c0 1.11 0.89 2 2 2h16c1.11 0 2-0.89 2-2V6c0-1.11-0.89-2-2-2z m0 14H4V6h16v12z"/>
</svg>
