<svg xmlns="http://www.w3.org/2000/svg" width="24" height="24">
  <path fill="none" d="M0 0h24v24H0V0z"/>
  <path d="M7 17h14V3H7v14z m4-10c0-1.11 0.9-2 2-2h4v2h-4v2h2c1.1 0 2 0.89 2 2v2c0 1.11-0.9 2-2 2h-2c-1.1 0-2-0.89-2-2V7z m2 4h2v2h-2z" opacity=".3"/>
  <path d="M21 1H7c-1.1 0-2 0.9-2 2v14c0 1.1 0.9 2 2 2h14c1.1 0 2-0.9 2-2V3c0-1.1-0.9-2-2-2z m0 16H7V3h14v14z m-8-2h2c1.1 0 2-0.89 2-2v-2c0-1.11-0.9-2-2-2h-2V7h4V5h-4c-1.1 0-2 0.89-2 2v6c0 1.11 0.9 2 2 2z m0-4h2v2h-2v-2zM3 23h16v-2H3V5H1v16c0 1.1 0.9 2 2 2z"/>
</svg>
