<svg xmlns="http://www.w3.org/2000/svg" width="24" height="24">
  <path fill="none" d="M0 0H24V24H0z"/>
  <path d="M8.88 5 6.24 5 4.74 8 7.38 8z" opacity=".3"/>
  <path d="M19.26 8 17.76 5 15.12 5 16.62 8z" opacity=".3"/>
  <path d="M11 16.68 11 10 5.44 10z" opacity=".3"/>
  <path d="M13 16.68 18.56 10 13 10z" opacity=".3"/>
  <path d="M12.88 5 11.12 5 9.62 8 14.38 8z" opacity=".3"/>
  <path d="M19 3H5L2 9l10 12L22 9 19 3zM17.76 5l1.5 3h-2.65l-1.5-3H17.76zM6.24 5h2.65l-1.5 3H4.74L6.24 5zM11 16.68L5.44 10H11V16.68zM9.62 8l1.5-3h1.76l1.5 3H9.62zM13 16.68V10h5.56L13 16.68z"/>
</svg>
