<svg xmlns="http://www.w3.org/2000/svg" width="24" height="24">
  <path fill="none" d="M0 0H24V24H0z"/>
  <path d="M7.5 4C5.57 4 4 5.57 4 7.5S5.57 11 7.5 11 11 9.43 11 7.5 9.43 4 7.5 4zM7.5 9C6.67 9 6 8.33 6 7.5S6.67 6 7.5 6 9 6.67 9 7.5 8.33 9 7.5 9zM16.5 13c-1.93 0-3.5 1.57-3.5 3.5s1.57 3.5 3.5 3.5 3.5-1.57 3.5-3.5S18.43 13 16.5 13zM16.5 18c-0.83 0-1.5-0.67-1.5-1.5s0.67-1.5 1.5-1.5 1.5 0.67 1.5 1.5S17.33 18 16.5 18zM19.29 4.71c0.39 0.39 0.39 1.02 0 1.41L6.12 19.29c-0.39 0.39-1.02 0.39-1.41 0s-0.39-1.02 0-1.41L17.88 4.71C18.27 4.32 18.9 4.32 19.29 4.71z"/>
</svg>
