<svg xmlns="http://www.w3.org/2000/svg" width="24" height="24">
  <path fill="none" d="M0 0h24v24H0V0z"/>
  <path d="M15 16h3c0.55 0 1-0.45 1-1V9c0-0.55-0.45-1-1-1h-3c-0.55 0-1 0.45-1 1v6c0 0.55 0.45 1 1 1z m1-6h1v4h-1v-4z m-7 6h3c0.55 0 1-0.45 1-1V9c0-0.55-0.45-1-1-1H9c-0.55 0-1 0.45-1 1v6c0 0.55 0.45 1 1 1z m1-6h1v4h-1v-4zM6 8c-0.55 0-1 0.45-1 1v6c0 0.55 0.45 1 1 1s1-0.45 1-1V9c0-0.55-0.45-1-1-1zM2 6v12c0 1.1 0.9 2 2 2h16c1.1 0 2-0.9 2-2V6c0-1.1-0.9-2-2-2H4c-1.1 0-2 0.9-2 2z m17 12H5c-0.55 0-1-0.45-1-1V7c0-0.55 0.45-1 1-1h14c0.55 0 1 0.45 1 1v10c0 0.55-0.45 1-1 1z"/>
</svg>
