<svg xmlns="http://www.w3.org/2000/svg" width="24" height="24">
  <path fill="none" d="M0 0h24v24H0V0z"/>
  <path d="M22 6h-4.18c0.11-0.31 0.18-0.65 0.18-1 0-1.66-1.34-3-3-3-1.05 0-1.96 0.54-2.5 1.35l-0.5 0.67-0.5-0.68C10.96 2.54 10.05 2 9 2 7.34 2 6 3.34 6 5c0 0.35 0.07 0.69 0.18 1H2.01v15H22V6z m-7-2c0.55 0 1 0.45 1 1s-0.45 1-1 1-1-0.45-1-1 0.45-1 1-1zM9 4c0.55 0 1 0.45 1 1s-0.45 1-1 1-1-0.45-1-1 0.45-1 1-1z m11 15H4v-2h16v2z m0-5H4V8h5.08L7 10.83 8.62 12 12 7.4l3.38 4.6L17 10.83 14.92 8H20v6z"/>
</svg>
