<svg xmlns="http://www.w3.org/2000/svg" width="24" height="24">
  <path fill="none" d="M0 0h24v24H0z"/>
  <circle cx="6" cy="18" r="2" fill="none"/>
  <circle cx="12" cy="12" r=".5" fill="none"/>
  <circle cx="6" cy="6" r="2" fill="none"/>
  <path d="M9.64 7.64c0.23-0.5 0.36-1.05 0.36-1.64 0-2.21-1.79-4-4-4S2 3.79 2 6s1.79 4 4 4c0.59 0 1.14-0.13 1.64-0.36L10 12l-2.36 2.36C7.14 14.13 6.59 14 6 14c-2.21 0-4 1.79-4 4s1.79 4 4 4 4-1.79 4-4c0-0.59-0.13-1.14-0.36-1.64L12 14l7 7h3v-1L9.64 7.64zM6 8c-1.1 0-2-0.89-2-2s0.9-2 2-2 2 0.89 2 2-0.9 2-2 2z m0 12c-1.1 0-2-0.89-2-2s0.9-2 2-2 2 0.89 2 2-0.9 2-2 2z m6-7.5c-0.28 0-0.5-0.22-0.5-0.5s0.22-0.5 0.5-0.5 0.5 0.22 0.5 0.5-0.22 0.5-0.5 0.5zM19 3l-6 6 2 2 7-7V3z"/>
</svg>
