<svg xmlns="http://www.w3.org/2000/svg" width="24" height="24">
  <path fill="none" d="M0 0h24v24H0V0z m0 0h24v24H0V0z"/>
  <path d="M17 9H5.95c2.83 1.17 5.15 3.3 6.56 6H17V9z" opacity=".3"/>
  <path d="M1 18v3h3c0-1.66-1.34-3-3-3z m0-4v2c2.76 0 5 2.24 5 5h2c0-3.87-3.13-7-7-7z m0-4v2c4.97 0 9 4.03 9 9h2c0-6.08-4.93-11-11-11z m20-7H3c-1.1 0-2 0.9-2 2v3h2V5h18v14h-7v2h7c1.1 0 2-0.9 2-2V5c0-1.1-0.9-2-2-2zM5 7v1.63c0.32 0.1 0.63 0.24 0.95 0.37H17v6h-4.49c0.15 0.29 0.29 0.58 0.42 0.88 0.16 0.36 0.31 0.74 0.44 1.12H19V7H5z"/>
</svg>
