<svg xmlns="http://www.w3.org/2000/svg" width="24" height="24">
  <path fill="none" d="M0 0H24V24H0z"/>
  <path d="M11.1 12.08c-2.33-4.51-0.5-8.48 0.53-10.07C6.27 2.2 1.98 6.59 1.98 12c0 0.14 0.02 0.28 0.02 0.42 0.62-0.27 1.29-0.42 2-0.42 1.66 0 3.18 0.83 4.1 2.15 1.67 0.48 2.9 2.02 2.9 3.85 0 1.52-0.87 2.83-2.12 3.51 0.98 0.32 2.03 0.5 3.11 0.5 3.5 0 6.58-1.8 8.37-4.52-2.36 0.23-6.98-0.97-9.26-5.41z"/>
  <path d="M7 16h-0.18C6.4 14.84 5.3 14 4 14c-1.66 0-3 1.34-3 3s1.34 3 3 3h3c1.1 0 2-0.9 2-2s-0.9-2-2-2z"/>
</svg>
