<svg xmlns="http://www.w3.org/2000/svg" width="24" height="24">
  <g fill="none">
    <path d="M0 0H24V24H0z"/>
    <path d="M0 0H24V24H0z"/>
  </g>
  <path d="M13 12.5H14.5V14H13z"/>
  <path d="M13 10H14.5V11.5H13z"/>
  <path d="M19 3H5C3.9 3 3 3.9 3 5v14c0 1.1 0.9 2 2 2h14c1.1 0 2-0.9 2-2V5C21 3.9 20.1 3 19 3zM9.25 15L9.25 15c-0.41 0-0.75-0.34-0.75-0.75V10.5H7.75C7.34 10.5 7 10.16 7 9.75v0C7 9.34 7.34 9 7.75 9H9c0.55 0 1 0.45 1 1v4.25C10 14.66 9.66 15 9.25 15zM16 14c0 0.55-0.45 1-1 1h-2.5c-0.55 0-1-0.45-1-1v-4c0-0.55 0.45-1 1-1H15c0.55 0 1 0.45 1 1V14z"/>
</svg>
