<svg xmlns="http://www.w3.org/2000/svg" width="24" height="24">
  <g fill="none">
    <path d="M0 0H24V24H0z"/>
    <path d="M0 0H24V24H0z"/>
  </g>
  <path d="M11.1 12.08c-2-3.88-0.92-7.36 0.07-9.27 0.19-0.36-0.12-0.77-0.53-0.72-5.02 0.68-8.86 5.07-8.65 10.32 0.01 0 0.01 0 0.01 0.01 0.62-0.27 1.29-0.42 2-0.42 1.66 0 3.18 0.83 4.1 2.15 1.67 0.48 2.9 2.02 2.9 3.85 0 1.52-0.87 2.83-2.12 3.51 0.98 0.32 2.03 0.5 3.11 0.5 3.13 0 5.92-1.44 7.76-3.69 0.26-0.32 0.04-0.79-0.37-0.82-2.49-0.13-6.28-1.53-8.28-5.42z"/>
  <path d="M7 16h-0.18C6.4 14.84 5.3 14 4 14c-1.66 0-3 1.34-3 3s1.34 3 3 3h3c1.1 0 2-0.9 2-2s-0.9-2-2-2z"/>
</svg>
