<svg xmlns="http://www.w3.org/2000/svg" width="24" height="24">
  <path fill="none" d="M0 0h24v24H0V0z"/>
  <path d="M19 6H5v12h14V6z m-8 9H9.5v-2h-2v2H6V9h1.5v2.5h2V9H11v6z m7-1c0 0.55-0.45 1-1 1h-0.75v1.5h-1.5V15H14c-0.55 0-1-0.45-1-1v-4c0-0.55 0.45-1 1-1h3c0.55 0 1 0.45 1 1v4z m-3.5-3.5h2v3h-2z" opacity=".3"/>
  <path d="M3 6v12c0 1.1 0.89 2 2 2h14c1.1 0 2-0.9 2-2V6c0-1.1-0.9-2-2-2H5c-1.11 0-2 0.9-2 2z m2 0h14v12H5V6z m4.5 5.5h-2V9H6v6h1.5v-2h2v2H11V9H9.5zM17 9h-3c-0.55 0-1 0.45-1 1v4c0 0.55 0.45 1 1 1h0.75v1.5h1.5V15H17c0.55 0 1-0.45 1-1v-4c0-0.55-0.45-1-1-1z m-0.5 4.5h-2v-3h2v3z"/>
</svg>
