<svg xmlns="http://www.w3.org/2000/svg" width="24" height="24">
  <path fill="none" d="M0 0h24v24H0V0z"/>
  <path d="M16.5 12h-9c-0.55 0-1 0.45-1 1v1h11v-1C17.5 12.45 17.05 12 16.5 12z"/>
  <path d="M7.25 8.5H11.25V10.5H7.25z"/>
  <path d="M12.75 8.5H16.75V10.5H12.75z"/>
  <path d="M20 2H4C2.9 2 2 2.9 2 4v16c0 1.1 0.9 2 2 2h16c1.1 0 2-0.9 2-2V4C22 2.9 21.1 2 20 2zM19 17h-1.5v-1.5h-11V17H5v-3.83c0-0.66 0.25-1.26 0.65-1.72V9c0-1.1 0.9-2 2-2H11c0.37 0 0.72 0.12 1 0.32C12.28 7.12 12.63 7 13 7h3.35c1.1 0 2 0.9 2 2v2.45c0.4 0.46 0.65 1.06 0.65 1.72V17z"/>
</svg>
