<svg xmlns="http://www.w3.org/2000/svg" width="24" height="24">
  <path fill="none" d="M0 0h24v24H0V0z"/>
  <path d="M11.99 2C6.47 2 2 6.48 2 12s4.47 10 9.99 10C17.52 22 22 17.52 22 12S17.52 2 11.99 2zM12 20c-4.42 0-8-3.58-8-8s3.58-8 8-8 8 3.58 8 8-3.58 8-8 8z m3.5-9c0.83 0 1.5-0.67 1.5-1.5S16.33 8 15.5 8 14 8.67 14 9.5s0.67 1.5 1.5 1.5z m-7 0c0.83 0 1.5-0.67 1.5-1.5S9.33 8 8.5 8 7 8.67 7 9.5 7.67 11 8.5 11z m3.5 6.5c2.03 0 3.8-1.11 4.75-2.75 0.19-0.33-0.05-0.75-0.44-0.75H7.69c-0.38 0-0.63 0.42-0.44 0.75 0.95 1.64 2.72 2.75 4.75 2.75z"/>
</svg>
