<svg xmlns="http://www.w3.org/2000/svg" width="24" height="24">
  <path fill="none" d="M0 0H24V24H0z"/>
  <path d="M12 2C6.48 2 2 6.48 2 12c0 5.52 4.48 10 10 10s10-4.48 10-10C22 6.48 17.52 2 12 2zM12.91 18.15c-0.31 0.31-0.85 0.09-0.85-0.35v-0.8c-0.02 0-0.04 0-0.06 0-1.28 0-2.56-0.49-3.54-1.46-1.43-1.43-1.81-3.52-1.14-5.3 0.19-0.51 0.86-0.64 1.24-0.25l0 0c0.22 0.22 0.27 0.54 0.17 0.82-0.46 1.24-0.2 2.68 0.8 3.68 0.7 0.7 1.62 1.03 2.54 1.01v-0.94c0-0.45 0.54-0.67 0.85-0.35l1.62 1.62c0.2 0.2 0.2 0.51 0 0.71L12.91 18.15zM15.44 14.02L15.44 14.02c-0.22-0.22-0.27-0.54-0.17-0.82 0.46-1.24 0.2-2.68-0.8-3.68-0.7-0.7-1.62-1.04-2.53-1.02 0 0 0 0 0 0v0.94c0 0.45-0.54 0.67-0.85 0.35L9.46 8.18c-0.2-0.2-0.2-0.51 0-0.71l1.62-1.62c0.31-0.31 0.85-0.09 0.85 0.35v0.81c1.3-0.02 2.61 0.45 3.6 1.45 1.43 1.43 1.81 3.52 1.14 5.3C16.48 14.28 15.82 14.41 15.44 14.02z"/>
</svg>
