<svg xmlns="http://www.w3.org/2000/svg" width="24" height="24">
  <path fill="none" d="M0 0h24v24H0V0z"/>
  <path d="M2 5c-0.55 0-1 0.45-1 1v15c0 1.1 0.9 2 2 2h15c0.55 0 1-0.45 1-1s-0.45-1-1-1H4c-0.55 0-1-0.45-1-1V6c0-0.55-0.45-1-1-1z m13 10c0.55 0 1-0.45 1-1V6c0-0.55-0.45-1-1-1h-2c-0.55 0-1 0.45-1 1s0.45 1 1 1h1v7c0 0.55 0.45 1 1 1z m6-14H7c-1.1 0-2 0.9-2 2v14c0 1.1 0.9 2 2 2h14c1.1 0 2-0.9 2-2V3c0-1.1-0.9-2-2-2z m-1 16H8c-0.55 0-1-0.45-1-1V4c0-0.55 0.45-1 1-1h12c0.55 0 1 0.45 1 1v12c0 0.55-0.45 1-1 1z"/>
</svg>
