<svg xmlns="http://www.w3.org/2000/svg" width="24" height="24">
  <path fill="none" d="M0 0h24v24H0V0z"/>
  <path d="M19 13h-2V7h-6V5c0-0.28-0.22-0.5-0.5-0.5s-0.5 0.22-0.5 0.5v2H4l0.01 2.12C5.76 9.8 7 11.51 7 13.5c0 1.99-1.25 3.7-3 4.38V20h2.12c0.68-1.75 2.39-3 4.38-3 1.99 0 3.7 1.25 4.38 3H17v-6h2c0.28 0 0.5-0.22 0.5-0.5s-0.22-0.5-0.5-0.5z" opacity=".3"/>
  <path d="M19 11V7c0-1.1-0.9-2-2-2h-4c0-1.38-1.12-2.5-2.5-2.5S8 3.62 8 5H4c-1.1 0-1.99 0.9-1.99 2v3.8h0.29c1.49 0 2.7 1.21 2.7 2.7s-1.21 2.7-2.7 2.7H2V20c0 1.1 0.9 2 2 2h3.8v-0.3c0-1.49 1.21-2.7 2.7-2.7s2.7 1.21 2.7 2.7v0.3H17c1.1 0 2-0.9 2-2v-4c1.38 0 2.5-1.12 2.5-2.5S20.38 11 19 11z m0 3h-2v6h-2.12c-0.68-1.75-2.39-3-4.38-3-1.99 0-3.7 1.25-4.38 3H4v-2.12c1.75-0.68 3-2.39 3-4.38 0-1.99-1.24-3.7-2.99-4.38L4 7h6V5c0-0.28 0.22-0.5 0.5-0.5s0.5 0.22 0.5 0.5v2h6v6h2c0.28 0 0.5 0.22 0.5 0.5s-0.22 0.5-0.5 0.5z"/>
</svg>
