<svg xmlns="http://www.w3.org/2000/svg" width="24" height="24">
  <path fill="none" d="M0 0h24v24H0V0z"/>
  <path d="M21 3H3c-1.1 0-2 0.9-2 2v14c0 1.1 0.9 2 2 2h18c1.1 0 2-0.9 2-2V5c0-1.1-0.9-2-2-2z m0 15c0 0.55-0.45 1-1 1H4c-0.55 0-1-0.45-1-1V6c0-0.55 0.45-1 1-1h16c0.55 0 1 0.45 1 1v12z m-5.71-9.3c-0.39-0.39-1.02-0.39-1.41 0L12 10.59 10.11 8.7c-0.39-0.39-1.02-0.39-1.41 0-0.39 0.39-0.39 1.02 0 1.41L10.59 12 8.7 13.89c-0.39 0.39-0.39 1.02 0 1.41 0.39 0.39 1.02 0.39 1.41 0L12 13.41l1.89 1.89c0.39 0.39 1.02 0.39 1.41 0 0.39-0.39 0.39-1.02 0-1.41L13.41 12l1.89-1.89c0.38-0.38 0.38-1.02-0.01-1.41z"/>
</svg>
