<svg xmlns="http://www.w3.org/2000/svg" width="24" height="24">
  <path fill="none" d="M0 0h24v24H0z"/>
  <path d="M21.79 18l2 2H24v-2h-2.21zM1.11 2.98l1.55 1.56c-0.41 0.37-0.66 0.89-0.66 1.48V16c0 1.1 0.9 2 2.01 2H0v2h18.13l2.71 2.71 1.41-1.41L2.52 1.57 1.11 2.98zM4 6.02h0.13l4.95 4.93C7.94 12.07 7.31 13.52 7 15c0.96-1.29 2.13-2.08 3.67-2.46l3.46 3.48H4v-10z m16 0v10.19l1.3 1.3c0.42-0.37 0.7-0.89 0.7-1.49v-10c0-1.11-0.9-2-2-2H7.8l2 2H20z m-7.07 3.13l2.79 2.78 1.28-1.2L13 7v2.13l-0.07 0.02z"/>
</svg>
