<svg xmlns="http://www.w3.org/2000/svg" width="24" height="24">
  <path fill="none" d="M0 0H24V24H0z"/>
  <path d="M19.88 18.47c0.44-0.7 0.7-1.51 0.7-2.39 0-2.49-2.01-4.5-4.5-4.5s-4.5 2.01-4.5 4.5 2.01 4.5 4.49 4.5c0.88 0 1.7-0.26 2.39-0.7L21.58 23 23 21.58 19.88 18.47zM16.08 18.58c-1.38 0-2.5-1.12-2.5-2.5 0-1.38 1.12-2.5 2.5-2.5s2.5 1.12 2.5 2.5C18.58 17.46 17.46 18.58 16.08 18.58zM15.72 10.08c-0.74 0.02-1.45 0.18-2.1 0.45l-0.55-0.83-3.8 6.18-3.01-3.52-3.63 5.81L1 17l5-8 3 3.5L13 6C13 6 15.72 10.08 15.72 10.08zM18.31 10.58c-0.64-0.28-1.33-0.45-2.05-0.49 0 0 5.12-8.09 5.12-8.09L23 3.18 18.31 10.58z"/>
</svg>
