<svg xmlns="http://www.w3.org/2000/svg" width="24" height="24">
  <path fill="none" d="M0 0H24V24H0z"/>
  <path d="M16.48 10.41c-0.39 0.39-1.04 0.39-1.43 0l-4.47-4.46-7.05 7.04-0.66-0.63c-1.17-1.17-1.17-3.07 0-4.24l4.24-4.24c1.17-1.17 3.07-1.17 4.24 0L16.48 9C16.87 9.39 16.87 10.02 16.48 10.41zM17.18 8.29c0.78 0.78 0.78 2.05 0 2.83-1.27 1.27-2.61 0.22-2.83 0l-3.76-3.76-5.57 5.57c-0.39 0.39-0.39 1.02 0 1.41 0.39 0.39 1.02 0.39 1.42 0l4.62-4.62 0.71 0.71-4.62 4.62c-0.39 0.39-0.39 1.02 0 1.41 0.39 0.39 1.02 0.39 1.42 0l4.62-4.62 0.71 0.71-4.62 4.62c-0.39 0.39-0.39 1.02 0 1.41 0.39 0.39 1.02 0.39 1.41 0l4.62-4.62 0.71 0.71-4.62 4.62c-0.39 0.39-0.39 1.02 0 1.41 0.39 0.39 1.02 0.39 1.41 0l8.32-8.34c1.17-1.17 1.17-3.07 0-4.24l-4.24-4.24c-1.15-1.15-3.01-1.17-4.18-0.06L17.18 8.29z"/>
</svg>
