<svg xmlns="http://www.w3.org/2000/svg" width="24" height="24">
  <path fill="none" d="M0 0h24v24H0V0z"/>
  <path d="M2.53 19.65l1.34 0.56v-9.03l-2.43 5.86c-0.41 1.02 0.08 2.19 1.09 2.61z m19.5-3.7L17.07 3.98c-0.31-0.75-1.04-1.21-1.81-1.23-0.26 0-0.53 0.04-0.79 0.15L7.1 5.95c-0.75 0.31-1.21 1.03-1.23 1.8-0.01 0.27 0.04 0.54 0.15 0.8l4.96 11.97c0.31 0.76 1.05 1.22 1.83 1.23 0.26 0 0.52-0.05 0.77-0.15l7.36-3.05c1.02-0.42 1.51-1.59 1.09-2.6zM7.88 8.75c-0.55 0-1-0.45-1-1s0.45-1 1-1 1 0.45 1 1-0.45 1-1 1z m-2 11c0 1.1 0.9 2 2 2h1.45l-3.45-8.34v6.34z"/>
</svg>
