<svg xmlns="http://www.w3.org/2000/svg" width="24" height="24">
  <path fill="none" d="M0 0H24V24H0z"/>
  <path d="M5.92 7 4.79 9 5.92 11 8.06 11 9.19 9 8.06 7z" opacity=".3"/>
  <path d="M10.94 16 9.8 18.02 10.92 20 13.08 20 14.2 18.02 13.06 16z" opacity=".3"/>
  <path d="M13.06 14 14.19 12 13.06 10 10.94 10 9.81 12 10.94 14z" opacity=".3"/>
  <path d="M5.92 13 4.79 15 5.92 17 8.06 17 9.19 15 8.06 13z" opacity=".3"/>
  <path d="M15.94 7 14.81 9 15.94 11 18.08 11 19.21 9 18.08 7z" opacity=".3"/>
  <path d="M10.92 4 9.8 5.98 10.94 8 13.06 8 14.2 5.98 13.08 4z" opacity=".3"/>
  <path d="M15.94 13 14.81 15 15.94 17 18.08 17 19.21 15 18.08 13z" opacity=".3"/>
  <path d="M21.5 9l-2.25-4h-3.31l-1.69-3h-4.5L8.06 5H4.75L2.5 9l1.69 3L2.5 15l2.25 4h3.31l1.69 3h4.5l1.69-3h3.31l2.25-4-1.69-3L21.5 9zM8.06 17H5.92l-1.12-2 1.12-2h2.14l1.12 2L8.06 17zM8.06 11H5.92L4.79 9l1.12-2h2.14l1.12 2L8.06 11zM13.08 20h-2.16L9.8 18.02 10.94 16h2.12l1.13 2.02L13.08 20zM9.81 12l1.12-2h2.12l1.12 2-1.12 2h-2.12L9.81 12zM13.06 8h-2.12L9.8 5.98 10.92 4h2.16l1.12 1.98L13.06 8zM18.08 17h-2.14l-1.12-2 1.12-2h2.14l1.12 2L18.08 17zM18.08 11h-2.14l-1.12-2 1.12-2h2.14l1.12 2L18.08 11z"/>
</svg>
