<svg xmlns="http://www.w3.org/2000/svg" width="24" height="24">
  <path fill="none" d="M0 0h24v24H0V0z"/>
  <path d="M23 8C22.995529255992217 4.7301905294037 20.72796287823558 1.8990797365280532 17.538055811063504 1.1806321988768138 14.34814874389143 0.46218466122557444 11.085818969853127 2.0478233478413213 9.679999999999884 5.000000000000241H7v2H4.5C3.859594028836201 6.999022322790996 3.289198781414191 7.40472598468975 3.08 8.009999999999998L1 14v8C1 22.552284749830793 1.4477152501692068 23 2 23h1C3.5522847498307932 23 4 22.552284749830793 4 22v-1h12v1C16 22.552284749830793 16.447715250169207 23 17 23h1C18.552284749830793 23 19 22.552284749830793 19 22v-7.68C21.439712084194184 13.160048788927835 22.995806925923844 10.701418938994971 23 8z m-18.5 0.5h4.53C9.144738852014562 10.20516139140407 9.88550960827682 11.80779043139454 11.109999999999989 12.999999999999986H3l1.5-4.5z m0 9.5C3.67157287525381 18 3 17.32842712474619 3 16.5 3 15.67157287525381 3.6715728752538097 15 4.5 15 5.32842712474619 15 6 15.67157287525381 6 16.5 6 17.32842712474619 5.32842712474619 18 4.5 18z m11 0C14.67157287525381 18 14 17.32842712474619 14 16.5 14 15.67157287525381 14.67157287525381 15 15.5 15 16.32842712474619 15 17 15.67157287525381 17 16.5 17 17.32842712474619 16.32842712474619 18 15.5 18z m2.93-5.63l-0.21 0.11-0.18 0.09C17.902484367386208 12.629639483344434 17.762341108711137 12.683027391411125 17.619999999999987 12.730000000000004l-0.22 0.07-0.23 0.06-0.2 0.05C15.588075989314031 13.181724879781585 14.155638406913775 12.858030305468045 13.02483170151196 12.018491993881849 11.894024996110147 11.178953682295656 11.1697284177096 9.901436531166176 11.029999999999998 8.500000000000004 11.009743836070108 8.33410734754733 10.999724867033258 8.16712453026647 11 8.000000000000002l0.02-0.47 0.02-0.17 0.04-0.28 0.04-0.21 0.05-0.21 0.07-0.24 0.05-0.13C12.107005523883744 3.999087330814533 14.456676932666422 2.63095091254558 16.852326268472872 3.051240269704606 19.247975604279326 3.4715296268636333 20.991612435999258 5.557790297852342 20.979999999999997 7.99 20.996389239285882 9.806851181338004 20.01807284578635 11.487253457231352 18.43000000000003 12.36999999999998zM15 4h2v5h-2z m0 6h2v2h-2z"/>
</svg>
