<svg xmlns="http://www.w3.org/2000/svg" width="24" height="24">
  <g fill="none">
    <path d="M0 0H24V24H0z"/>
    <path d="M0 0H24V24H0z"/>
  </g>
  <path d="M12 21c0.55 0 1-0.45 1-1V6.83l0.88 0.88c0.39 0.39 1.02 0.39 1.41 0 0.39-0.39 0.39-1.02 0-1.41l-2.59-2.59c-0.39-0.39-1.02-0.39-1.41 0L8.71 6.29c-0.39 0.39-0.39 1.02 0 1.41 0.39 0.39 1.02 0.39 1.41 0L11 6.83v0V9c0 3.62-2.89 6.22-4.97 7.62-0.52 0.35-0.59 1.09-0.14 1.53 0.33 0.33 0.87 0.4 1.26 0.13 1.59-1.06 2.89-2.28 3.85-3.59l0 5.3C11 20.55 11.45 21 12 21z"/>
</svg>
