<svg xmlns="http://www.w3.org/2000/svg" width="24" height="24">
  <path fill="none" d="M0 0h24v24H0V0z"/>
  <path d="M19.29 17.89L6.11 4.7c-0.39-0.39-1.02-0.39-1.41 0-0.39 0.39-0.39 1.02 0 1.41L10.59 12 5.7 16.89c-0.39 0.39-0.39 1.02 0 1.41 0.39 0.39 1.02 0.39 1.41 0L11 14.41v6.18c0 0.89 1.08 1.34 1.71 0.71l3.59-3.59 1.59 1.59c0.39 0.39 1.02 0.39 1.41 0 0.38-0.39 0.38-1.03-0.01-1.41z m-6.29 0.28v-3.76l1.88 1.88L13 18.17z m0-12.34l1.88 1.88-1.47 1.47 1.41 1.41L17 8.42c0.39-0.39 0.39-1.02 0-1.42l-4.29-4.29c-0.63-0.63-1.71-0.19-1.71 0.7v3.36l2 2V5.83z"/>
</svg>
