<svg xmlns="http://www.w3.org/2000/svg" width="24" height="24">
  <path fill="none" d="M0 0h24v24H0V0z"/>
  <path d="M16 7 9.83 7 14 11.17 14 10.4 16 7.39z" opacity=".3"/>
  <path d="M10 12.83 10 20 14 20 14 16.83z" opacity=".3"/>
  <path d="M16 5 16 4 6.83 4 7.83 5z" opacity=".3"/>
  <path d="M2.81 2.81L1.39 4.22 8 10.83V22h8v-3.17l3.78 3.78 1.41-1.41L2.81 2.81zM14 20h-4v-7.17l4 4V20z"/>
  <path d="M16 4 16 5 7.83 5 9.83 7 16 7 16 7.39 14 10.4 14 11.17 16 13.17 16 11 18 8 18 2 6 2 6 3.17 6.83 4z"/>
</svg>
