<svg xmlns="http://www.w3.org/2000/svg" width="24" height="24">
  <path fill="none" d="M0 0H24V24H0z"/>
  <path d="M4 18h16V6H4V18zM12.75 7.25h4v4h-4V7.25zM12.75 12.75h4v4h-4V12.75zM7.25 7.25h4v4h-4V7.25zM7.25 12.75h4v4h-4V12.75z" opacity=".3"/>
  <path d="M7.25 7.25H11.25V11.25H7.25z"/>
  <path d="M12.75 7.25H16.75V11.25H12.75z"/>
  <path d="M7.25 12.75H11.25V16.75H7.25z"/>
  <path d="M12.75 12.75H16.75V16.75H12.75z"/>
  <path d="M20 4H4C2.9 4 2 4.9 2 6v12c0 1.1 0.9 2 2 2h16c1.1 0 2-0.9 2-2V6C22 4.9 21.1 4 20 4zM20 18H4V6h16V18z"/>
</svg>
