<svg xmlns="http://www.w3.org/2000/svg" width="24" height="24">
  <path fill="none" d="M0 0H24V24H0z"/>
  <path d="M7.01 9.49L11 6.7V5.3L9.65 4.35C7.83 4.92 6.28 6.12 5.27 7.69l0.39 1.34L7.01 9.49z" opacity=".3"/>
  <path d="M5.01 10.92l-1 0.73C4.01 11.77 4 11.88 4 12c0 1.99 0.73 3.81 1.94 5.21l1.14-0.1 0.79-1.37L6.4 11.4 5.01 10.92z" opacity=".3"/>
  <path d="M18.34 9.03l0.39-1.34c-1.01-1.57-2.55-2.77-4.38-3.34L13 5.3v1.4l3.99 2.79L18.34 9.03z" opacity=".3"/>
  <path d="M8.37 10.98 9.73 15 14.27 15 15.63 10.98 12 8.44z" opacity=".3"/>
  <path d="M9.45 17l-0.64 1.11 0.69 1.49C10.29 19.85 11.13 20 12 20s1.71-0.15 2.5-0.41l0.69-1.49L14.55 17H9.45z" opacity=".3"/>
  <path d="M19.98 11.65l-1-0.73L17.6 11.4l-1.46 4.34 0.79 1.37 1.14 0.1C19.27 15.81 20 13.99 20 12 20 11.88 19.99 11.77 19.98 11.65z" opacity=".3"/>
  <path d="M12 2C6.48 2 2 6.48 2 12c0 5.52 4.48 10 10 10s10-4.48 10-10C22 6.48 17.52 2 12 2zM13 5.3l1.35-0.95c1.82 0.56 3.37 1.76 4.38 3.34l-0.39 1.34-1.35 0.46L13 6.7V5.3zM9.65 4.35L11 5.3v1.4L7.01 9.49 5.66 9.03 5.27 7.69C6.28 6.12 7.83 4.92 9.65 4.35zM7.08 17.11l-1.14 0.1C4.73 15.81 4 13.99 4 12c0-0.12 0.01-0.23 0.02-0.35l1-0.73L6.4 11.4l1.46 4.34L7.08 17.11zM14.5 19.59C13.71 19.85 12.87 20 12 20s-1.71-0.15-2.5-0.41l-0.69-1.49L9.45 17h5.11l0.64 1.11L14.5 19.59zM14.27 15H9.73l-1.35-4.02L12 8.44l3.63 2.54L14.27 15zM18.06 17.21l-1.14-0.1-0.79-1.37 1.46-4.34 1.39-0.47 1 0.73C19.99 11.77 20 11.88 20 12 20 13.99 19.27 15.81 18.06 17.21z"/>
</svg>
