<svg xmlns="http://www.w3.org/2000/svg" width="24" height="24">
  <path fill="none" d="M0 0H24V24H0z"/>
  <path d="M7 17h1.09c0.28-1.67 1.24-3.1 2.6-4H7V17z"/>
  <path d="M5 19V5h14v7h1c0.34 0 0.67 0.04 1 0.09V5c0-1.1-0.9-2-2-2H5C3.9 3 3 3.9 3 5v14c0 1.1 0.9 2 2 2h3.81c-0.35-0.61-0.6-1.28-0.72-2H5z"/>
  <path d="M7 7H11V11H7z"/>
  <path d="M13 7H17V11H13z"/>
  <path d="M16 20h-2c-1.1 0-2-0.9-2-2s0.9-2 2-2h2v-2h-2c-2.21 0-4 1.79-4 4 0 2.21 1.79 4 4 4h2V20z"/>
  <path d="M20 14h-2v2h2c1.1 0 2 0.9 2 2s-0.9 2-2 2h-2v2h2c2.21 0 4-1.79 4-4C24 15.79 22.21 14 20 14z"/>
  <path d="M20 19 20 17 17 17 14 17 14 19 19 19z"/>
</svg>
