<svg xmlns="http://www.w3.org/2000/svg" width="24" height="24">
  <path d="M19 4H5c-1.11 0-2 0.9-2 2v12c0 1.1 0.89 2 2 2h14c1.1 0 2-0.9 2-2V6c0-1.1-0.9-2-2-2z m-8 6.5c0 0.28-0.22 0.5-0.5 0.5H10c-0.28 0-0.5-0.22-0.5-0.5h-2v3h2c0-0.28 0.22-0.5 0.5-0.5h0.5c0.28 0 0.5 0.22 0.5 0.5v0.5c0 0.55-0.45 1-1 1H7c-0.55 0-1-0.45-1-1v-4c0-0.55 0.45-1 1-1h3c0.55 0 1 0.45 1 1v0.5z m7 0c0 0.28-0.22 0.5-0.5 0.5H17c-0.28 0-0.5-0.22-0.5-0.5h-2v3h2c0-0.28 0.22-0.5 0.5-0.5h0.5c0.28 0 0.5 0.22 0.5 0.5v0.5c0 0.55-0.45 1-1 1h-3c-0.55 0-1-0.45-1-1v-4c0-0.55 0.45-1 1-1h3c0.55 0 1 0.45 1 1v0.5z"/>
</svg>
