<svg xmlns="http://www.w3.org/2000/svg" width="24" height="24">
  <path fill="none" d="M0 0h24v24H0V0z"/>
  <path d="M19 3h-4.18C14.4 1.84 13.3 1 12 1s-2.4 0.84-2.82 2H5c-1.1 0-2 0.9-2 2v14c0 1.1 0.9 2 2 2h14c1.1 0 2-0.9 2-2V5c0-1.1-0.9-2-2-2z m-7 0c0.55 0 1 0.45 1 1s-0.45 1-1 1-1-0.45-1-1 0.45-1 1-1z m1 14H8c-0.55 0-1-0.45-1-1s0.45-1 1-1h5c0.55 0 1 0.45 1 1s-0.45 1-1 1z m3-4H8c-0.55 0-1-0.45-1-1s0.45-1 1-1h8c0.55 0 1 0.45 1 1s-0.45 1-1 1z m0-4H8c-0.55 0-1-0.45-1-1s0.45-1 1-1h8c0.55 0 1 0.45 1 1s-0.45 1-1 1z"/>
</svg>
