<svg xmlns="http://www.w3.org/2000/svg" width="24" height="24">
  <g fill="none">
    <path d="M0 0h24v24H0V0z"/>
    <path d="M0 0h24v24H0V0z" opacity=".87"/>
  </g>
  <path d="M21 3.01H3c-1.1 0-2 0.9-2 2V8c0 0.55 0.45 1 1 1s1-0.45 1-1V5.99c0-0.55 0.45-1 1-1h16c0.55 0 1 0.45 1 1v12.03c0 0.55-0.45 1-1 1H4c-0.55 0-1-0.45-1-1V16c0-0.55-0.45-1-1-1s-1 0.45-1 1v3.01c0 1.09 0.89 1.98 1.98 1.98H21c1.1 0 2-0.9 2-2V5.01c0-1.1-0.9-2-2-2z m-9.15 12.14l2.79-2.79c0.2-0.2 0.2-0.51 0-0.71l-2.79-2.79c-0.31-0.32-0.85-0.1-0.85 0.35V11H2c-0.55 0-1 0.45-1 1s0.45 1 1 1h9v1.79c0 0.45 0.54 0.67 0.85 0.36z"/>
</svg>
