<svg xmlns="http://www.w3.org/2000/svg" width="24" height="24">
  <path fill="none" d="M0 0h24v24H0V0z"/>
  <path d="M21 4H3c-1.1 0-2 0.9-2 2v13c0 1.1 0.9 2 2 2h18c1.1 0 2-0.9 2-2V6c0-1.1-0.9-2-2-2z m0 14c0 0.55-0.45 1-1 1h-8V6h8c0.55 0 1 0.45 1 1v11z m-1.75-8.5h-5.5c-0.41 0-0.75 0.34-0.75 0.75s0.34 0.75 0.75 0.75h5.5c0.41 0 0.75-0.34 0.75-0.75s-0.34-0.75-0.75-0.75z m0 2.5h-5.5c-0.41 0-0.75 0.34-0.75 0.75s0.34 0.75 0.75 0.75h5.5c0.41 0 0.75-0.34 0.75-0.75s-0.34-0.75-0.75-0.75z m0 2.5h-5.5c-0.41 0-0.75 0.34-0.75 0.75s0.34 0.75 0.75 0.75h5.5c0.41 0 0.75-0.34 0.75-0.75s-0.34-0.75-0.75-0.75z"/>
</svg>
