<svg xmlns="http://www.w3.org/2000/svg" width="24" height="24">
  <path fill="none" d="M0 0h24v24H0V0z"/>
  <path d="M17.74 12.01l4.68-4.68-5.75-5.75-4.68 4.68L7.3 1.58 1.55 7.34l4.68 4.69-4.68 4.68 5.75 5.75 4.68-4.68 4.69 4.69 5.76-5.76-4.69-4.7zM12 9c0.55 0 1 0.45 1 1s-0.45 1-1 1-1-0.45-1-1 0.45-1 1-1z m-4.71 1.96L3.66 7.34l3.63-3.63 3.62 3.62-3.62 3.63zM10 13c-0.55 0-1-0.45-1-1s0.45-1 1-1 1 0.45 1 1-0.45 1-1 1z m2 2c-0.55 0-1-0.45-1-1s0.45-1 1-1 1 0.45 1 1-0.45 1-1 1z m2-4c0.55 0 1 0.45 1 1s-0.45 1-1 1-1-0.45-1-1 0.45-1 1-1z m2.66 9.34l-3.63-3.62 3.63-3.63 3.62 3.62-3.62 3.63z"/>
</svg>
