<svg xmlns="http://www.w3.org/2000/svg" width="24" height="24">
  <path fill="none" d="M0 0h24v24H0z"/>
  <path d="M12 2C6.477152501692068 2 2.0000000000000018 6.477152501692066 2 11.999999999999998 2 17.522847498307932 6.477152501692064 22 11.999999999999998 22 17.522847498307932 22 22 17.522847498307936 22 12.000000000000002 22 6.477152501692067 17.522847498307932 2 12 2z m6 9.8C18.01556399359145 11.972821825776654 17.980836696306206 12.146458312202878 17.9 12.3l-2.1 4.9C15.575742226957955 17.711537698780848 15.057712049424163 18.030325500340105 14.499999999999996 18.000000000000004H9C7.8954305003384135 18.000000000000004 7 17.10456949966159 7 16.000000000000004v-5C6.97978213369381 10.624062120730155 7.126091973178378 10.258287522018733 7.399999999999999 10.000000000000005L12 5l0.69 0.69C12.871680936943774 5.879164658284271 12.978315893617442 6.127979557189493 12.990000000000002 6.39v0.2L12.41 10H17C17.552284749830793 10 18 10.447715250169207 18 11z"/>
</svg>
