<svg xmlns="http://www.w3.org/2000/svg" width="24" height="24">
  <path fill="none" d="M0 0H24V24H0z"/>
  <path d="M14.99 7l1.37-0.63L16.99 5l0.63 1.37L18.99 7l-1.37 0.63L16.99 9l-0.63-1.37L14.99 7zM20 14c1.1 0 2-0.9 2-2 0-1.1-2-4-2-4s-2 2.9-2 4C18 13.1 18.9 14 20 14zM1 22h4V11H1V22zM9.24 9.5L15 11.65V11c0-2.42-1.72-4.44-4-4.9V4h2c0.57 0 1.1 0.17 1.55 0.45l1.43-1.43C15.15 2.39 14.13 2 13 2c-1.48 0-5.5 0-5.5 0v2H9v2.11C7.22 6.48 5.8 7.79 5.25 9.5H9.24zM22 17h-9l-2.09-0.73 0.33-0.94L13 16h4l0-2-8.03-3H7v9.02L14 22l8-3V17z"/>
</svg>
