<svg xmlns="http://www.w3.org/2000/svg" width="24" height="24">
  <path fill="none" d="M0 0h24v24H0V0z"/>
  <path d="M15.95 6l-0.59-0.65L14.12 4H9.88L8.65 5.35l-0.6 0.65H4v12h16V6h-4.05zM7 12c0-2.76 2.24-5 5-5 1.63 0 3.06 0.79 3.98 2H12c-1.66 0-3 1.34-3 3 0 0.35 0.07 0.69 0.18 1H7.1c-0.06-0.32-0.1-0.66-0.1-1z m10 0c0 2.76-2.24 5-5 5-1.63 0-3.06-0.79-3.98-2H12c1.66 0 3-1.34 3-3 0-0.35-0.07-0.69-0.18-1h2.08c0.07 0.32 0.1 0.66 0.1 1z" opacity=".3"/>
  <path d="M20 4h-3.17L15 2H9L7.17 4H4c-1.1 0-2 0.9-2 2v12c0 1.1 0.9 2 2 2h16c1.1 0 2-0.9 2-2V6c0-1.1-0.9-2-2-2z m0 14H4V6h4.05l0.59-0.65L9.88 4h4.24l1.24 1.35 0.59 0.65H20v12zM9 12c0-1.66 1.34-3 3-3h3.98c-0.92-1.21-2.35-2-3.98-2-2.76 0-5 2.24-5 5 0 0.34 0.04 0.68 0.1 1h2.08c-0.11-0.31-0.18-0.65-0.18-1z m6 0c0 1.66-1.34 3-3 3H8.02c0.92 1.21 2.35 2 3.98 2 2.76 0 5-2.24 5-5 0-0.34-0.03-0.68-0.1-1h-2.08c0.11 0.31 0.18 0.65 0.18 1z"/>
</svg>
