<svg xmlns="http://www.w3.org/2000/svg" width="24" height="24">
  <path fill="none" d="M0 0h24v24H0V0z"/>
  <path d="M12 13c-1.1 0-2 0.9-2 2s0.9 2 2 2 2-0.9 2-2-0.9-2-2-2z m6-5h-1V6c0-2.76-2.24-5-5-5-2.28 0-4.27 1.54-4.84 3.75-0.14 0.54 0.18 1.08 0.72 1.22 0.53 0.14 1.08-0.18 1.22-0.72C9.44 3.93 10.63 3 12 3c1.65 0 3 1.35 3 3v2H6c-1.1 0-2 0.9-2 2v10c0 1.1 0.9 2 2 2h12c1.1 0 2-0.9 2-2V10c0-1.1-0.9-2-2-2z m0 11c0 0.55-0.45 1-1 1H7c-0.55 0-1-0.45-1-1v-8c0-0.55 0.45-1 1-1h10c0.55 0 1 0.45 1 1v8z"/>
</svg>
