<svg xmlns="http://www.w3.org/2000/svg" width="24" height="24">
  <path fill="none" d="M0 0h24v24H0V0z"/>
  <path d="M7 1v5h2V4h10v16H9v-2H7v5h14V1z m2.5 14.5c0.29-0.12 0.55-0.29 0.8-0.48l-0.02 0.03 1.41 0.55 1.27-2.2-1.18-0.95-0.02 0.03c0.02-0.16 0.05-0.32 0.05-0.48s-0.03-0.32-0.05-0.48l0.02 0.03 1.18-0.95-1.26-2.2-1.41 0.55 0.02 0.03c-0.26-0.19-0.52-0.36-0.81-0.48L9.27 7H6.73L6.5 8.5c-0.29 0.12-0.55 0.29-0.8 0.48l0.02-0.03L4.3 8.4l-1.27 2.2 1.18 0.95 0.02-0.03c-0.01 0.16-0.04 0.32-0.04 0.48s0.03 0.32 0.05 0.48l-0.02-0.03-1.18 0.95 1.27 2.2 1.41-0.55-0.02-0.03c0.25 0.19 0.51 0.36 0.8 0.48l0.23 1.5h2.54l0.23-1.5zM6 12c0-1.1 0.9-2 2-2s2 0.9 2 2-0.9 2-2 2-2-0.9-2-2z"/>
</svg>
