<svg xmlns="http://www.w3.org/2000/svg" width="24" height="24">
  <path fill="none" d="M0 0h24v24H0V0z"/>
  <path d="M4 10.5c-0.83 0-1.5 0.67-1.5 1.5s0.67 1.5 1.5 1.5 1.5-0.67 1.5-1.5-0.67-1.5-1.5-1.5z m0-6c-0.83 0-1.5 0.67-1.5 1.5S3.17 7.5 4 7.5 5.5 6.83 5.5 6 4.83 4.5 4 4.5z m0 12c-0.83 0-1.5 0.68-1.5 1.5s0.68 1.5 1.5 1.5 1.5-0.68 1.5-1.5-0.67-1.5-1.5-1.5zM8 19h12c0.55 0 1-0.45 1-1s-0.45-1-1-1H8c-0.55 0-1 0.45-1 1s0.45 1 1 1z m0-6h12c0.55 0 1-0.45 1-1s-0.45-1-1-1H8c-0.55 0-1 0.45-1 1s0.45 1 1 1zM7 6c0 0.55 0.45 1 1 1h12c0.55 0 1-0.45 1-1s-0.45-1-1-1H8c-0.55 0-1 0.45-1 1z"/>
</svg>
