<svg xmlns="http://www.w3.org/2000/svg" width="24" height="24">
  <path fill="none" d="M0 0h24v24H0z"/>
  <path d="M7.58 4.08L6.15 2.65C3.75 4.48 2.17 7.3 2.03 10.5h2c0.15-2.65 1.51-4.97 3.55-6.42z m12.39 6.42h2c-0.15-3.2-1.73-6.02-4.12-7.85l-1.42 1.43c2.02 1.45 3.39 3.77 3.54 6.42zM18 11c0-3.07-1.64-5.64-4.5-6.32V4c0-0.83-0.67-1.5-1.5-1.5s-1.5 0.67-1.5 1.5v0.68C7.63 5.36 6 7.92 6 11v5l-2 2v1h16v-1l-2-2v-5z m-6 11c0.14 0 0.27-0.01 0.4-0.04 0.65-0.14 1.18-0.58 1.44-1.18 0.1-0.24 0.15-0.5 0.15-0.78h-4c0.01 1.1 0.9 2 2.01 2z"/>
</svg>
