<svg xmlns="http://www.w3.org/2000/svg" width="24" height="24">
  <path fill="none" d="M0 0h24v24H0V0z"/>
  <path d="M1.91 2.36c-0.35-0.35-0.92-0.35-1.27 0s-0.35 0.92 0 1.27l1.38 1.38L2 22l4-4h9l5.09 5.09c0.35 0.35 0.92 0.35 1.27 0s0.35-0.92 0-1.27L1.91 2.36zM7 14c-0.55 0-1-0.45-1-1s0.45-1 1-1 1 0.45 1 1-0.45 1-1 1z m0-3c-0.55 0-1-0.45-1-1s0.45-1 1-1 1 0.45 1 1-0.45 1-1 1z m13-9H4.08l7 7H17c0.55 0 1 0.45 1 1s-0.45 1-1 1h-3.92l6.99 6.99C21.14 17.95 22 17.08 22 16V4c0-1.1-0.9-2-2-2z m-3 6h-6c-0.55 0-1-0.45-1-1s0.45-1 1-1h6c0.55 0 1 0.45 1 1s-0.45 1-1 1z"/>
</svg>
