<svg xmlns="http://www.w3.org/2000/svg" width="24" height="24">
  <path fill="none" d="M0 0h24v24H0V0z"/>
  <path d="M18 2.01L6 2C4.8954305003384135 2 4 2.895430500338413 4 3.9999999999999996v16c0 1.1 0.9 2 2 2h12c1.1 0 2-0.9 2-2V4c0-1.11-0.9-1.99-2-1.99zM17 20H7c-0.55 0-1-0.45-1-1v-7.02c0-0.55 0.45-1 1-1h10c0.55 0 1 0.45 1 1V19c0 0.55-0.45 1-1 1z m0-11H7c-0.55 0-1-0.45-1-1V5c0-0.55 0.45-1 1-1h10c0.55 0 1 0.45 1 1v3c0 0.55-0.45 1-1 1zM9 5c0.55 0 1 0.45 1 1v1c0 0.55-0.45 1-1 1s-1-0.45-1-1V6c0-0.55 0.45-1 1-1z m0 7c0.55 0 1 0.45 1 1v3c0 0.55-0.45 1-1 1s-1-0.45-1-1v-3c0-0.55 0.45-1 1-1z"/>
</svg>
