<svg xmlns="http://www.w3.org/2000/svg" width="24" height="24">
  <g fill="none">
    <path d="M0 0H24V24H0z"/>
    <path d="M0 0H24V24H0z"/>
  </g>
  <path d="M22 9 22 7 20 7 20 9 18 9 18 11 20 11 20 13 22 13 22 11 24 11 24 9z"/>
  <path d="M8 12c2.21 0 4-1.79 4-4s-1.79-4-4-4S4 5.79 4 8 5.79 12 8 12zM8 6c1.1 0 2 0.9 2 2s-0.9 2-2 2S6 9.1 6 8 6.9 6 8 6z"/>
  <path d="M8 13c-2.67 0-8 1.34-8 4v3h16v-3C16 14.34 10.67 13 8 13zM14 18H2v-0.99C2.2 16.29 5.3 15 8 15s5.8 1.29 6 2V18z"/>
  <path d="M12.51 4.05C13.43 5.11 14 6.49 14 8s-0.57 2.89-1.49 3.95C14.47 11.7 16 10.04 16 8S14.47 4.3 12.51 4.05z"/>
  <path d="M16.53 13.83C17.42 14.66 18 15.7 18 17v3h2v-3C20 15.55 18.41 14.49 16.53 13.83z"/>
</svg>
