<svg xmlns="http://www.w3.org/2000/svg" width="24" height="24">
  <path fill="none" d="M0 0h24v24H0V0z"/>
  <path d="M22 2H2v20h20V2zM9 18c-0.55 0-1-0.45-1-1s0.45-1 1-1 1 0.45 1 1S9.55 18 9 18zM9 15c-0.55 0-1-0.45-1-1s0.45-1 1-1 1 0.45 1 1S9.55 15 9 15zM12 18c-0.55 0-1-0.45-1-1s0.45-1 1-1 1 0.45 1 1S12.55 18 12 18zM12 15c-0.55 0-1-0.45-1-1s0.45-1 1-1 1 0.45 1 1S12.55 15 12 15zM15 18c-0.55 0-1-0.45-1-1s0.45-1 1-1 1 0.45 1 1S15.55 18 15 18zM15 15c-0.55 0-1-0.45-1-1s0.45-1 1-1 1 0.45 1 1S15.55 15 15 15zM17 12H7v-1c0-2.76 2.24-5 5-5s5 2.24 5 5V12z"/>
</svg>
