<svg xmlns="http://www.w3.org/2000/svg" width="24" height="24">
  <path fill="none" d="M0 0h24v24H0V0z"/>
  <path d="M6 16h2v2c0 0.55 0.45 1 1 1s1-0.45 1-1v-3c0-0.55-0.45-1-1-1H6c-0.55 0-1 0.45-1 1s0.45 1 1 1z m2-8H6c-0.55 0-1 0.45-1 1s0.45 1 1 1h3c0.55 0 1-0.45 1-1V6c0-0.55-0.45-1-1-1s-1 0.45-1 1v2z m7 11c0.55 0 1-0.45 1-1v-2h2c0.55 0 1-0.45 1-1s-0.45-1-1-1h-3c-0.55 0-1 0.45-1 1v3c0 0.55 0.45 1 1 1z m1-11V6c0-0.55-0.45-1-1-1s-1 0.45-1 1v3c0 0.55 0.45 1 1 1h3c0.55 0 1-0.45 1-1s-0.45-1-1-1h-2z"/>
</svg>
