<svg xmlns="http://www.w3.org/2000/svg" width="24" height="24">
  <path fill="none" d="M0 0h24v24H0V0z"/>
  <path d="M12 17h8c0.55 0 1-0.45 1-1s-0.45-1-1-1h-8c-0.55 0-1 0.45-1 1s0.45 1 1 1z m-8.65-4.65l2.79 2.79c0.32 0.32 0.86 0.1 0.86-0.35V9.21c0-0.45-0.54-0.67-0.85-0.35l-2.79 2.79c-0.2 0.19-0.2 0.51-0.01 0.7zM4 21h16c0.55 0 1-0.45 1-1s-0.45-1-1-1H4c-0.55 0-1 0.45-1 1s0.45 1 1 1zM3 4c0 0.55 0.45 1 1 1h16c0.55 0 1-0.45 1-1s-0.45-1-1-1H4c-0.55 0-1 0.45-1 1z m9 5h8c0.55 0 1-0.45 1-1s-0.45-1-1-1h-8c-0.55 0-1 0.45-1 1s0.45 1 1 1z m0 4h8c0.55 0 1-0.45 1-1s-0.45-1-1-1h-8c-0.55 0-1 0.45-1 1s0.45 1 1 1z"/>
</svg>
