<svg xmlns="http://www.w3.org/2000/svg" width="24" height="24">
  <path fill="none" d="M0 0h24v24H0V0z"/>
  <path d="M15.56 10.81l-2.35 3.02-1.56-1.88c-0.2-0.25-0.58-0.24-0.78 0.01l-1.74 2.23c-0.26 0.33-0.02 0.81 0.39 0.81h8.98c0.41 0 0.65-0.47 0.4-0.8l-2.55-3.39c-0.19-0.26-0.59-0.26-0.79 0zM2 5c-0.55 0-1 0.45-1 1v15c0 1.1 0.9 2 2 2h15c0.55 0 1-0.45 1-1s-0.45-1-1-1H4c-0.55 0-1-0.45-1-1V6c0-0.55-0.45-1-1-1z m19-4H7c-1.1 0-2 0.9-2 2v14c0 1.1 0.9 2 2 2h14c1.1 0 2-0.9 2-2V3c0-1.1-0.9-2-2-2z m-1 16H8c-0.55 0-1-0.45-1-1V4c0-0.55 0.45-1 1-1h12c0.55 0 1 0.45 1 1v12c0 0.55-0.45 1-1 1z"/>
</svg>
