<svg xmlns="http://www.w3.org/2000/svg" width="24" height="24">
  <path fill="none" d="M0 0h24v24H0V0z"/>
  <path d="M5 19h8l-4-4z m0-2.5l4-4 4 4 6-6V5H5v11.5zM12 6h1.5v3l2-3h1.7l-2 3 2 3h-1.7l-2-3v3H12V6zM7 8.25h2.5V7.5H7V6h4v3.75H8.5v0.75H11V12H7V8.25zM19 19v-6l-6 6z" opacity=".3"/>
  <path d="M19 3H5c-1.1 0-2 0.9-2 2v14c0 1.1 0.9 2 2 2h14c1.1 0 2-0.9 2-2V5c0-1.1-0.9-2-2-2z m0 16H5l4-4 4 4 6-6v6z m0-8.5l-6 6-4-4-4 4V5h14v5.5zM13.5 9V6H12v6h1.5z m3.7 3l-2-3 2-3h-1.7l-2 3 2 3zM11 10.5H8.5v-0.75H11V6H7v1.5h2.5v0.75H7V12h4z"/>
</svg>
