<svg xmlns="http://www.w3.org/2000/svg" width="24" height="24">
  <path fill="none" d="M0 0H24V24H0z"/>
  <path d="M19 9v2H9V9H19zM13 15v-2h2v2H13zM15 17v2h-2v-2H15zM11 15H9v-2h2V15zM17 13h2v2h-2V13zM9 17h2v2H9V17zM17 19v-2h2v2H17z" opacity=".3"/>
  <path d="M19 7H9C7.9 7 7 7.9 7 9v10c0 1.1 0.9 2 2 2h10c1.1 0 2-0.9 2-2V9C21 7.9 20.1 7 19 7zM19 9v2H9V9H19zM13 15v-2h2v2H13zM15 17v2h-2v-2H15zM11 15H9v-2h2V15zM17 13h2v2h-2V13zM9 17h2v2H9V17zM17 19v-2h2v2H17zM6 17H5c-1.1 0-2-0.9-2-2V5c0-1.1 0.9-2 2-2h10c1.1 0 2 0.9 2 2v1h-2V5H5v10h1V17z"/>
</svg>
