<svg xmlns="http://www.w3.org/2000/svg" width="24" height="24">
  <path fill="none" d="M0 0h24v24H0V0z"/>
  <path d="M23 6V2c0-0.55-0.45-1-1-1h-4c-0.55 0-1 0.45-1 1v1H7V2c0-0.55-0.45-1-1-1H2c-0.55 0-1 0.45-1 1v4c0 0.55 0.45 1 1 1h1v10H2c-0.55 0-1 0.45-1 1v4c0 0.55 0.45 1 1 1h4c0.55 0 1-0.45 1-1v-1h10v1c0 0.55 0.45 1 1 1h4c0.55 0 1-0.45 1-1v-4c0-0.55-0.45-1-1-1h-1V7h1c0.55 0 1-0.45 1-1zM3 3h2v2H3V3z m2 18H3v-2h2v2z m12-2H7v-1c0-0.55-0.45-1-1-1H5V7h1c0.55 0 1-0.45 1-1V5h10v1c0 0.55 0.45 1 1 1h1v10h-1c-0.55 0-1 0.45-1 1v1z m4 2h-2v-2h2v2zM19 5V3h2v2h-2z m-6.06 2.65c-0.15-0.39-0.53-0.65-0.95-0.65-0.42 0-0.8 0.26-0.94 0.65l-2.77 7.33c-0.19 0.49 0.17 1.02 0.7 1.02 0.32 0 0.6-0.2 0.71-0.5l0.55-1.5h3.49l0.56 1.51c0.11 0.29 0.39 0.49 0.71 0.49h0.01c0.53 0 0.89-0.53 0.71-1.02l-2.78-7.33z m-2.25 5.09L12 8.91l1.3 3.83h-2.61z"/>
</svg>
