<svg xmlns="http://www.w3.org/2000/svg" width="24" height="24">
  <path fill="none" d="M0 0h24v24H0V0z"/>
  <path d="M15 8c-0.55 0-1 0.45-1 1v2h-2c-0.55 0-1 0.45-1 1s0.45 1 1 1h2v2c0 0.55 0.45 1 1 1s1-0.45 1-1v-2h2c0.55 0 1-0.45 1-1s-0.45-1-1-1h-2V9c0-0.55-0.45-1-1-1zM2 12c0-2.58 1.4-4.83 3.48-6.04 0.32-0.19 0.53-0.51 0.53-0.88 0-0.77-0.84-1.25-1.51-0.86C1.82 5.78 0 8.68 0 12s1.82 6.22 4.5 7.78c0.67 0.39 1.51-0.09 1.51-0.86 0-0.37-0.21-0.69-0.53-0.88C3.4 16.83 2 14.58 2 12z m13-9c-4.96 0-9 4.04-9 9s4.04 9 9 9 9-4.04 9-9-4.04-9-9-9z m0 16c-3.86 0-7-3.14-7-7s3.14-7 7-7 7 3.14 7 7-3.14 7-7 7z"/>
</svg>
