<svg xmlns="http://www.w3.org/2000/svg" width="24" height="24">
  <path fill="none" d="M0 0H24V24H0z"/>
  <path d="M5.77 7.15L7.2 4.78l1.03-1.71c0.39-0.65 1.33-0.65 1.72 0l1.48 2.46-1.23 2.06-1 1.62-3.43-2.06z m15.95 5.82l-1.6-2.66-3.46 2L18.87 16H20c0.76 0 1.45-0.43 1.79-1.11 0.14-0.28 0.21-0.58 0.21-0.89 0-0.36-0.1-0.71-0.28-1.03zM16 21h1.5c0.76 0 1.45-0.43 1.79-1.11L20.74 17H16v-2l-4 4 4 4v-2z m-6-4H5.7l-0.84 1.41c-0.3 0.5-0.32 1.12-0.06 1.65 0.28 0.57 0.87 0.94 1.52 0.94H10v-4z m-3.88-2.65l1.73 1.04L6.48 9.9 1 11.27l1.7 1.02-0.41 0.69c-0.35 0.59-0.38 1.31-0.07 1.92l1.63 3.26 2.27-3.81z m10.9-9.21l-1.3-2.17C15.35 2.37 14.7 2 14 2h-3.53l3.12 5.2-1.72 1.03 5.49 1.37 1.37-5.49-1.71 1.03z"/>
</svg>
