<svg xmlns="http://www.w3.org/2000/svg" width="24" height="24">
  <path d="M11.99 5V2.21c0-0.45-0.54-0.67-0.85-0.35L7.35 5.65c-0.2 0.2-0.2 0.51 0 0.71l3.79 3.79c0.31 0.31 0.85 0.09 0.85-0.35V7c3.73 0 6.68 3.42 5.86 7.29-0.47 2.27-2.31 4.1-4.57 4.57-3.57 0.75-6.75-1.7-7.23-5.01-0.06-0.48-0.48-0.85-0.98-0.85-0.6 0-1.08 0.53-1 1.13 0.62 4.39 4.8 7.64 9.53 6.72 3.12-0.61 5.63-3.12 6.24-6.24 0.99-5.13-2.9-9.61-7.85-9.61z m-1.1 11h-0.85v-3.26l-1.01 0.31v-0.69l1.77-0.63h0.09V16z m4.28-1.76c0 0.32-0.03 0.6-0.1 0.82s-0.17 0.42-0.29 0.57-0.28 0.26-0.45 0.33-0.37 0.1-0.59 0.1-0.41-0.03-0.59-0.1-0.33-0.18-0.46-0.33-0.23-0.34-0.3-0.57-0.11-0.5-0.11-0.82v-0.74c0-0.32 0.03-0.6 0.1-0.82s0.17-0.42 0.29-0.57 0.28-0.26 0.45-0.33 0.37-0.1 0.59-0.1 0.41 0.03 0.59 0.1 0.33 0.18 0.46 0.33 0.23 0.34 0.3 0.57 0.11 0.5 0.11 0.82v0.74z m-0.85-0.86c0-0.19-0.01-0.35-0.04-0.48s-0.07-0.23-0.12-0.31-0.11-0.14-0.19-0.17-0.16-0.05-0.25-0.05-0.18 0.02-0.25 0.05-0.14 0.09-0.19 0.17-0.09 0.18-0.12 0.31-0.04 0.29-0.04 0.48v0.97c0 0.19 0.01 0.35 0.04 0.48s0.07 0.24 0.12 0.32 0.11 0.14 0.19 0.17 0.16 0.05 0.25 0.05 0.18-0.02 0.25-0.05 0.14-0.09 0.19-0.17 0.09-0.19 0.11-0.32 0.04-0.29 0.04-0.48v-0.97z"/>
</svg>
