<svg xmlns="http://www.w3.org/2000/svg" width="24" height="24">
  <path d="M21 13h-6c-0.55 0-1-0.45-1-1s0.45-1 1-1h6c0.55 0 1 0.45 1 1s-0.45 1-1 1z m0-6h-6c-0.55 0-1 0.45-1 1s0.45 1 1 1h6c0.55 0 1-0.45 1-1s-0.45-1-1-1z m-6 10h6c0.55 0 1-0.45 1-1s-0.45-1-1-1h-6c-0.55 0-1 0.45-1 1s0.45 1 1 1z m-3-8v6c0 1.1-0.9 2-2 2H4c-1.1 0-2-0.9-2-2V9c0-1.1 0.9-2 2-2h6c1.1 0 2 0.9 2 2z m-2.1 5.2l-1.26-1.68c-0.2-0.26-0.59-0.27-0.8-0.01L6.5 14.26l-0.85-1.03c-0.2-0.25-0.58-0.24-0.78 0.01l-0.74 0.95c-0.26 0.33-0.02 0.81 0.39 0.81H9.5c0.41 0 0.65-0.47 0.4-0.8z"/>
</svg>
