<svg xmlns="http://www.w3.org/2000/svg" width="24" height="24">
  <path fill="none" d="M0 0H24V24H0z"/>
  <path d="M17 5h-2V3h2V5zM19 9h2V7h-2V9zM19 13h2v-2h-2V13zM11 21h2v-2h-2V21zM7 5h2V3H7V5zM3 17h2v-2H3V17zM5 21v-2H3C3 20.1 3.9 21 5 21zM19 3v2h2C21 3.9 20.1 3 19 3zM11 5h2V3h-2V5zM3 9h2V7H3V9zM7 21h2v-2H7V21zM3 13h2v-2H3V13zM3 5h2V3C3.9 3 3 3.9 3 5zM18.71 17.29l1.44-1.44c0.32-0.32 0.09-0.85-0.35-0.85H16c-0.55 0-1 0.45-1 1v3.79c0 0.45 0.54 0.67 0.85 0.35l1.44-1.44 2 2c0.39 0.39 1.02 0.39 1.41 0 0.39-0.39 0.39-1.02 0-1.41L18.71 17.29z"/>
</svg>
