<svg xmlns="http://www.w3.org/2000/svg" width="24" height="24">
  <path fill="none" d="M0 0H24V24H0z"/>
  <path d="M22 9h-4V4H8v14.5V20h14V9zM10 6h6v3h-6V6zM14 17h-4v-5h4V17zM16 17c-0.55 0-1-0.45-1-1 0-0.55 0.45-1 1-1s1 0.45 1 1C17 16.55 16.55 17 16 17zM16 14c-0.55 0-1-0.45-1-1 0-0.55 0.45-1 1-1s1 0.45 1 1C17 13.55 16.55 14 16 14zM19 17c-0.55 0-1-0.45-1-1 0-0.55 0.45-1 1-1s1 0.45 1 1C20 16.55 19.55 17 19 17zM19 14c-0.55 0-1-0.45-1-1 0-0.55 0.45-1 1-1s1 0.45 1 1C20 13.55 19.55 14 19 14z"/>
  <path d="M2 8H7V21H2z"/>
</svg>
