<svg xmlns="http://www.w3.org/2000/svg" width="24" height="24">
  <path fill="none" d="M0 0h24v24H0V0z"/>
  <path d="M19 3h-4.18C14.4 1.84 13.3 1 12 1s-2.4 0.84-2.82 2H5c-1.1 0-2 0.9-2 2v14c0 1.1 0.9 2 2 2h14c1.1 0 2-0.9 2-2V5c0-1.1-0.9-2-2-2z m-7 0c0.55 0 1 0.45 1 1s-0.45 1-1 1-1-0.45-1-1 0.45-1 1-1zM9.29 16.29L6.7 13.7c-0.39-0.39-0.39-1.02 0-1.41 0.39-0.39 1.02-0.39 1.41 0L10 14.17l5.88-5.88c0.39-0.39 1.02-0.39 1.41 0 0.39 0.39 0.39 1.02 0 1.41l-6.59 6.59c-0.38 0.39-1.02 0.39-1.41 0z"/>
</svg>
