<svg xmlns="http://www.w3.org/2000/svg" width="24" height="24">
  <path fill="none" d="M0 0H24V24H0z"/>
  <path d="M16.48 10 18.16 10 15 5.49 13.22 8.03 16 12 14.14 12 16.71 16 20.34 16z" opacity=".3"/>
  <path d="M12.16 10 9 5.49 5.84 10 7.52 10 3.66 16 14.34 16 10.48 10z" opacity=".3"/>
  <path d="M20.14 12H22L15 2l-3 4.29L9 2 2 12h1.86L0 18h7v4h4v-4h2v4h4v-4h7L20.14 12zM3.66 16l3.86-6H5.84L9 5.49 12.16 10h-1.68l3.86 6H3.66zM16.71 16l-2.57-4H16l-2.78-3.97L15 5.49 18.16 10h-1.68l3.86 6H16.71z"/>
</svg>
