<svg xmlns="http://www.w3.org/2000/svg" width="24" height="24">
  <path fill="none" d="M0 0h24v24H0V0z"/>
  <path d="M5.35 5.64c-0.9-0.64-1.12-1.88-0.49-2.79 0.63-0.9 1.88-1.12 2.79-0.49 0.9 0.64 1.12 1.88 0.49 2.79-0.64 0.9-1.88 1.12-2.79 0.49zM16 20c0-0.55-0.45-1-1-1H8.93c-1.48 0-2.74-1.08-2.96-2.54L4.16 7.78C4.07 7.33 3.67 7 3.2 7c-0.62 0-1.08 0.57-0.96 1.18l1.75 8.58C4.37 19.2 6.47 21 8.94 21H15c0.55 0 1-0.45 1-1z m-0.46-5h-4.19l-1.03-4.1c1.28 0.72 2.63 1.28 4.1 1.3 0.58 0.01 1.05-0.49 1.05-1.07 0-0.59-0.49-1.04-1.08-1.06-1.31-0.04-2.63-0.56-3.61-1.33L9.14 7.47c-0.23-0.18-0.49-0.3-0.76-0.38-0.32-0.09-0.66-0.12-0.99-0.06h-0.02c-1.23 0.22-2.05 1.39-1.84 2.61l1.35 5.92C7.16 16.98 8.39 18 9.83 18h6.85l3.09 2.42c0.42 0.33 1.02 0.29 1.39-0.08 0.45-0.45 0.4-1.18-0.1-1.57l-4.29-3.35c-0.35-0.27-0.78-0.42-1.23-0.42z"/>
</svg>
