<svg xmlns="http://www.w3.org/2000/svg" width="24" height="24">
  <path fill="none" d="M0 0H24V24H0z"/>
  <path d="M12.79 21L3 11.21v2c0 0.53 0.21 1.04 0.59 1.41l7.79 7.79c0.78 0.78 2.05 0.78 2.83 0l6.21-6.21c0.78-0.78 0.78-2.05 0-2.83L12.79 21z"/>
  <path d="M11.38 17.41c0.39 0.39 0.9 0.59 1.41 0.59 0.51 0 1.02-0.2 1.41-0.59l6.21-6.21c0.78-0.78 0.78-2.05 0-2.83l-7.79-7.79C12.25 0.21 11.74 0 11.21 0H5C3.9 0 3 0.9 3 2v6.21c0 0.53 0.21 1.04 0.59 1.41L11.38 17.41zM5 2h6.21L19 9.79 12.79 16 5 8.21V2z"/>
  <circle cx="7.25" cy="4.25" r="1.25"/>
</svg>
