<svg xmlns="http://www.w3.org/2000/svg" width="24" height="24">
  <path fill="none" d="M0 0H24V24H0z"/>
  <path d="M4 3H10V5H4z"/>
  <path d="M1 7H6V9H1z"/>
  <path d="M3 19H8V21H3z"/>
  <path d="M15.32 12.09l5.42-9.04L17.32 1 12 5.97v4.74c0.31-0.13 0.64-0.21 1-0.21C14.06 10.5 14.96 11.16 15.32 12.09z"/>
  <path d="M10.5 13c0-0.82 0.4-1.54 1.01-2H1v4l7 2 3.44-2.06C10.87 14.48 10.5 13.79 10.5 13z"/>
  <path d="M20.17 23L23 20.17l-3.54-6.36-3.98-1c0 0.06 0.02 0.12 0.02 0.19 0 1.38-1.12 2.5-2.5 2.5-0.36 0-0.69-0.08-1-0.21V21c-1.1 0-2 0.9-2 2h6c0-1.1-0.9-2-2-2v-4.17L20.17 23z"/>
  <circle cx="13" cy="13" r="1.5"/>
</svg>
