<svg xmlns="http://www.w3.org/2000/svg" width="24" height="24">
  <path fill="none" d="M0 0h24v24H0V0z"/>
  <path fill-opacity=".3" d="M15.5 14.5c0-2.8 2.2-5 5-5 0.36 0 0.71 0.04 1.05 0.11L23.64 7c-0.45-0.34-4.93-4-11.64-4C5.28 3 0.81 6.66 0.36 7L12 21.5l3.5-4.36V14.5z"/>
  <path d="M15.5 14.5c0-0.23 0.04-0.46 0.07-0.68-0.92-0.43-2.14-0.82-3.57-0.82-3 0-5.1 1.7-5.3 1.9l5.3 6.6 3.5-4.36V14.5zM23 16v-1.5c0-1.4-1.1-2.5-2.5-2.5S18 13.1 18 14.5V16c-0.5 0-1 0.5-1 1v4c0 0.5 0.5 1 1 1h5c0.5 0 1-0.5 1-1v-4c0-0.5-0.5-1-1-1z m-1 0h-3v-1.5c0-0.8 0.7-1.5 1.5-1.5s1.5 0.7 1.5 1.5V16z"/>
</svg>
