<svg xmlns="http://www.w3.org/2000/svg" width="24" height="24">
  <g fill="none">
    <path d="M0 0h24v24H0V0z"/>
    <path d="M0 0h24v24H0V0z" opacity=".87"/>
  </g>
  <path d="M4 13c0.55 0 1-0.45 1-1s-0.45-1-1-1-1 0.45-1 1 0.45 1 1 1z m0 4c0.55 0 1-0.45 1-1s-0.45-1-1-1-1 0.45-1 1 0.45 1 1 1z m0-8c0.55 0 1-0.45 1-1s-0.45-1-1-1-1 0.45-1 1 0.45 1 1 1z m4 4h12c0.55 0 1-0.45 1-1s-0.45-1-1-1H8c-0.55 0-1 0.45-1 1s0.45 1 1 1z m0 4h12c0.55 0 1-0.45 1-1s-0.45-1-1-1H8c-0.55 0-1 0.45-1 1s0.45 1 1 1zM7 8c0 0.55 0.45 1 1 1h12c0.55 0 1-0.45 1-1s-0.45-1-1-1H8c-0.55 0-1 0.45-1 1z m-3 5c0.55 0 1-0.45 1-1s-0.45-1-1-1-1 0.45-1 1 0.45 1 1 1z m0 4c0.55 0 1-0.45 1-1s-0.45-1-1-1-1 0.45-1 1 0.45 1 1 1z m0-8c0.55 0 1-0.45 1-1s-0.45-1-1-1-1 0.45-1 1 0.45 1 1 1z m4 4h12c0.55 0 1-0.45 1-1s-0.45-1-1-1H8c-0.55 0-1 0.45-1 1s0.45 1 1 1z m0 4h12c0.55 0 1-0.45 1-1s-0.45-1-1-1H8c-0.55 0-1 0.45-1 1s0.45 1 1 1zM7 8c0 0.55 0.45 1 1 1h12c0.55 0 1-0.45 1-1s-0.45-1-1-1H8c-0.55 0-1 0.45-1 1z"/>
</svg>
