<svg xmlns="http://www.w3.org/2000/svg" width="24" height="24">
  <path fill="none" d="M0 0h24v24H0V0z"/>
  <path d="M20 15.31l2.6-2.6c0.39-0.39 0.39-1.02 0-1.41L20 8.69V5c0-0.55-0.45-1-1-1h-3.69l-2.6-2.6c-0.39-0.39-1.02-0.39-1.41 0L8.69 4H5c-0.55 0-1 0.45-1 1v3.69l-2.6 2.6c-0.39 0.39-0.39 1.02 0 1.41L4 15.3V19c0 0.55 0.45 1 1 1h3.69l2.6 2.6c0.39 0.39 1.02 0.39 1.41 0l2.6-2.6H19c0.55 0 1-0.45 1-1v-3.69z m-8 1.59V7.1c0-0.61 0.55-1.11 1.15-0.99C15.91 6.65 18 9.08 18 12s-2.09 5.35-4.85 5.89c-0.6 0.12-1.15-0.38-1.15-0.99z"/>
</svg>
