<svg xmlns="http://www.w3.org/2000/svg" width="24" height="24">
  <g fill="none">
    <path d="M0 0H24V24H0z"/>
    <path d="M0 0H24V24H0z"/>
  </g>
  <path d="M5 5h2v1c0 1.1 0.9 2 2 2h6c1.1 0 2-0.9 2-2V5h2v6h2V5c0-1.1-0.9-2-2-2h-4.18C14.4 1.84 13.3 1 12 1S9.6 1.84 9.18 3H5C3.9 3 3 3.9 3 5v14c0 1.1 0.9 2 2 2h5v-2H5V5zM12 3c0.55 0 1 0.45 1 1s-0.45 1-1 1-1-0.45-1-1S11.45 3 12 3z"/>
  <path d="M21.29 16.29l-2.58-2.58c-0.39-0.39-1.02-0.39-1.41 0-0.39 0.39-0.39 1.02 0 1.41l0.87 0.88H13c-0.55 0-1 0.45-1 1 0 0.55 0.45 1 1 1h5.17l-0.87 0.88c-0.39 0.39-0.39 1.02 0 1.41v0c0.39 0.39 1.02 0.39 1.41 0l2.58-2.58C21.68 17.31 21.68 16.68 21.29 16.29z"/>
</svg>
