<svg xmlns="http://www.w3.org/2000/svg" width="24" height="24">
  <path fill="none" d="M0 0h24v24H0V0z"/>
  <path d="M23.71 16.67C20.66 13.78 16.54 12 12 12 7.46 12 3.34 13.78 0.29 16.67c-0.18 0.18-0.29 0.43-0.29 0.71 0 0.28 0.11 0.53 0.29 0.71l2.48 2.48c0.18 0.18 0.43 0.29 0.71 0.29 0.27 0 0.52-0.11 0.7-0.28 0.79-0.74 1.69-1.36 2.66-1.85 0.33-0.16 0.56-0.5 0.56-0.9v-3.1c1.45-0.48 3-0.73 4.6-0.73 1.6 0 3.15 0.25 4.6 0.72v3.1c0 0.39 0.23 0.74 0.56 0.9 0.98 0.49 1.87 1.12 2.66 1.85 0.18 0.18 0.43 0.28 0.7 0.28 0.28 0 0.53-0.11 0.71-0.29l2.48-2.48c0.18-0.18 0.29-0.43 0.29-0.71 0-0.27-0.11-0.52-0.29-0.7z m-18.31 0.56c-0.66 0.37-1.29 0.8-1.87 1.27l-1.07-1.07c0.91-0.75 1.9-1.39 2.95-1.9v1.7z m15.07 1.26c-0.59-0.48-1.21-0.9-1.87-1.27v-1.7c1.04 0.51 2.03 1.15 2.94 1.9l-1.07 1.07z m0.69-12.23l-1.41-1.41-3.56 3.55 1.41 1.41s3.45-3.52 3.56-3.55zM11 2h2v5h-2zM6.4 9.81L7.81 8.4 4.26 4.84 2.84 6.26c0.11 0.03 3.56 3.55 3.56 3.55z"/>
</svg>
