<svg xmlns="http://www.w3.org/2000/svg" width="24" height="24">
  <path fill="none" d="M0 0H24V24H0z"/>
  <path d="M20.97 7.27c0.39-0.39 0.39-1.02 0-1.41l-2.83-2.83c-0.39-0.39-1.02-0.39-1.41 0l-4.49 4.49L8.35 3.63c-0.78-0.78-2.05-0.78-2.83 0l-1.9 1.9c-0.78 0.78-0.78 2.05 0 2.83l3.89 3.89L3 16.76V21h4.24l4.52-4.52 3.89 3.89c0.95 0.95 2.23 0.6 2.83 0l1.9-1.9c0.78-0.78 0.78-2.05 0-2.83l-3.89-3.89L20.97 7.27zM5.04 6.94l1.89-1.9c0 0 0 0 0 0l1.27 1.27L7.02 7.5l1.41 1.41 1.19-1.19 1.2 1.2-1.9 1.9L5.04 6.94zM16.27 14.38l-1.19 1.19 1.41 1.41 1.19-1.19 1.27 1.27-1.9 1.9-3.89-3.89 1.9-1.9L16.27 14.38zM6.41 19H5v-1.41l9.61-9.61 1.3 1.3 0.11 0.11L6.41 19zM16.02 6.56l1.41-1.41 1.41 1.41-1.41 1.41L16.02 6.56z"/>
</svg>
