<svg xmlns="http://www.w3.org/2000/svg" width="24" height="24">
  <path fill="none" d="M0 0h24v24H0z"/>
  <path d="M19.46 10C19.259213576362555 10.296725912140511 19.232510754839335 10.678194791043621 19.39 11 19.63819438896906 11.57926662181141 19.81288633470365 12.187328971387588 19.909999999999997 12.809999999999997 20.1674175154035 14.420141420947306 19.926667992576423 16.07049684554449 19.22 17.540000000000003 19.045080362896737 17.86852549764279 18.702180683097293 18.072724183366056 18.33 18.07H5.68C5.3056432529624304 18.070778650295573 4.96220366635434 17.86239957527493 4.789999999999999 17.53 3.4857290768607534 14.884134199837442 3.7433316168557216 11.73520657166392 5.460281338914091 9.336496058629876 7.17723106097246 6.937785545595834 10.074895914793075 5.678562502994113 12.999999999999998 6.059999999999998 13.726385063624829 6.145377269835731 14.43687576853617 6.333943523271917 15.109999999999996 6.62 15.431805208956378 6.777489245160664 15.813274087859488 6.750786423637447 16.11 6.549999999999999 16.41951595593121 6.346092314162167 16.590861367033654 5.987713968165164 16.555226179833177 5.618784971266113 16.5195909926327 5.249855974367062 16.282821037316957 4.93089786262636 15.939999999999998 4.789999999999999 11.977929402474771 3.0910940571966634 7.373075370667303 4.1225066939116495 4.514255018755434 7.349181610565157 1.6554346668435667 10.575856527218663 1.1862114848131124 15.271420634636865 3.349999999999998 19 3.7051045908630895 19.61508907194858 4.359777880393744 19.99571307748966 5.069999999999999 20h13.85C19.637369516875452 20.002848012682946 20.301318068259008 19.621268385451014 20.66 19 22.22579377489855 16.28642870054145 22.42937091562632 12.995881825868977 21.210000000000004 10.11 21.054829587740866 9.779546778224733 20.731911729958565 9.559913001040904 20.367559318035557 9.537010849434315 20.00320690611255 9.514108697827727 19.655328275528117 9.691578124314217 19.46 10z"/>
  <path d="M10.59 12.59C9.808517078989427 13.371482921010571 9.808517078989427 14.638517078989427 10.589999999999998 15.419999999999998 11.371482921010571 16.201482921010573 12.638517078989427 16.201482921010573 13.419999999999998 15.42l5.66-8.49z"/>
</svg>
