<svg xmlns="http://www.w3.org/2000/svg" width="24" height="24">
  <path fill="none" d="M0 0h24v24H0V0z"/>
  <path d="M20 2H8c-1.1 0-2 0.9-2 2v12c0 1.1 0.9 2 2 2h12c1.1 0 2-0.9 2-2V4c0-1.1-0.9-2-2-2z m-8.5 7.5c0 0.83-0.67 1.5-1.5 1.5H9v1.25c0 0.41-0.34 0.75-0.75 0.75s-0.75-0.34-0.75-0.75V8c0-0.55 0.45-1 1-1H10c0.83 0 1.5 0.67 1.5 1.5v1z m5 2c0 0.83-0.67 1.5-1.5 1.5h-2c-0.28 0-0.5-0.22-0.5-0.5v-5c0-0.28 0.22-0.5 0.5-0.5h2c0.83 0 1.5 0.67 1.5 1.5v3z m4-3.75c0 0.41-0.34 0.75-0.75 0.75H19v1h0.75c0.41 0 0.75 0.34 0.75 0.75s-0.34 0.75-0.75 0.75H19v1.25c0 0.41-0.34 0.75-0.75 0.75s-0.75-0.34-0.75-0.75V8c0-0.55 0.45-1 1-1h1.25c0.41 0 0.75 0.34 0.75 0.75zM9 9.5h1v-1H9v1zM3 6c-0.55 0-1 0.45-1 1v13c0 1.1 0.9 2 2 2h13c0.55 0 1-0.45 1-1s-0.45-1-1-1H5c-0.55 0-1-0.45-1-1V7c0-0.55-0.45-1-1-1z m11 5.5h1v-3h-1v3z"/>
</svg>
