<svg xmlns="http://www.w3.org/2000/svg" width="24" height="24">
  <g fill="none">
    <path d="M0 0H24V24H0z"/>
    <path d="M0 0H24V24H0z"/>
  </g>
  <path d="M21.71 11.29l-9-9C12.52315540514423 2.1027719110077334 12.269509470406096 1.9975559679229495 12.005 1.9975559679229495 11.740490529593906 1.9975559679229495 11.486844594855771 2.1027719110077334 11.3 2.2899999999999987L8.21 5.38 13 10.17V7.5l3.15 3.15c0.2 0.2 0.2 0.51 0 0.71l-0.98 0.98 3.45 3.45 3.09-3.09c0.38-0.38 0.38-1.01 0-1.41z"/>
  <path d="M6.79 6.79L3.51 3.51C3.1206392513692904 3.120639251369291 2.489360748630709 3.120639251369291 2.0999999999999996 3.51 1.7106392513692907 3.899360748630709 1.7106392513692905 4.530639251369291 2.0999999999999996 4.92L5.38 8.2l-3.09 3.09C2.1027719110077343 11.476844594855768 1.9975559679229504 11.730490529593904 1.9975559679229504 11.995 1.9975559679229504 12.259509470406094 2.1027719110077343 12.513155405144229 2.2899999999999996 12.7l9 9c0.39 0.39 1.02 0.39 1.41 0l3.09-3.09 3.28 3.28C19.459360748630708 22.27936074863071 20.09063925136929 22.27936074863071 20.479999999999997 21.89 20.869360748630708 21.500639251369293 20.869360748630708 20.86936074863071 20.479999999999997 20.480000000000004L6.79 6.79zM9.99 14c0 0.55-0.45 1-1 1s-1-0.45-1-1v-3c0-0.05 0.02-0.1 0.03-0.15l1.97 1.97V14z"/>
</svg>
