<svg xmlns="http://www.w3.org/2000/svg" width="24" height="24">
  <g fill="none">
    <path d="M0 0H24V24H0z"/>
    <path d="M0 0H24V24H0z"/>
  </g>
  <path d="M17 2c-0.55 0-1 0.45-1 1v1H8V3c0-0.55-0.45-1-1-1S6 2.45 6 3v1H5C3.89 4 3.01 4.9 3.01 6L3 20c0 1.1 0.89 2 2 2h14c1.1 0 2-0.9 2-2V6c0-1.1-0.9-2-2-2h-1V3C18 2.45 17.55 2 17 2zM19 20H5V10h14V20zM11 13c0-0.55 0.45-1 1-1s1 0.45 1 1-0.45 1-1 1S11 13.55 11 13zM7 13c0-0.55 0.45-1 1-1s1 0.45 1 1-0.45 1-1 1S7 13.55 7 13zM15 13c0-0.55 0.45-1 1-1s1 0.45 1 1-0.45 1-1 1S15 13.55 15 13zM11 17c0-0.55 0.45-1 1-1s1 0.45 1 1-0.45 1-1 1S11 17.55 11 17zM7 17c0-0.55 0.45-1 1-1s1 0.45 1 1-0.45 1-1 1S7 17.55 7 17zM15 17c0-0.55 0.45-1 1-1s1 0.45 1 1-0.45 1-1 1S15 17.55 15 17z"/>
</svg>
