<svg xmlns="http://www.w3.org/2000/svg" width="24" height="24">
  <path fill="none" d="M0 0h24v24H0z"/>
  <path d="M12 4c-4.41 0-8 3.59-8 8s3.59 8 8 8c0.28 0 0.5-0.22 0.5-0.5 0-0.16-0.08-0.28-0.14-0.35-0.41-0.46-0.63-1.05-0.63-1.65 0-1.38 1.12-2.5 2.5-2.5H16c2.21 0 4-1.79 4-4 0-3.86-3.59-7-8-7z m-5.5 9c-0.83 0-1.5-0.67-1.5-1.5S5.67 10 6.5 10s1.5 0.67 1.5 1.5S7.33 13 6.5 13z m3-4C8.67 9 8 8.33 8 7.5S8.67 6 9.5 6s1.5 0.67 1.5 1.5S10.33 9 9.5 9z m5 0c-0.83 0-1.5-0.67-1.5-1.5S13.67 6 14.5 6s1.5 0.67 1.5 1.5S15.33 9 14.5 9z m4.5 2.5c0 0.83-0.67 1.5-1.5 1.5s-1.5-0.67-1.5-1.5 0.67-1.5 1.5-1.5 1.5 0.67 1.5 1.5z" opacity=".3"/>
  <path d="M12 2C6.49 2 2 6.49 2 12s4.49 10 10 10c1.38 0 2.5-1.12 2.5-2.5 0-0.61-0.23-1.21-0.64-1.67-0.08-0.09-0.13-0.21-0.13-0.33 0-0.28 0.22-0.5 0.5-0.5H16c3.31 0 6-2.69 6-6 0-4.96-4.49-9-10-9z m4 13h-1.77c-1.38 0-2.5 1.12-2.5 2.5 0 0.61 0.22 1.19 0.63 1.65 0.06 0.07 0.14 0.19 0.14 0.35 0 0.28-0.22 0.5-0.5 0.5-4.41 0-8-3.59-8-8s3.59-8 8-8 8 3.14 8 7c0 2.21-1.79 4-4 4z"/>
  <circle cx="6.5" cy="11.5" r="1.5"/>
  <circle cx="9.5" cy="7.5" r="1.5"/>
  <circle cx="14.5" cy="7.5" r="1.5"/>
  <circle cx="17.5" cy="11.5" r="1.5"/>
</svg>
