<svg xmlns="http://www.w3.org/2000/svg" width="24" height="24">
  <path fill="none" d="M0 0h24v24H0V0z"/>
  <path d="M6 6.31v4.78c0 4 2.55 7.7 6 8.83 3.45-1.13 6-4.82 6-8.83V6.31l-6-2.12L6 6.31zM16.6 9.88l-5.66 5.66L7.4 12l1.41-1.41 2.12 2.12 4.24-4.24L16.6 9.88z" opacity=".3"/>
  <path d="M12 2L4 5v6.09c0 5.05 3.41 9.76 8 10.91 4.59-1.15 8-5.86 8-10.91V5L12 2zM18 11.09c0 4-2.55 7.7-6 8.83-3.45-1.13-6-4.82-6-8.83V6.31l6-2.12 6 2.12V11.09zM8.82 10.59L7.4 12l3.54 3.54 5.66-5.66-1.41-1.41-4.24 4.24L8.82 10.59z"/>
</svg>
