<svg xmlns="http://www.w3.org/2000/svg" width="24" height="24">
  <path fill="none" d="M0 0H24V24H0z"/>
  <path d="M21.31 17.38l-2.39-2.13C19.44 12.89 17.56 11 15.5 11c-1.16 0-3.5 0.9-3.5 3.5 0 0.97 0.39 1.84 1.03 2.47l-0.71 0.71C11.5 16.87 11 15.74 11 14.5c0-1.7 0.96-3.17 2.35-3.93-0.7-0.36-1.48-0.57-2.28-0.57-2.38 0-4.37 1.65-4.91 3.87C4.91 13.5 4 12.36 4 11c0-1.66 1.34-3 3-3 0.94 0 1.56 0 2.5 0C10.88 8 12 6.88 12 5.5 12 4.12 10.88 3 9.5 3H7v2h2.5C9.78 5 10 5.22 10 5.5 10 5.78 9.78 6 9.5 6 9.47 6 9 6 7 6c-2.76 0-5 2.24-5 5 0 2.42 1.72 4.44 4 4.9v0.03C6 18.73 8.27 21 11.07 21h8.86C21.8 21 22.74 18.66 21.31 17.38zM18 19c-0.55 0-1-0.45-1-1 0-0.55 0.45-1 1-1s1 0.45 1 1C19 18.55 18.55 19 18 19z"/>
</svg>
