<svg xmlns="http://www.w3.org/2000/svg" width="24" height="24">
  <path fill="none" d="M0 0h24v24H0V0z"/>
  <path d="M19.77 7.23l0.01-0.01-3.72-3.72L15 4.56l2.11 2.11c-0.94 0.36-1.61 1.26-1.61 2.33 0 1.38 1.12 2.5 2.5 2.5 0.36 0 0.69-0.08 1-0.21v7.21c0 0.55-0.45 1-1 1s-1-0.45-1-1V14c0-1.1-0.9-2-2-2h-1V5c0-1.1-0.9-2-2-2H6c-1.1 0-2 0.9-2 2v16h10v-7.5h1.5v5c0 1.38 1.12 2.5 2.5 2.5s2.5-1.12 2.5-2.5V9c0-0.69-0.28-1.32-0.73-1.77zM12 11v8H6V5h6v6z m6-1c-0.55 0-1-0.45-1-1s0.45-1 1-1 1 0.45 1 1-0.45 1-1 1z m-8-4l-4 7.5h2V18l4-7h-2z"/>
</svg>
