<svg xmlns="http://www.w3.org/2000/svg" width="24" height="24">
  <path fill="none" d="M0 0h24v24H0V0z"/>
  <path d="M5 7h14c0.55 0 1-0.45 1-1s-0.45-1-1-1H5c-0.55 0-1 0.45-1 1s0.45 1 1 1z m11.83 4H5c-0.55 0-1 0.45-1 1s0.45 1 1 1h12.13c1 0 1.93 0.67 2.09 1.66 0.21 1.25-0.76 2.34-1.97 2.34H15v-0.79c0-0.45-0.54-0.67-0.85-0.35l-1.79 1.79c-0.2 0.2-0.2 0.51 0 0.71l1.79 1.79c0.32 0.32 0.85 0.09 0.85-0.35V19h2c2.34 0 4.21-2.01 3.98-4.39-0.2-2.08-2.06-3.61-4.15-3.61zM9 17H5c-0.55 0-1 0.45-1 1s0.45 1 1 1h4c0.55 0 1-0.45 1-1s-0.45-1-1-1z"/>
</svg>
