<svg xmlns="http://www.w3.org/2000/svg" width="24" height="24">
  <path fill="none" d="M0 0h24v24H0V0z"/>
  <path d="M6 13c0.55-0.55 0.55-1.44 0-1.99V11c-0.55-0.55-1.45-0.55-2 0s-0.55 1.45 0 2 1.45 0.55 2 0z m14-2c-0.56-0.56-1.45-0.56-2-0.01V11c-0.55 0.55-0.55 1.44 0 1.99V13c0.55 0.55 1.44 0.55 1.99 0H20c0.55-0.55 0.55-1.45 0-2z m-3-4l-4.29-4.29c-0.63-0.63-1.71-0.19-1.71 0.7v6.18L7.11 5.7c-0.39-0.39-1.02-0.39-1.41 0-0.39 0.39-0.39 1.02 0 1.41L10.59 12 5.7 16.89c-0.39 0.39-0.39 1.02 0 1.41 0.39 0.39 1.02 0.39 1.41 0L11 14.41v6.18c0 0.89 1.08 1.34 1.71 0.71L17 17c0.39-0.39 0.39-1.02 0-1.42L13.41 12 17 8.42c0.39-0.39 0.39-1.03 0-1.42z m-2.12 9.29L13 18.17v-3.76l1.88 1.88zM13 9.59V5.83l1.88 1.88L13 9.59z"/>
</svg>
