<svg xmlns="http://www.w3.org/2000/svg" width="24" height="24">
  <path fill="none" d="M0 0h24v24H0V0z"/>
  <path d="M11 19H13V22H11z"/>
  <path d="M2 11H5V13H2z"/>
  <path d="M19 11H22V13H19z"/>
  <path d="M16.66 16.66H18.65V19.66H16.66z" transform="rotate(-45.001 17.655 18.155)"/>
  <path d="M4.85 17.16H7.85V19.15H4.85z" transform="rotate(-45.001 6.345 18.155)"/>
  <path d="M15 8.02V3H9v5.02C7.79 8.94 7 10.37 7 12c0 2.76 2.24 5 5 5s5-2.24 5-5C17 10.37 16.21 8.94 15 8.02zM11 5h2v2.1C12.68 7.04 12.34 7 12 7s-0.68 0.04-1 0.1V5zM12 15c-1.65 0-3-1.35-3-3s1.35-3 3-3c1.65 0 3 1.35 3 3S13.65 15 12 15z"/>
</svg>
