<svg xmlns="http://www.w3.org/2000/svg" width="24" height="24">
  <path fill="none" d="M0 0h24v24H0V0z"/>
  <path d="M4 15h6c0.55 0 1-0.45 1-1s-0.45-1-1-1H4c-0.55 0-1 0.45-1 1s0.45 1 1 1z m0 4h6c0.55 0 1-0.45 1-1s-0.45-1-1-1H4c-0.55 0-1 0.45-1 1s0.45 1 1 1z m0-8h6c0.55 0 1-0.45 1-1s-0.45-1-1-1H4c-0.55 0-1 0.45-1 1s0.45 1 1 1zM3 6c0 0.55 0.45 1 1 1h6c0.55 0 1-0.45 1-1s-0.45-1-1-1H4c-0.55 0-1 0.45-1 1z m11-1h6c0.55 0 1 0.45 1 1v12c0 0.55-0.45 1-1 1h-6c-0.55 0-1-0.45-1-1V6c0-0.55 0.45-1 1-1z"/>
</svg>
