<svg xmlns="http://www.w3.org/2000/svg" width="24" height="24">
  <path fill="none" d="M0 0H24V24H0z"/>
  <circle cx="12.5" cy="4.5" r="2"/>
  <path d="M19.77 17.72L19 10h-3c-1.5-0.02-2.86-0.54-3.76-1.44l-2-1.98C10.08 6.42 9.62 6 8.83 6 8.32 6 7.81 6.2 7.42 6.59l-4.2 4.17 2.08 4.07-3.15 4.05 1.57 1.24 3.68-4.73-0.17-1.36L8 14.75V20h2v-6.12l-2.12-2.12 2.36-2.36c0.94 0.94 1.72 1.82 3.59 2.32L13 20h1.5l0.41-3.5h3.18l0.14 1.22c-0.44 0.26-0.73 0.74-0.73 1.28 0 0.83 0.67 1.5 1.5 1.5s1.5-0.67 1.5-1.5C20.5 18.46 20.21 17.98 19.77 17.72zM15.09 15l0.41-3.5h2l0.41 3.5H15.09z"/>
</svg>
