<svg xmlns="http://www.w3.org/2000/svg" width="24" height="24">
  <g fill="none">
    <path d="M0 0H24V24H0z"/>
    <path d="M0 0H24V24H0z"/>
  </g>
  <path d="M17.5 4.5c-1.95 0-4.05 0.4-5.5 1.5-1.45-1.1-3.55-1.5-5.5-1.5-1.45 0-2.99 0.22-4.28 0.79C1.49 5.62 1 6.33 1 7.14l0 11.28c0 1.3 1.22 2.26 2.48 1.94C4.46 20.11 5.5 20 6.5 20c1.56 0 3.22 0.26 4.56 0.92 0.6 0.3 1.28 0.3 1.87 0 1.34-0.67 3-0.92 4.56-0.92 1 0 2.04 0.11 3.02 0.36 1.26 0.33 2.48-0.63 2.48-1.94l0-11.28c0-0.81-0.49-1.52-1.22-1.85C20.49 4.72 18.95 4.5 17.5 4.5zM21 17.23c0 0.63-0.58 1.09-1.2 0.98-0.75-0.14-1.53-0.2-2.3-0.2-1.7 0-4.15 0.65-5.5 1.5V8c1.35-0.85 3.8-1.5 5.5-1.5 0.92 0 1.83 0.09 2.7 0.28 0.46 0.1 0.8 0.51 0.8 0.98V17.23z"/>
  <path d="M13.98 11.01c-0.32 0-0.61-0.2-0.71-0.52-0.13-0.39 0.09-0.82 0.48-0.94 1.54-0.5 3.53-0.66 5.36-0.45 0.41 0.05 0.71 0.42 0.66 0.83-0.05 0.41-0.42 0.71-0.83 0.66-1.62-0.19-3.39-0.04-4.73 0.39C14.13 10.99 14.05 11.01 13.98 11.01z"/>
  <path d="M13.98 13.67c-0.32 0-0.61-0.2-0.71-0.52-0.13-0.39 0.09-0.82 0.48-0.94 1.53-0.5 3.53-0.66 5.36-0.45 0.41 0.05 0.71 0.42 0.66 0.83-0.05 0.41-0.42 0.71-0.83 0.66-1.62-0.19-3.39-0.04-4.73 0.39C14.13 13.66 14.05 13.67 13.98 13.67z"/>
  <path d="M13.98 16.33c-0.32 0-0.61-0.2-0.71-0.52-0.13-0.39 0.09-0.82 0.48-0.94 1.53-0.5 3.53-0.66 5.36-0.45 0.41 0.05 0.71 0.42 0.66 0.83-0.05 0.41-0.42 0.7-0.83 0.66-1.62-0.19-3.39-0.04-4.73 0.39C14.13 16.32 14.05 16.33 13.98 16.33z"/>
</svg>
