<svg xmlns="http://www.w3.org/2000/svg" width="24" height="24">
  <path fill="none" d="M0 0H24V24H0z"/>
  <path d="M18 9V7h-2V2.84C14.77 2.3 13.42 2 11.99 2 6.47 2 2 6.48 2 12s4.47 10 9.99 10C17.52 22 22 17.52 22 12c0-1.05-0.17-2.05-0.47-3H18zM15.5 8C16.33 8 17 8.67 17 9.5S16.33 11 15.5 11 14 10.33 14 9.5 14.67 8 15.5 8zM8.5 8C9.33 8 10 8.67 10 9.5S9.33 11 8.5 11 7 10.33 7 9.5 7.67 8 8.5 8zM12 17.5c-2.33 0-4.31-1.46-5.11-3.5h10.22C16.31 16.04 14.33 17.5 12 17.5zM22 3h2v2h-2v2h-2V5h-2V3h2V1h2V3z"/>
</svg>
