<svg xmlns="http://www.w3.org/2000/svg" width="24" height="24">
  <g fill="none">
    <path d="M0 0H24V24H0z"/>
    <path d="M0 0H24V24H0z"/>
  </g>
  <path d="M20 4H4C2.9 4 2 4.9 2 6v12c0 1.1 0.9 2 2 2h16c1.1 0 2-0.9 2-2V6C22 4.9 21.1 4 20 4zM11 16.5H8c-0.28 0-0.5-0.22-0.5-0.5v-3c0-0.28 0.22-0.5 0.5-0.5h3c0.28 0 0.5 0.22 0.5 0.5v3C11.5 16.28 11.28 16.5 11 16.5zM11 11.5H8c-0.28 0-0.5-0.22-0.5-0.5V8c0-0.28 0.22-0.5 0.5-0.5h3c0.28 0 0.5 0.22 0.5 0.5v3C11.5 11.28 11.28 11.5 11 11.5zM16 16.5h-3c-0.28 0-0.5-0.22-0.5-0.5v-3c0-0.28 0.22-0.5 0.5-0.5h3c0.28 0 0.5 0.22 0.5 0.5v3C16.5 16.28 16.28 16.5 16 16.5zM16 11.5h-3c-0.28 0-0.5-0.22-0.5-0.5V8c0-0.28 0.22-0.5 0.5-0.5h3c0.28 0 0.5 0.22 0.5 0.5v3C16.5 11.28 16.28 11.5 16 11.5z"/>
</svg>
