<svg xmlns="http://www.w3.org/2000/svg" width="24" height="24">
  <path fill="none" d="M0 0H24V24H0z"/>
  <path d="M12 4c-4.41 0-8 3.59-8 8 0 4.41 3.59 8 8 8s8-3.59 8-8C20 7.59 16.41 4 12 4zM11 10V6h2v4h3l-4 4-4-4H11zM17 17H7v-2h10V17z" opacity=".3"/>
  <path d="M16 10 13 10 13 6 11 6 11 10 8 10 12 14z"/>
  <path d="M7 15H17V17H7z"/>
  <path d="M12 2C6.49 2 2 6.49 2 12s4.49 10 10 10 10-4.49 10-10S17.51 2 12 2zM12 20c-4.41 0-8-3.59-8-8 0-4.41 3.59-8 8-8s8 3.59 8 8C20 16.41 16.41 20 12 20z"/>
</svg>
