<svg xmlns="http://www.w3.org/2000/svg" width="24" height="24">
  <path fill="none" d="M0 0h24v24H0V0z"/>
  <path d="M5 19h14V5H5v14z m4-4h4v-2h-2v-2h2V9H9V7h4c1.1 0 2 0.89 2 2v1.5c0 0.83-0.67 1.5-1.5 1.5 0.83 0 1.5 0.67 1.5 1.5V15c0 1.11-0.9 2-2 2H9v-2z" opacity=".3"/>
  <path d="M19 3H5c-1.1 0-2 0.9-2 2v14c0 1.1 0.9 2 2 2h14c1.1 0 2-0.9 2-2V5c0-1.1-0.9-2-2-2z m0 16H5V5h14v14z m-4-4v-1.5c0-0.83-0.67-1.5-1.5-1.5 0.83 0 1.5-0.67 1.5-1.5V9c0-1.11-0.9-2-2-2H9v2h4v2h-2v2h2v2H9v2h4c1.1 0 2-0.89 2-2z"/>
</svg>
