<svg xmlns="http://www.w3.org/2000/svg" width="24" height="24">
  <path fill="none" d="M0 0h24v24H0V0z"/>
  <path d="M14 1H4c-1.1 0-2 0.9-2 2v18c0 1.1 0.9 2 2 2h10c1.1 0 2-0.9 2-2V3c0-1.1-0.9-2-2-2z m0 19H4V4h10v16z m6.63-11.74c-0.26-0.32-0.74-0.36-1.04-0.06l-0.03 0.03c-0.25 0.25-0.26 0.65-0.05 0.93 1.26 1.64 1.25 3.87-0.02 5.57-0.21 0.28-0.19 0.67 0.05 0.92l0.05 0.05c0.29 0.29 0.76 0.26 1.03-0.05 1.8-2.13 1.8-5.19 0.01-7.39z m-3.21 2.11l-0.06 0.06c-0.2 0.2-0.26 0.5-0.15 0.76 0.21 0.49 0.21 1.03 0 1.52-0.11 0.26-0.05 0.56 0.15 0.76l0.08 0.08c0.32 0.32 0.87 0.25 1.09-0.15 0.49-0.89 0.49-1.94-0.01-2.86-0.22-0.42-0.77-0.5-1.1-0.17z"/>
</svg>
