<svg xmlns="http://www.w3.org/2000/svg" width="24" height="24">
  <path fill="none" d="M0 0h24v24H0V0z"/>
  <path d="M8 7h12c0.55 0 1-0.45 1-1s-0.45-1-1-1H8c-0.55 0-1 0.45-1 1s0.45 1 1 1z m12 10H8c-0.55 0-1 0.45-1 1s0.45 1 1 1h12c0.55 0 1-0.45 1-1s-0.45-1-1-1z m0-6H8c-0.55 0-1 0.45-1 1s0.45 1 1 1h12c0.55 0 1-0.45 1-1s-0.45-1-1-1zM4.5 16h-2c-0.28 0-0.5 0.22-0.5 0.5s0.22 0.5 0.5 0.5H4v0.5h-0.5c-0.28 0-0.5 0.22-0.5 0.5s0.22 0.5 0.5 0.5H4v0.5H2.5c-0.28 0-0.5 0.22-0.5 0.5s0.22 0.5 0.5 0.5h2c0.28 0 0.5-0.22 0.5-0.5v-3c0-0.28-0.22-0.5-0.5-0.5z m-2-11H3v2.5c0 0.28 0.22 0.5 0.5 0.5s0.5-0.22 0.5-0.5v-3c0-0.28-0.22-0.5-0.5-0.5h-1c-0.28 0-0.5 0.22-0.5 0.5s0.22 0.5 0.5 0.5z m2 5h-2c-0.28 0-0.5 0.22-0.5 0.5s0.22 0.5 0.5 0.5h1.3l-1.68 1.96c-0.08 0.09-0.12 0.21-0.12 0.32v0.22c0 0.28 0.22 0.5 0.5 0.5h2c0.28 0 0.5-0.22 0.5-0.5s-0.22-0.5-0.5-0.5H3.2l1.68-1.96c0.08-0.09 0.12-0.21 0.12-0.32v-0.22c0-0.28-0.22-0.5-0.5-0.5z"/>
</svg>
