<svg xmlns="http://www.w3.org/2000/svg" width="24" height="24">
  <g fill="none">
    <path d="M0 0H24V24H0z"/>
    <path d="M0 0H24V24H0z"/>
  </g>
  <path d="M16.24 11.51l1.57-1.57-3.75-3.75-1.57 1.57L8.35 3.63c-0.78-0.78-2.05-0.78-2.83 0l-1.9 1.9c-0.78 0.78-0.78 2.05 0 2.83l4.13 4.13L3.15 17.1C3.05 17.2 3 17.32 3 17.46v3.04C3 20.78 3.22 21 3.5 21h3.04c0.13 0 0.26-0.05 0.35-0.15l4.62-4.62 4.13 4.13c1.32 1.32 2.76 0.07 2.83 0l1.9-1.9c0.78-0.78 0.78-2.05 0-2.83L16.24 11.51zM9.18 11.07L5.04 6.94l1.89-1.9c0 0 0 0 0 0l1.27 1.27L7.73 6.8c-0.39 0.39-0.39 1.02 0 1.41 0.39 0.39 1.02 0.39 1.41 0l0.48-0.48 1.45 1.45L9.18 11.07zM17.06 18.96l-4.13-4.13 1.9-1.9 1.45 1.45-0.48 0.48c-0.39 0.39-0.39 1.02 0 1.41 0.39 0.39 1.02 0.39 1.41 0l0.48-0.48 1.27 1.27L17.06 18.96z"/>
  <path d="M20.71 7.04c0.39-0.39 0.39-1.02 0-1.41l-2.34-2.34c-0.47-0.47-1.12-0.29-1.41 0l-1.83 1.83 3.75 3.75L20.71 7.04z"/>
</svg>
