<svg xmlns="http://www.w3.org/2000/svg" width="24" height="24">
  <path fill="none" d="M0 0h24v24H0V0z"/>
  <path d="M20 15.31l1.9-1.9c0.78-0.78 0.78-2.05 0-2.83L20 8.69V6c0-1.1-0.9-2-2-2h-2.69l-1.9-1.9c-0.78-0.78-2.05-0.78-2.83 0L8.69 4H6c-1.1 0-2 0.9-2 2v2.69l-1.9 1.9c-0.78 0.78-0.78 2.05 0 2.83l1.9 1.9V18c0 1.1 0.9 2 2 2h2.69l1.9 1.9c0.78 0.78 2.05 0.78 2.83 0l1.9-1.9H18c1.1 0 2-0.9 2-2v-2.69z m-8 1.59V7.1c0-0.61 0.55-1.11 1.15-0.99C15.91 6.65 18 9.08 18 12s-2.09 5.35-4.85 5.89c-0.6 0.12-1.15-0.38-1.15-0.99z"/>
</svg>
