<svg xmlns="http://www.w3.org/2000/svg" width="24" height="24">
  <path fill="none" d="M0 0h24v24H0V0z"/>
  <path d="M11 4H4v7l9 9.01L20 13l-9-9zM6.5 8C5.67 8 5 7.33 5 6.5S5.67 5 6.5 5 8 5.67 8 6.5 7.33 8 6.5 8z" opacity=".3"/>
  <path d="M12.41 2.58C12.05 2.22 11.55 2 11 2H4c-1.1 0-2 0.9-2 2v7c0 0.55 0.22 1.05 0.59 1.42l9 9c0.36 0.36 0.86 0.58 1.41 0.58s1.05-0.22 1.41-0.59l7-7c0.37-0.36 0.59-0.86 0.59-1.41s-0.23-1.06-0.59-1.42l-9-9zM13 20.01L4 11V4h7v-0.01l9 9-7 7.02z"/>
  <circle cx="6.5" cy="6.5" r="1.5"/>
</svg>
