<svg xmlns="http://www.w3.org/2000/svg" width="24" height="24">
  <path fill="none" d="M0 0H24V24H0z"/>
  <path d="M14.02 13.97l1.7-2.94c0 0-0.09-0.08-0.23-0.18l-1.47-1.16-0.01 0.02c0.03-0.24 0.05-0.47 0.05-0.71S14.04 8.53 14 8.31l0.01 0.01 1.71-1.34-1.7-2.95-2.01 0.81v0.01c-0.37-0.28-0.77-0.52-1.2-0.7h0.01L10.52 2H7.11L6.8 4.15h0.01c-0.43 0.18-0.83 0.42-1.2 0.7V4.84L3.6 4.03 1.9 6.98l1.7 1.34 0.01-0.01C3.58 8.53 3.56 8.76 3.56 9s0.02 0.47 0.05 0.71L3.6 9.69l-1.47 1.16C2 10.95 1.9 11.03 1.9 11.03l1.7 2.94 2.02-0.8L5.6 13.14c0.37 0.29 0.77 0.53 1.21 0.71H6.8L7.11 16h3.4c0 0 0.02-0.13 0.04-0.3l0.27-1.85h-0.01c0.44-0.18 0.84-0.42 1.21-0.71L12 13.17 14.02 13.97zM8.81 11c-1.1 0-2-0.9-2-2s0.9-2 2-2 2 0.9 2 2S9.91 11 8.81 11z"/>
  <path d="M20.98 17.94l-0.01 0.01C20.99 17.8 21 17.65 21 17.5c0-0.15-0.01-0.3-0.04-0.44l0.01 0.01 1.1-0.86-1.09-1.9-1.29 0.52v0.01c-0.24-0.18-0.49-0.33-0.77-0.45h0.01L18.73 13h-2.19l-0.2 1.38h0.01c-0.28 0.12-0.53 0.27-0.77 0.45v-0.01l-1.29-0.52-1.09 1.9 1.09 0.86 0.01-0.01c-0.02 0.14-0.03 0.29-0.03 0.44 0 0.15 0.01 0.3 0.03 0.46l-0.01-0.01-0.94 0.75c-0.08 0.06-0.15 0.12-0.15 0.12l1.09 1.89 1.3-0.51-0.01-0.02c0.24 0.19 0.5 0.34 0.78 0.46h-0.01l0.2 1.38h2.19c0 0 0.01-0.08 0.03-0.19l0.17-1.19h-0.01c0.28-0.12 0.54-0.27 0.78-0.46l-0.01 0.02 1.3 0.51 1.09-1.89c0 0-0.06-0.05-0.15-0.12L20.98 17.94zM17.63 18.79c-0.71 0-1.29-0.58-1.29-1.29s0.58-1.29 1.29-1.29 1.29 0.58 1.29 1.29S18.34 18.79 17.63 18.79z"/>
</svg>
