<svg xmlns="http://www.w3.org/2000/svg" width="24" height="24">
  <path fill="none" d="M0 0H24V24H0z"/>
  <path d="M7.5 11C9.43 11 11 9.43 11 7.5S9.43 4 7.5 4 4 5.57 4 7.5 5.57 11 7.5 11zM7.5 6C8.33 6 9 6.67 9 7.5S8.33 9 7.5 9 6 8.33 6 7.5 6.67 6 7.5 6z"/>
  <path d="M1.69 11H22.32V13H1.69z" transform="rotate(-45.001 12 12)"/>
  <path d="M16.5 13c-1.93 0-3.5 1.57-3.5 3.5s1.57 3.5 3.5 3.5 3.5-1.57 3.5-3.5S18.43 13 16.5 13zM16.5 18c-0.83 0-1.5-0.67-1.5-1.5s0.67-1.5 1.5-1.5 1.5 0.67 1.5 1.5S17.33 18 16.5 18z"/>
</svg>
