<svg xmlns="http://www.w3.org/2000/svg" width="24" height="24">
  <path fill="none" d="M0 0H24V24H0z"/>
  <path d="M21.5 9l-2.25-4h-3.31l-1.69-3h-4.5L8.06 5H4.75L2.5 9l1.69 3L2.5 15l2.25 4h3.31l1.69 3h4.5l1.69-3h3.31l2.25-4-1.69-3L21.5 9zM19.21 9l-1.12 2h-2.14l-1.12-2 1.12-2h2.14L19.21 9zM10.94 14l-1.12-2 1.12-2h2.12l1.12 2-1.12 2H10.94zM13.08 4l1.12 1.98L13.06 8h-2.12L9.8 5.98 10.92 4H13.08zM5.92 7h2.14l1.12 2-1.12 2H5.92L4.79 9 5.92 7zM4.79 15l1.12-2h2.14l1.12 2-1.12 2H5.92L4.79 15zM10.92 20L9.8 18.02 10.94 16h2.12l1.13 2.02L13.08 20H10.92zM18.08 17h-2.14l-1.12-2 1.12-2h2.14l1.12 2L18.08 17z"/>
</svg>
