<svg xmlns="http://www.w3.org/2000/svg" width="24" height="24">
  <path fill="none" d="M0 0H24V24H0z"/>
  <path d="M7.66 5.66H9.67V15.68H7.66z" opacity=".3" transform="rotate(-45.001 8.668 10.668)"/>
  <circle cx="18.5" cy="5.5" r="1.5" opacity=".3"/>
  <path d="M15.04 12.79l-8.5-8.5C6.35 4.1 6.09 4 5.83 4S5.32 4.1 5.13 4.29L2.29 7.13c-0.39 0.39-0.39 1.03 0 1.42l8.5 8.5c0.2 0.2 0.45 0.29 0.71 0.29 0.26 0 0.51-0.1 0.71-0.29l2.83-2.83C15.43 13.82 15.43 13.18 15.04 12.79zM11.5 14.92L4.41 7.83l1.42-1.42 7.09 7.09L11.5 14.92z"/>
  <path d="M16.17 16.17H18.17V22.17H16.17z" transform="rotate(-45.001 17.17 19.17)"/>
  <path d="M18.5 2C16.57 2 15 3.57 15 5.5 15 7.43 16.57 9 18.5 9S22 7.43 22 5.5C22 3.57 20.43 2 18.5 2zM18.5 7C17.67 7 17 6.33 17 5.5S17.67 4 18.5 4 20 4.67 20 5.5 19.33 7 18.5 7z"/>
</svg>
