<svg xmlns="http://www.w3.org/2000/svg" width="24" height="24">
  <path fill="none" d="M0 0h24v24H0V0z"/>
  <path d="M19 3H5c-1.1 0-2 0.9-2 2v14c0 1.1 0.9 2 2 2h14c1.1 0 2-0.9 2-2V5c0-1.1-0.9-2-2-2z m-7 15.5h-1.5V14h-1v3H8v-3H7v4.5H5.5v-5c0-0.55 0.45-1 1-1H11c0.55 0 1 0.45 1 1v5z m3.5 0H14v-6h3.5c0.55 0 1 0.45 1 1V16c0 0.55-0.45 1-1 1h-2v1.5zM10 5.5v6H8.5V7H7V5.5h3z m6.5 5c0 0.55-0.45 1-1 1H13c-0.55 0-1-0.45-1-1v-4c0-0.55 0.45-1 1-1h2.5c0.55 0 1 0.45 1 1v4z m-3 0H15V9h-1.5v1.5z m0-2.5H15V6.5h-1.5V8z m2 6H17v1.5h-1.5z"/>
</svg>
