<svg xmlns="http://www.w3.org/2000/svg" width="24" height="24">
  <g fill="none">
    <path d="M0 0H24V24H0z"/>
    <path d="M0 0H24V24H0z"/>
  </g>
  <path d="M12 2C6.48 2 2 6.48 2 12c0 5.52 4.48 10 10 10s10-4.48 10-10C22 6.48 17.52 2 12 2zM19.46 9.12l-2.78 1.15c-0.51-1.36-1.58-2.44-2.95-2.94l1.15-2.78C16.98 5.35 18.65 7.02 19.46 9.12zM12 15c-1.66 0-3-1.34-3-3s1.34-3 3-3 3 1.34 3 3S13.66 15 12 15zM9.13 4.54l1.17 2.78c-1.38 0.5-2.47 1.59-2.98 2.97L4.54 9.13C5.35 7.02 7.02 5.35 9.13 4.54zM4.54 14.87l2.78-1.15c0.51 1.38 1.59 2.46 2.97 2.96l-1.17 2.78C7.02 18.65 5.35 16.98 4.54 14.87zM14.88 19.46l-1.15-2.78c1.37-0.51 2.45-1.59 2.95-2.97l2.78 1.17C18.65 16.98 16.98 18.65 14.88 19.46z"/>
</svg>
