<svg xmlns="http://www.w3.org/2000/svg" width="24" height="24">
  <path fill="none" d="M0 0H24V24H0z"/>
  <path d="M18.49 9.88l0.08-0.85 0.18-1.95-1.9-0.43-0.84-0.19-0.44-0.74-0.99-1.68L12.79 4.8 12 5.14 11.21 4.8 9.42 4.03 8.43 5.71 7.99 6.45 7.15 6.64l-1.9 0.43 0.18 1.94 0.08 0.85-0.56 0.65-1.29 1.48 1.29 1.47 0.56 0.65-0.08 0.85-0.18 1.96 1.9 0.43 0.84 0.19 0.44 0.74 0.99 1.67 1.78-0.77L12 18.85l0.79 0.34 1.78 0.77 0.99-1.68 0.44-0.74 0.84-0.19 1.9-0.43-0.18-1.95-0.08-0.85 0.56-0.65 1.29-1.47-1.29-1.47L18.49 9.88zM10.09 16.72l-3.8-3.81 1.48-1.48 2.32 2.33 5.85-5.87 1.48 1.48L10.09 16.72z" opacity=".3"/>
  <path d="M23 11.99l-2.44-2.79 0.34-3.69-3.61-0.82L15.4 1.5 12 2.96 8.6 1.5 6.71 4.69 3.1 5.5 3.44 9.2 1 11.99l2.44 2.79-0.34 3.7 3.61 0.82L8.6 22.5l3.4-1.47 3.4 1.46 1.89-3.19 3.61-0.82-0.34-3.69L23 11.99zM19.05 13.47l-0.56 0.65 0.08 0.85 0.18 1.95-1.9 0.43-0.84 0.19-0.44 0.74-0.99 1.68-1.78-0.77L12 18.85l-0.79 0.34-1.78 0.77-0.99-1.67-0.44-0.74-0.84-0.19-1.9-0.43 0.18-1.96 0.08-0.85-0.56-0.65-1.29-1.47 1.29-1.48 0.56-0.65L5.43 9.01 5.25 7.07l1.9-0.43 0.84-0.19 0.44-0.74 0.99-1.68 1.78 0.77L12 5.14l0.79-0.34 1.78-0.77 0.99 1.68 0.44 0.74 0.84 0.19 1.9 0.43-0.18 1.95-0.08 0.85 0.56 0.65 1.29 1.47L19.05 13.47z"/>
  <path d="M10.09 13.75 7.77 11.42 6.29 12.91 10.09 16.72 17.43 9.36 15.95 7.87z"/>
</svg>
