<svg xmlns="http://www.w3.org/2000/svg" width="24" height="24">
  <path fill="none" d="M0 0h24v24H0V0z"/>
  <path d="M4 17h14v-5h-1H4V17zM15.5 13c0.83 0 1.5 0.67 1.5 1.5S16.33 16 15.5 16 14 15.33 14 14.5 14.67 13 15.5 13zM6.5 13C7.33 13 8 13.67 8 14.5S7.33 16 6.5 16 5 15.33 5 14.5 5.67 13 6.5 13z" opacity=".3"/>
  <path d="M18 17H4v-5h13c-1.1 0-2-0.9-2-2H4.81l1.04-3H15V5H5.5C4.84 5 4.29 5.42 4.08 6.01L2 12v8c0 0.55 0.45 1 1 1h1c0.55 0 1-0.45 1-1v-1h12v1c0 0.55 0.45 1 1 1h1c0.55 0 1-0.45 1-1v-8h-2V17z"/>
  <circle cx="6.5" cy="14.5" r="1.5"/>
  <circle cx="15.5" cy="14.5" r="1.5"/>
  <path d="M22 3.85L19.15 1h-0.5v3.79l-2.3-2.29-0.7 0.7L18.44 6l-2.79 2.79 0.7 0.71 2.3-2.3V11h0.5L22 8.14 19.85 6 22 3.85zM19.65 2.91l0.94 0.94-0.94 0.94V2.91zM20.59 8.14l-0.94 0.94V7.2L20.59 8.14z"/>
</svg>
