<svg xmlns="http://www.w3.org/2000/svg" width="24" height="24">
  <path d="M19 4H5c-1.11 0-2 0.9-2 2v12c0 1.1 0.89 2 2 2h14c1.1 0 2-0.9 2-2V6c0-1.1-0.9-2-2-2z m-8.75 11c-0.41 0-0.75-0.34-0.75-0.75V13h-2v1.25c0 0.41-0.34 0.75-0.75 0.75S6 14.66 6 14.25v-4.5c0-0.41 0.34-0.75 0.75-0.75s0.75 0.34 0.75 0.75v1.75h2V9.75c0-0.41 0.34-0.75 0.75-0.75s0.75 0.34 0.75 0.75v4.5c0 0.41-0.34 0.75-0.75 0.75zM18 14c0 0.55-0.45 1-1 1h-0.75v0.75c0 0.41-0.34 0.75-0.75 0.75s-0.75-0.34-0.75-0.75V15H14c-0.55 0-1-0.45-1-1v-4c0-0.55 0.45-1 1-1h3c0.55 0 1 0.45 1 1v4z m-3.5-0.5h2v-3h-2v3z"/>
</svg>
