<svg xmlns="http://www.w3.org/2000/svg" width="24" height="24">
  <path fill="none" d="M0 0H24V24H0z"/>
  <path d="M19.5 6.5l-1.91 1.91c-0.38 0.38-0.59 0.89-0.59 1.42V11h-1V7c0-1.66-1.34-3-3-3H8v5H3c-1.1 0-2 0.9-2 2v5.85c0 1.58 1.16 3.01 2.74 3.14C5.09442958430834 20.104540300721816 6.355685124883667 19.291092101914273 6.8100000000000005 18.009999999999998l4.37-0.01C11.670284418967137 19.409510528914314 13.127861722946355 20.23874805669135 14.59 19.939999999999998 15.785064012371137 19.69276561294915 16.712969243854104 18.74906624986647 16.94 17.55c0.2-1.11-0.22-2.11-0.95-2.77V13h1c0 1.1 0.9 2 2 2h5L19.5 6.5zM4 18c-0.55 0-1-0.45-1-1s0.45-1 1-1 1 0.45 1 1-0.45 1-1 1z m6-12h3c0.55 0 1 0.45 1 1v4h-4V6z m4 12c-0.55 0-1-0.45-1-1s0.45-1 1-1 1 0.45 1 1-0.45 1-1 1z"/>
</svg>
