<svg xmlns="http://www.w3.org/2000/svg" width="24" height="24">
  <path fill="none" d="M0 0H24V24H0z"/>
  <path d="M6 5H14V7H6z" opacity=".3"/>
  <path d="M6 9H14V11H6z" opacity=".3"/>
  <path d="M16 17H18V19H16z" opacity=".3"/>
  <path d="M6 13H14V15H6z" opacity=".3"/>
  <path d="M6 17H14V19H6z" opacity=".3"/>
  <path d="M16 13H18V15H16z" opacity=".3"/>
  <path d="M16 5H18V7H16z" opacity=".3"/>
  <path d="M16 9H18V11H16z" opacity=".3"/>
  <path d="M20 19V3H4v16H2v2h11.25c0 0.97 0.78 1.75 1.75 1.75s1.75-0.78 1.75-1.75H22v-2H20zM14 19H6v-2h8V19zM14 15H6v-2h8V15zM14 11H6V9h8V11zM14 7H6V5h8V7zM18 19h-2v-2h2V19zM18 15h-2v-2h2V15zM18 11h-2V9h2V11zM18 7h-2V5h2V7z"/>
</svg>
