<svg xmlns="http://www.w3.org/2000/svg" width="24" height="24">
  <path fill="none" d="M0 0H24V24H0z"/>
  <path d="M12.75 4.54H13.75V9.54H12.75z" opacity=".3" transform="rotate(-19.999 13.249 7.04)"/>
  <circle cx="10.5" cy="8" r="1" opacity=".3"/>
  <path d="M7 19c-1.1 0-2 0.9-2 2h14c0-1.1-0.9-2-2-2h-4v-2h3c1.1 0 2-0.9 2-2h-8c-1.66 0-3-1.34-3-3 0-1.09 0.59-2.04 1.47-2.57 0.41 0.59 1.06 1 1.83 1.06 0.7 0.06 1.36-0.19 1.85-0.62l0.59 1.61 0.94-0.34 0.34 0.94 1.88-0.68-0.34-0.94 0.94-0.34L13.76 2.6l-0.94 0.34L12.48 2 10.6 2.68l0.34 0.94L10 3.97l0.56 1.55C9.39 5.48 8.37 6.27 8.08 7.38 6.27 8.14 5 9.92 5 12c0 2.76 2.24 5 5 5v2H7zM12.86 4.52l1.71 4.7-0.94 0.34-1.71-4.7L12.86 4.52zM10.5 7c0.55 0 1 0.45 1 1 0 0.55-0.45 1-1 1-0.55 0-1-0.45-1-1C9.5 7.45 9.95 7 10.5 7z"/>
</svg>
