<svg xmlns="http://www.w3.org/2000/svg" width="24" height="24">
  <path fill="none" d="M0 0H24V24H0z"/>
  <path d="M16.24 11.51l1.57-1.57-3.75-3.75-1.57 1.57L8.35 3.63c-0.78-0.78-2.05-0.78-2.83 0l-1.9 1.9c-0.78 0.78-0.78 2.05 0 2.83l4.13 4.13L3 17.25V21h3.75l4.76-4.76 4.13 4.13c0.95 0.95 2.23 0.6 2.83 0l1.9-1.9c0.78-0.78 0.78-2.05 0-2.83L16.24 11.51zM9.18 11.07L5.04 6.94l1.89-1.9c0 0 0 0 0 0l1.27 1.27L7.02 7.5l1.41 1.41 1.19-1.19 1.45 1.45L9.18 11.07zM17.06 18.96l-4.13-4.13 1.9-1.9 1.45 1.45-1.19 1.19 1.41 1.41 1.19-1.19 1.27 1.27L17.06 18.96z"/>
  <path d="M20.71 7.04c0.39-0.39 0.39-1.02 0-1.41l-2.34-2.34c-0.47-0.47-1.12-0.29-1.41 0l-1.83 1.83 3.75 3.75L20.71 7.04z"/>
</svg>
