<svg xmlns="http://www.w3.org/2000/svg" width="24" height="24">
  <path fill="none" d="M0 0h24v24H0V0z"/>
  <path d="M5.12 12l-0.12 0.34V17h14v-4.66l-0.12-0.34H5.12z m2.38 4c-0.83 0-1.5-0.67-1.5-1.5S6.67 13 7.5 13s1.5 0.67 1.5 1.5S8.33 16 7.5 16z m9 0c-0.83 0-1.5-0.67-1.5-1.5s0.67-1.5 1.5-1.5 1.5 0.67 1.5 1.5-0.67 1.5-1.5 1.5z" opacity=".3"/>
  <path d="M17.5 5H15V3H9v2H6.5c-0.66 0-1.21 0.42-1.42 1.01L3 12v8c0 0.55 0.45 1 1 1h1c0.55 0 1-0.45 1-1v-1h12v1c0 0.55 0.45 1 1 1h1c0.55 0 1-0.45 1-1v-8l-2.08-5.99C18.72 5.42 18.16 5 17.5 5zM6.85 7h10.29l1.04 3H5.81l1.04-3zM19 17H5v-4.66l0.12-0.34h13.77l0.11 0.34V17z"/>
  <circle cx="7.5" cy="14.5" r="1.5"/>
  <circle cx="16.5" cy="14.5" r="1.5"/>
</svg>
