<svg xmlns="http://www.w3.org/2000/svg" width="24" height="24">
  <path fill="none" d="M0 0H24V24H0z"/>
  <path d="M12 4c-4.42 0-8 3.58-8 8 0 4.42 3.58 8 8 8s8-3.58 8-8C20 7.58 16.42 4 12 4zM7 13.5c-0.83 0-1.5-0.67-1.5-1.5 0-0.83 0.67-1.5 1.5-1.5s1.5 0.67 1.5 1.5C8.5 12.83 7.83 13.5 7 13.5zM12 13.5c-0.83 0-1.5-0.67-1.5-1.5 0-0.83 0.67-1.5 1.5-1.5s1.5 0.67 1.5 1.5C13.5 12.83 12.83 13.5 12 13.5zM17 13.5c-0.83 0-1.5-0.67-1.5-1.5 0-0.83 0.67-1.5 1.5-1.5s1.5 0.67 1.5 1.5C18.5 12.83 17.83 13.5 17 13.5z" opacity=".3"/>
  <path d="M12 2C6.48 2 2 6.48 2 12c0 5.52 4.48 10 10 10s10-4.48 10-10C22 6.48 17.52 2 12 2zM12 20c-4.42 0-8-3.58-8-8 0-4.42 3.58-8 8-8s8 3.58 8 8C20 16.42 16.42 20 12 20z"/>
  <circle cx="7" cy="12" r="1.5"/>
  <circle cx="12" cy="12" r="1.5"/>
  <circle cx="17" cy="12" r="1.5"/>
</svg>
