<svg xmlns="http://www.w3.org/2000/svg" width="24" height="24">
  <path fill="none" d="M0 0h24v24H0z"/>
  <path d="M20 1v3h3v2h-3v3h-2V6h-3V4h3V1h2z m-8 12c-1.1 0-2-0.9-2-2s0.9-2 2-2 2 0.9 2 2-0.9 2-2 2z m1-9.94v2.02C12.669211238013729 5.027730134188356 12.334891586287183 5.000984562050233 11.999999999999998 5.000000000000001c-3.35 0-6 2.57-6 6.2 0 2.34 1.95 5.44 6 9.14 4.05-3.7 6-6.79 6-9.14V11h2v0.2c0 3.32-2.67 7.25-8 11.8-5.33-4.55-8-8.48-8-11.8C4 6.22 7.8 3 12 3c0.34 0 0.67 0.02 1 0.06z"/>
</svg>
