<svg xmlns="http://www.w3.org/2000/svg" width="24" height="24">
  <path fill="none" d="M0 0h24v24H0V0z"/>
  <path d="M4 17.17l0.59-0.59 0.58-0.58H20V4H4v13.17zM18 14h-7.5l2-2H18v2zM6 11.53l5.88-5.88c0.2-0.2 0.51-0.2 0.71 0l1.77 1.77c0.2 0.2 0.2 0.51 0 0.71L8.47 14H6v-2.47z" opacity=".3"/>
  <path d="M20 2H4c-1.1 0-1.99 0.9-1.99 2L2 22l4-4h14c1.1 0 2-0.9 2-2V4c0-1.1-0.9-2-2-2z m0 14H5.17l-0.59 0.59-0.58 0.58V4h16v12z m-9.5-2H18v-2h-5.5z m3.86-5.87c0.2-0.2 0.2-0.51 0-0.71l-1.77-1.77c-0.2-0.2-0.51-0.2-0.71 0L6 11.53V14h2.47l5.89-5.87z"/>
</svg>
