<svg xmlns="http://www.w3.org/2000/svg" width="24" height="24">
  <path fill="none" d="M0 0h24v24H0z"/>
  <path d="M20.38 8.57l-1.23 1.85C20.354900009397998 12.823143035558216 20.27225077544334 15.67078482363243 18.93 18H5.07C3.306496692429633 14.940690959162332 3.7573839889835163 11.087014045276371 6.179478429777942 8.517427649952122 8.601572870572367 5.947841254627875 12.421904697881743 5.270205777355384 15.580000000000002 6.850000000000001l1.85-1.23C13.553807761891314 3.1344368274585026 8.481394833923945 3.61705653352225 5.143492739112606 6.7890117912335946 1.8055906443012688 9.960967048944937 1.0651576178177642 15.00220237630113 3.3500000000000014 19 3.7051045908630895 19.61508907194858 4.359777880393744 19.99571307748966 5.069999999999999 20h13.85C19.637369516875452 20.002848012682946 20.301318068259008 19.621268385451014 20.66 19 22.538643807174495 15.745670005824865 22.434347341330962 11.71287332654138 20.39 8.560000000000002z"/>
  <path d="M10.59 15.41C10.965136514284534 15.78555408606018 11.474181503801864 15.996573312831543 12.004999999999999 15.996573312831543 12.535818496198134 15.996573312831543 13.044863485715464 15.78555408606018 13.42 15.41l5.66-8.49-8.49 5.66C10.214445913939816 12.955136514284538 10.003426687168455 13.464181503801866 10.003426687168455 13.995000000000001 10.003426687168455 14.525818496198138 10.214445913939818 15.034863485715466 10.589999999999998 15.410000000000002z"/>
</svg>
