<svg xmlns="http://www.w3.org/2000/svg" width="24" height="24">
  <path fill="none" d="M0 0h24v24H0z"/>
  <path d="M2 5c0.55 0 1 0.45 1 1v12c0 0.55-0.45 1-1 1s-1-0.45-1-1V6c0-0.55 0.45-1 1-1z m4 0c0.55 0 1 0.45 1 1v12c0 0.55-0.45 1-1 1s-1-0.45-1-1V6c0-0.55 0.45-1 1-1z m16 0H10c-0.55 0-1 0.45-1 1v12c0 0.55 0.45 1 1 1h12c0.55 0 1-0.45 1-1V6c0-0.55-0.45-1-1-1zM11.64 16.19l1.47-1.86c0.2-0.25 0.57-0.25 0.78-0.01l1.4 1.68 2.1-2.71c0.2-0.26 0.59-0.26 0.79 0l2.21 2.9c0.25 0.33 0.02 0.8-0.4 0.8h-7.96c-0.41 0.01-0.65-0.47-0.39-0.8z"/>
</svg>
