<svg xmlns="http://www.w3.org/2000/svg" width="24" height="24">
  <g fill="none">
    <path d="M0 0H24V24H0z"/>
    <path d="M0 0H24V24H0z"/>
  </g>
  <path d="M11.65 3.46c0.27-0.71-0.36-1.45-1.12-1.34-1.48 0.21-2.85 0.76-4.04 1.54l4.59 4.59c-0.2-1.56-0.04-3.2 0.57-4.79z m-9.55 0.05c-0.39 0.39-0.39 1.02 0 1.41l1.56 1.56c-1.4 2.11-2.02 4.77-1.46 7.56 0.79 3.94 3.99 7.07 7.94 7.78 2.74 0.49 5.3-0.15 7.35-1.51l1.57 1.57c0.39 0.39 1.02 0.39 1.41 0 0.39-0.39 0.39-1.02 0-1.41L3.51 3.51c-0.39-0.39-1.02-0.39-1.41 0z"/>
</svg>
