<svg xmlns="http://www.w3.org/2000/svg" width="24" height="24">
  <path fill="none" d="M0 0h24v24H0V0z"/>
  <path d="M12 4c-3.51 0-4.96 0.48-5.57 1h11.23c-0.54-0.54-1.95-1-5.66-1zM7.5 17h9c0.83 0 1.5-0.67 1.5-1.5V12H6v3.5c0 0.83 0.67 1.5 1.5 1.5z m8-4c0.83 0 1.5 0.67 1.5 1.5s-0.67 1.5-1.5 1.5-1.5-0.67-1.5-1.5 0.67-1.5 1.5-1.5z m-7 0c0.83 0 1.5 0.67 1.5 1.5S9.33 16 8.5 16 7 15.33 7 14.5 7.67 13 8.5 13z" opacity=".3"/>
  <path d="M4 6v9.5C4 17.43 5.57 19 7.5 19L6 20.5v0.5h12v-0.5L16.5 19c1.93 0 3.5-1.57 3.5-3.5V6c0-3.5-3.58-4-8-4-4 0-8 0.5-8 4z m14 4h-5V7h5v3z m-6-6c3.71 0 5.12 0.46 5.66 1H6.43c0.61-0.52 2.06-1 5.57-1zM6 7h5v3H6V7z m0 5h12v3.5c0 0.83-0.67 1.5-1.5 1.5h-9c-0.83 0-1.5-0.67-1.5-1.5V12z"/>
  <circle cx="8.5" cy="14.5" r="1.5"/>
  <circle cx="15.5" cy="14.5" r="1.5"/>
</svg>
