<svg xmlns="http://www.w3.org/2000/svg" width="24" height="24">
  <path fill="none" d="M0 0h24v24H0V0z"/>
  <path d="M4 6H8V11H4z" opacity=".3"/>
  <path d="M4 13H8V18H4z" opacity=".3"/>
  <path d="M10 13H14V18H10z" opacity=".3"/>
  <path d="M16 13H20V18H16z" opacity=".3"/>
  <path d="M16 6H20V11H16z" opacity=".3"/>
  <path d="M10 6H14V11H10z" opacity=".3"/>
  <path d="M20 4H4C2.9 4 2 4.9 2 6v12c0 1.1 0.9 2 2 2h16c1.1 0 2-0.9 2-2V6C22 4.9 21.1 4 20 4zM8 18H4v-5h4V18zM8 11H4V6h4V11zM14 18h-4v-5h4V18zM14 11h-4V6h4V11zM20 18h-4v-5h4V18zM20 11h-4V6h4V11z"/>
</svg>
