<svg xmlns="http://www.w3.org/2000/svg" width="24" height="24">
  <path fill="none" d="M0 0h24v24H0V0z"/>
  <path d="M7 5h10v1c0 0.55 0.45 1 1 1s1-0.45 1-1V3c0-1.1-0.9-1.99-2-1.99L7 1c-1.1 0-2 0.9-2 2v3c0 0.55 0.45 1 1 1s1-0.45 1-1V5z m9.12 10.88l3.17-3.17c0.39-0.39 0.39-1.02 0-1.41l-3.17-3.17c-0.39-0.39-1.03-0.39-1.42 0-0.39 0.39-0.39 1.02 0 1.41L17.17 12l-2.47 2.47c-0.39 0.39-0.39 1.02 0 1.41 0.39 0.39 1.03 0.39 1.42 0z m-6.83-1.42L6.83 12l2.46-2.46c0.39-0.39 0.39-1.02 0-1.41-0.39-0.39-1.03-0.39-1.42 0L4.7 11.3c-0.39 0.39-0.39 1.02 0 1.41l3.17 3.17c0.39 0.39 1.03 0.39 1.42 0 0.4-0.39 0.39-1.03 0-1.42zM17 19H7v-1c0-0.55-0.45-1-1-1s-1 0.45-1 1v3c0 1.1 0.9 2 2 2h10c1.1 0 2-0.9 2-2v-3c0-0.55-0.45-1-1-1s-1 0.45-1 1v1z"/>
</svg>
