<svg xmlns="http://www.w3.org/2000/svg" width="24" height="24">
  <path fill="none" d="M0 0h24v24H0z"/>
  <path d="M12 4H5C3.34 4 2 5.34 2 7v8c0 1.66 1.34 3 3 3l-1 1v1h1l2-2.03L9 18v-5H4V5.98L13 6v2h2V7c0-1.66-1.34-3-3-3zM5 14c0.55 0 1 0.45 1 1s-0.45 1-1 1-1-0.45-1-1 0.45-1 1-1z m15.57-4.34c-0.14-0.4-0.52-0.66-0.97-0.66h-7.19c-0.46 0-0.83 0.26-0.98 0.66L10 13.77l0.01 5.51c0 0.38 0.31 0.72 0.69 0.72h0.62c0.38 0 0.68-0.38 0.68-0.76V18h8v1.24c0 0.38 0.31 0.76 0.69 0.76h0.61c0.38 0 0.69-0.34 0.69-0.72l0.01-1.37v-4.14l-1.43-4.11z m-8.16 0.34h7.19l1.03 3h-9.25l1.03-3zM12 16c-0.55 0-1-0.45-1-1s0.45-1 1-1 1 0.45 1 1-0.45 1-1 1z m8 0c-0.55 0-1-0.45-1-1s0.45-1 1-1 1 0.45 1 1-0.45 1-1 1z"/>
</svg>
