<svg xmlns="http://www.w3.org/2000/svg" width="24" height="24">
  <path fill="none" d="M0 0H24V24H0z"/>
  <path d="M15.91 9.28 14.61 7.98 5 17.59 5 19 6.41 19 16.02 9.39z" opacity=".3"/>
  <path d="M10.83 8.93 9.63 7.73 8.44 8.92 7.02 7.5 8.21 6.32 6.94 5.04 6.94 5.04 5.04 6.94 8.93 10.83z" opacity=".3"/>
  <path d="M16.27 14.38 15.07 13.17 13.17 15.07 17.06 18.96 18.96 17.06 17.69 15.79 16.5 16.98 15.08 15.57z" opacity=".3"/>
  <path d="M16.44 5.56H18.44V7.56H16.44z" opacity=".3" transform="rotate(-45.001 17.435 6.565)"/>
  <path d="M20.97 5.86l-2.83-2.83c-0.39-0.39-1.02-0.39-1.41 0l-4.49 4.49L8.35 3.63c-0.78-0.78-2.05-0.78-2.83 0l-1.9 1.9c-0.78 0.78-0.78 2.05 0 2.83l3.89 3.89L3 16.76V21h4.24l4.52-4.52 3.89 3.89c0.95 0.95 2.23 0.6 2.83 0l1.9-1.9c0.78-0.78 0.78-2.05 0-2.83l-3.89-3.89 4.49-4.49C21.36 6.88 21.36 6.25 20.97 5.86zM5.04 6.94l1.89-1.9c0 0 0 0 0 0l1.27 1.27L7.02 7.5l1.41 1.41 1.19-1.19 1.2 1.2-1.9 1.9L5.04 6.94zM6.41 19H5v-1.41l9.61-9.61 1.3 1.3 0.11 0.11L6.41 19zM16.5 16.98l1.19-1.19 1.27 1.27-1.9 1.9-3.89-3.89 1.9-1.9 1.2 1.2-1.19 1.19L16.5 16.98zM17.44 7.98l-1.41-1.41 1.41-1.41 1.41 1.41L17.44 7.98z"/>
</svg>
