<svg xmlns="http://www.w3.org/2000/svg" width="24" height="24">
  <path fill="none" d="M0 0h24v24H0V0z"/>
  <path d="M4.34 2.93L2.93 4.34 7.29 8.7 7 9H3v6h4l5 5v-6.59l4.18 4.18c-0.65 0.49-1.38 0.88-2.18 1.11v2.06c1.34-0.3 2.57-0.92 3.61-1.75l2.05 2.05 1.41-1.41L4.34 2.93zM19 12c0 0.82-0.15 1.61-0.41 2.34l1.53 1.53c0.56-1.17 0.88-2.48 0.88-3.87 0-4.28-2.99-7.86-7-8.77v2.06c2.89 0.86 5 3.54 5 6.71z m-7-8l-1.88 1.88L12 7.76z m4.5 8c0-1.77-1.02-3.29-2.5-4.03v1.79l2.48 2.48c0.01-0.08 0.02-0.16 0.02-0.24z"/>
</svg>
