<svg xmlns="http://www.w3.org/2000/svg" width="24" height="24">
  <path fill="none" d="M0 0H24V24H0z"/>
  <path d="M19.17 12l-3.88-3.88c-0.39-0.39-0.39-1.02 0-1.41l0 0c0.39-0.39 1.02-0.39 1.41 0l4.59 4.59c0.39 0.39 0.39 1.02 0 1.41l-2.88 2.88L17 14.17 19.17 12zM2.1 4.93l3.49 3.49-2.88 2.88c-0.39 0.39-0.39 1.02 0 1.41l4.59 4.59c0.39 0.39 1.02 0.39 1.41 0l0 0c0.39-0.39 0.39-1.02 0-1.41L4.83 12 7 9.83 19.07 21.9c0.39 0.39 1.02 0.39 1.41 0l0 0c0.39-0.39 0.39-1.02 0-1.41L3.51 3.51c-0.39-0.39-1.02-0.39-1.41 0l0 0C1.71 3.91 1.71 4.54 2.1 4.93z"/>
</svg>
