<svg xmlns="http://www.w3.org/2000/svg" width="24" height="24">
  <path fill="none" d="M0 0H24V24H0z"/>
  <path d="M13 18 11 18 11 15 9 15 9 18 7 18 7 13.33 10 10.33 13 13.33z" opacity=".3"/>
  <path d="M17.5 15L10 7.5 2.5 15l1.41 1.41L5 15.33V20h10v-4.67l1.09 1.09L17.5 15zM13 18h-2v-3H9v3H7v-4.67l3-3 3 3V18zM22 7.5h-1.19l0.75 0.75-0.71 0.71L19.39 7.5H18.5v0.89l1.45 1.45-0.71 0.71L18.5 9.81V11h-1V9.81l-0.75 0.75-0.71-0.71 1.45-1.45V7.5h-0.89l-1.45 1.45-0.71-0.71 0.75-0.75H14v-1h1.19l-0.75-0.75 0.71-0.71 1.45 1.45h0.89V5.61l-1.45-1.45 0.71-0.71 0.75 0.75V3h1v1.19l0.75-0.75 0.71 0.71L18.5 5.61V6.5h0.89l1.45-1.45 0.71 0.71L20.81 6.5H22V7.5z"/>
</svg>
