<svg xmlns="http://www.w3.org/2000/svg" width="24" height="24">
  <path fill="none" d="M0 0h24v24H0V0z"/>
  <circle cx="15.5" cy="9.5" r="1.5"/>
  <circle cx="8.5" cy="9.5" r="1.5"/>
  <path d="M11.99 2C6.47 2 2 6.48 2 12s4.47 10 9.99 10C17.52 22 22 17.52 22 12S17.52 2 11.99 2zM12 20c-4.42 0-8-3.58-8-8s3.58-8 8-8 8 3.58 8 8-3.58 8-8 8z m0-6c-1.9 0-3.63 0.97-4.65 2.58-0.22 0.35-0.11 0.81 0.24 1.03 0.35 0.22 0.81 0.11 1.03-0.24 0.74-1.18 2-1.88 3.38-1.88s2.64 0.7 3.38 1.88c0.14 0.23 0.39 0.35 0.64 0.35 0.14 0 0.27-0.04 0.4-0.11 0.35-0.22 0.46-0.68 0.24-1.03C15.63 14.96 13.9 14 12 14z"/>
</svg>
