<svg xmlns="http://www.w3.org/2000/svg" width="24" height="24">
  <path fill="none" d="M0 0h24v24H0z"/>
  <path d="M6.29 14.29L9 17v4c0 0.55 0.45 1 1 1h4c0.55 0 1-0.45 1-1v-4l2.71-2.71c0.19-0.19 0.29-0.44 0.29-0.71V10c0-0.55-0.45-1-1-1H7c-0.55 0-1 0.45-1 1v3.59c0 0.26 0.11 0.52 0.29 0.7zM12 2c0.55 0 1 0.45 1 1v1c0 0.55-0.45 1-1 1s-1-0.45-1-1V3c0-0.55 0.45-1 1-1zM4.21 5.17c0.39-0.39 1.02-0.39 1.42 0l0.71 0.71c0.39 0.39 0.39 1.02 0 1.41-0.39 0.39-1.02 0.39-1.41 0l-0.72-0.71c-0.39-0.39-0.39-1.02 0-1.41z m13.46 0.71l0.71-0.71c0.39-0.39 1.02-0.39 1.41 0 0.39 0.39 0.39 1.02 0 1.41l-0.71 0.71c-0.39 0.39-1.02 0.39-1.41 0-0.39-0.39-0.39-1.02 0-1.41z"/>
</svg>
