<svg xmlns="http://www.w3.org/2000/svg" width="24" height="24">
  <path fill="none" d="M0 0h24v24H0V0z"/>
  <path d="M20 5h-3.2l-1.2-1.34c-0.38-0.42-0.92-0.66-1.49-0.66H9.89c-0.57 0-1.11 0.24-1.49 0.66L7.2 5H4c-1.1 0-2 0.9-2 2v12c0 1.1 0.9 2 2 2h16c1.1 0 2-0.9 2-2V7c0-1.1-0.9-2-2-2z m0 13c0 0.55-0.45 1-1 1h-7v-1c-2.8 0-5-2.2-5-5s2.2-5 5-5V7h7c0.55 0 1 0.45 1 1v10z m-3-5c0-2.8-2.2-5-5-5v1.8c1.8 0 3.2 1.4 3.2 3.2s-1.4 3.2-3.2 3.2V18c2.8 0 5-2.2 5-5z m-8.2 0c0 1.8 1.4 3.2 3.2 3.2V9.8c-1.8 0-3.2 1.4-3.2 3.2z"/>
</svg>
