<svg xmlns="http://www.w3.org/2000/svg" width="24" height="24">
  <path fill="none" d="M0 0H24V24H0z"/>
  <path d="M6 12.75C6.6903559372884915 12.75 7.25 13.309644062711508 7.25 14 7.25 14.690355937288492 6.6903559372884915 15.25 6 15.25 5.3096440627115085 15.25 4.75 14.690355937288492 4.75 14 4.75 13.30964406271151 5.309644062711508 12.75 6 12.75zM4.75 6C4.75 6.6903559372884915 5.3096440627115085 7.25 6 7.25 6.6903559372884915 7.25 7.25 6.6903559372884915 7.25 6 7.25 5.3096440627115085 6.6903559372884915 4.75 6 4.75 5.3096440627115085 4.75 4.75 5.3096440627115085 4.75 6z m12 8C16.75 14.690355937288492 17.30964406271151 15.25 18 15.25 18.69035593728849 15.25 19.25 14.690355937288492 19.25 14 19.25 13.309644062711508 18.69035593728849 12.75 18 12.75 17.30964406271151 12.75 16.75 13.309644062711508 16.75 14z m0-8C16.75 6.6903559372884915 17.30964406271151 7.25 18 7.25 18.69035593728849 7.25 19.25 6.6903559372884915 19.25 6 19.25 5.3096440627115085 18.69035593728849 4.75 18 4.75 17.30964406271151 4.75 16.75 5.3096440627115085 16.75 6z m-9 12C7.75 18.69035593728849 8.30964406271151 19.25 9 19.25 9.690355937288492 19.25 10.25 18.69035593728849 10.25 18 10.25 17.30964406271151 9.690355937288492 16.75 9 16.75 8.30964406271151 16.75 7.75 17.30964406271151 7.75 18z m0-8C7.75 10.690355937288492 8.30964406271151 11.25 9 11.25 9.690355937288492 11.25 10.25 10.690355937288492 10.25 10 10.25 9.309644062711508 9.690355937288492 8.75 9 8.75 8.30964406271151 8.75 7.75 9.309644062711508 7.75 10z m3 4C10.75 14.690355937288492 11.30964406271151 15.25 12 15.25 12.690355937288492 15.25 13.25 14.690355937288492 13.25 14 13.25 13.309644062711508 12.690355937288492 12.75 12 12.75 11.30964406271151 12.75 10.75 13.309644062711508 10.75 14z m0-8C10.75 6.6903559372884915 11.30964406271151 7.25 12 7.25 12.690355937288492 7.25 13.25 6.6903559372884915 13.25 6 13.25 5.3096440627115085 12.690355937288492 4.75 12 4.75 11.30964406271151 4.75 10.75 5.3096440627115085 10.75 6z m3 12C13.75 18.69035593728849 14.30964406271151 19.25 15 19.25 15.690355937288492 19.25 16.25 18.69035593728849 16.25 18 16.25 17.30964406271151 15.690355937288492 16.75 15 16.75 14.30964406271151 16.75 13.75 17.30964406271151 13.75 18z m0-8C13.75 10.690355937288492 14.30964406271151 11.25 15 11.25 15.690355937288492 11.25 16.25 10.690355937288492 16.25 10 16.25 9.309644062711508 15.690355937288492 8.75 15 8.75 14.30964406271151 8.75 13.75 9.309644062711508 13.75 10z"/>
</svg>
