<svg xmlns="http://www.w3.org/2000/svg" width="24" height="24">
  <path fill="none" d="M0 0H24V24H0z"/>
  <path d="M23 17v2h-5V3h2v14h3z m-6.27-1.85c0.17 0.42 0.27 0.87 0.27 1.35 0 1.93-1.57 3.5-3.5 3.5-1.4 0-2.6-0.82-3.16-2H6.83C6.408547917090045 19.201090429025747 5.27288118909718 20.003681756229184 3.9999999999999982 20c-1.66 0-3-1.34-3-3 0-0.89 0.39-1.69 1-2.24V10h2V4h8l4.73 11.15zM5 17c0-0.55-0.45-1-1-1s-1 0.45-1 1 0.45 1 1 1 1-0.45 1-1z m8.65-4l-2.97-7H6v4l2.92 3h4.73zM15 16.5c0-0.83-0.67-1.5-1.5-1.5s-1.5 0.67-1.5 1.5 0.67 1.5 1.5 1.5 1.5-0.67 1.5-1.5z"/>
</svg>
