<svg xmlns="http://www.w3.org/2000/svg" width="24" height="24">
  <path fill="none" d="M0 0h24v24H0V0z"/>
  <path d="M17 5H3c-1.1 0-2 0.89-2 2v9h2c0 1.66 1.34 3 3 3s3-1.34 3-3h6c0 1.66 1.34 3 3 3s3-1.34 3-3h2v-5l-6-6z m-2 2h1l3 3h-4V7zM9 7h4v3H9V7zM3 7h4v3H3V7z m3 10.25c-0.69 0-1.25-0.56-1.25-1.25s0.56-1.25 1.25-1.25 1.25 0.56 1.25 1.25-0.56 1.25-1.25 1.25z m12 0c-0.69 0-1.25-0.56-1.25-1.25s0.56-1.25 1.25-1.25 1.25 0.56 1.25 1.25-0.56 1.25-1.25 1.25zM21 14h-0.78c-0.55-0.61-1.34-1-2.22-1s-1.67 0.39-2.22 1H8.22c-0.55-0.61-1.33-1-2.22-1s-1.67 0.39-2.22 1H3v-2h18v2z"/>
</svg>
