<svg xmlns="http://www.w3.org/2000/svg" width="24" height="24">
  <g fill="none">
    <path d="M0 0H24V24H0z"/>
    <path d="M0 0H24V24H0z"/>
  </g>
  <path d="M12 2C6.48 2 2 6.48 2 12s4.48 10 10 10 10-4.48 10-10S17.52 2 12 2zM12 20c-4.41 0-8-3.59-8-8 0-0.01 0-0.02 0-0.03 2.31-0.22 3.43-1.59 4.34-3.41C8.51 8.21 8.85 8 9.24 8h5.53c0.38 0 0.72 0.21 0.89 0.55 0.9 1.8 1.99 3.19 4.34 3.41 0 0.01 0 0.02 0 0.03C20 16.41 16.41 20 12 20z"/>
  <circle cx="9" cy="13" r="1.25"/>
  <circle cx="15" cy="13" r="1.25"/>
</svg>
