<svg xmlns="http://www.w3.org/2000/svg" width="24" height="24">
  <path fill="none" d="M0 0h24v24H0V0z"/>
  <path d="M12 6c1.11 0 2-0.9 2-2 0-0.38-0.1-0.73-0.29-1.03L12 0l-1.71 2.97c-0.19 0.3-0.29 0.65-0.29 1.03 0 1.1 0.9 2 2 2z m4.53 9.92l-1-1-1.08 1.07c-1.3 1.3-3.58 1.31-4.89 0l-1.07-1.07-1.09 1.07C6.75 16.64 5.88 17 4.96 17c-0.73 0-1.4-0.23-1.96-0.61V22h18v-5.61c-0.75 0.51-1.71 0.75-2.74 0.52-0.66-0.14-1.25-0.51-1.73-0.99zM18 9h-5V7h-2v2H6c-1.66 0-3 1.34-3 3v1.54c0 1.08 0.88 1.96 1.96 1.96 0.52 0 1.02-0.2 1.38-0.57l2.14-2.13 2.13 2.13c0.74 0.74 2.03 0.74 2.77 0l2.14-2.13 2.13 2.13c0.37 0.37 0.86 0.57 1.38 0.57 1.08 0 1.96-0.88 1.96-1.96V12C21 10.34 19.66 9 18 9z"/>
</svg>
