<svg xmlns="http://www.w3.org/2000/svg" width="24" height="24">
  <path fill="none" d="M0 0H24V24H0z"/>
  <path d="M13.54 13H10c-0.55 0-1-0.45-1-1V8.46C9 8.2 9.11 7.94 9.29 7.76l5.32-5.32C13.78 2.16 12.9 2 12 2c-4.2 0-8 3.22-8 8.2 0 3.18 2.44 6.92 7.33 11.22 0.38 0.33 0.96 0.33 1.34 0C17.56 17.12 20 13.37 20 10.2c0-1.01-0.16-1.94-0.45-2.8l-5.31 5.31C14.06 12.89 13.8 13 13.54 13z"/>
  <path d="M11 11 13.12 11 19.28 4.84 17.16 2.72 11 8.88z"/>
  <path d="M20.71 2L20 1.29c-0.39-0.39-1.02-0.39-1.41 0l-0.72 0.72 2.12 2.12 0.72-0.72C21.1 3.02 21.1 2.39 20.71 2z"/>
</svg>
