<svg xmlns="http://www.w3.org/2000/svg" width="24" height="24">
  <g fill="none">
    <path d="M0 0H24V24H0z"/>
    <path d="M0 0H24V24H0z"/>
  </g>
  <path d="M19 3H5C3.9 3 3 3.9 3 5v14c0 1.1 0.9 2 2 2h14c1.1 0 2-0.9 2-2V5C21 3.9 20.1 3 19 3zM8 17L8 17c-0.55 0-1-0.45-1-1V8c0-0.55 0.45-1 1-1h0c0.55 0 1 0.45 1 1v8C9 16.55 8.55 17 8 17zM12 12L12 12c-0.55 0-1-0.45-1-1V8c0-0.55 0.45-1 1-1h0c0.55 0 1 0.45 1 1v3C13 11.55 12.55 12 12 12zM16 15L16 15c-0.55 0-1-0.45-1-1V8c0-0.55 0.45-1 1-1h0c0.55 0 1 0.45 1 1v6C17 14.55 16.55 15 16 15z"/>
</svg>
