<svg xmlns="http://www.w3.org/2000/svg" width="24" height="24">
  <path fill="none" d="M0 0H24V24H0z"/>
  <circle cx="6" cy="17" r="2" opacity=".3"/>
  <circle cx="12" cy="7" r="2" opacity=".3"/>
  <circle cx="18" cy="17" r="2" opacity=".3"/>
  <path d="M18 13c-2.2 0-4 1.8-4 4s1.8 4 4 4 4-1.8 4-4S20.2 13 18 13zM18 19c-1.1 0-2-0.9-2-2 0-1.1 0.9-2 2-2s2 0.9 2 2C20 18.1 19.1 19 18 19z"/>
  <path d="M6 13c-2.2 0-4 1.8-4 4s1.8 4 4 4 4-1.8 4-4S8.2 13 6 13zM6 19c-1.1 0-2-0.9-2-2 0-1.1 0.9-2 2-2s2 0.9 2 2C8 18.1 7.1 19 6 19z"/>
  <path d="M16 7c0-2.2-1.8-4-4-4S8 4.8 8 7s1.8 4 4 4S16 9.2 16 7zM12 9c-1.1 0-2-0.9-2-2 0-1.1 0.9-2 2-2s2 0.9 2 2C14 8.1 13.1 9 12 9z"/>
</svg>
