<svg xmlns="http://www.w3.org/2000/svg" width="24" height="24">
  <path fill="none" d="M0 0H24V24H0z"/>
  <path d="M16.34 12.87H19.34V21.35H16.34z" transform="rotate(-45.001 17.84 17.108)"/>
  <path d="M17.5 10c1.93 0 3.5-1.57 3.5-3.5 0-0.58-0.16-1.12-0.41-1.6l-2.7 2.7L16.4 6.11l2.7-2.7C18.62 3.16 18.08 3 17.5 3 15.57 3 14 4.57 14 6.5c0 0.41 0.08 0.8 0.21 1.16l-1.85 1.85-1.78-1.78 0.71-0.71L9.88 5.61 12 3.49c-1.17-1.17-3.07-1.17-4.24 0L4.22 7.03l1.41 1.41H2.81L2.1 9.15l3.54 3.54 0.71-0.71V9.15l1.41 1.41 0.71-0.71 1.78 1.78-7.41 7.41 2.12 2.12L16.34 9.79C16.7 9.92 17.09 10 17.5 10z"/>
</svg>
