<svg xmlns="http://www.w3.org/2000/svg" width="24" height="24">
  <path fill="none" d="M0 0H24V24H0z"/>
  <path d="M3.33 16 11 16 11 13 4 13z"/>
  <path d="M13 16 20.67 16 20 13 13 13z"/>
  <path d="M21.11 18 13 18 13 22 22 22z"/>
  <path d="M2 22 11 22 11 18 2.89 18z"/>
  <path d="M11 8H13V11H11z"/>
  <path d="M16.53 6.06H18.53V9.059999999999999H16.53z" transform="rotate(-45.001 17.53 7.557)"/>
  <path d="M4.97 6.56H7.97V8.559999999999999H4.97z" transform="rotate(-45.001 6.47 7.556)"/>
  <path d="M3 2H6V4H3z"/>
  <path d="M18 2H21V4H18z"/>
  <path d="M12 7c2.76 0 5-2.24 5-5H7C7 4.76 9.24 7 12 7z"/>
</svg>
