<svg xmlns="http://www.w3.org/2000/svg" width="24" height="24">
  <path fill="none" d="M0 0H24V24H0z"/>
  <path d="M12 4c-4.41 0-8 3.59-8 8s3.59 8 8 8 8-3.59 8-8S16.41 4 12 4zM7 7h7v2H7V7zM10 15H7v-2h3V15zM7 12v-2h7v2H7zM17 15v2h-2v-2h-2v-2h2v-2h2v2h2v2H17z" opacity=".3"/>
  <path d="M12 2C6.48 2 2 6.48 2 12s4.48 10 10 10 10-4.48 10-10S17.52 2 12 2zM12 20c-4.41 0-8-3.59-8-8s3.59-8 8-8 8 3.59 8 8S16.41 20 12 20zM14 10H7v2h7V10zM14 7H7v2h7V7zM7 15h3v-2H7V15zM19 13v2h-2v2h-2v-2h-2v-2h2v-2h2v2H19z"/>
</svg>
