<svg xmlns="http://www.w3.org/2000/svg" width="24" height="24">
  <path fill="none" d="M0 0H24V24H0z"/>
  <circle cx="20" cy="12" r="2"/>
  <circle cx="4" cy="12" r="2"/>
  <circle cx="12" cy="20" r="2"/>
  <path d="M7.89 14.65l-2.94 2.93c-0.39 0.39-0.39 1.02 0 1.41s1.02 0.39 1.41 0l2.94-2.93c0.39-0.38 0.39-1.02 0-1.41C8.91 14.26 8.28 14.26 7.89 14.65z"/>
  <path d="M6.41 4.94C6.02 4.55 5.39 4.55 5 4.94 4.61 5.33 4.61 5.96 5 6.35l2.93 2.94c0.39 0.39 1.02 0.39 1.42 0C9.73 8.9 9.73 8.27 9.34 7.88L6.41 4.94z"/>
  <path d="M16.12 14.65c-0.39-0.39-1.02-0.39-1.42 0-0.39 0.39-0.39 1.02 0 1.41L17.64 19c0.39 0.39 1.02 0.39 1.41 0s0.39-1.02 0-1.41L16.12 14.65z"/>
  <path d="M16.06 9.33l2.99-2.98c0.39-0.4 0.39-1.03 0-1.42-0.39-0.39-1.02-0.39-1.41 0l-2.99 2.98c-0.39 0.39-0.39 1.02 0 1.42C15.04 9.72 15.67 9.72 16.06 9.33z"/>
  <circle cx="12" cy="4" r="2"/>
</svg>
