<svg xmlns="http://www.w3.org/2000/svg" width="24" height="24">
  <path fill="none" d="M0 0H24V24H0z"/>
  <path d="M6 19H4v-2h2V19zM6 15H4v-2h2V15zM6 11H4V9h2V11zM6 7H4V5h2V7zM10 19H8v-2h2V19zM10 15H8v-2h2V15zM10 11H8V9h2V11zM10 7H8V5h2V7zM16 19h-4v-2h2v-2h-2v-2h2v-2h-2V9h8v6h2V8c0-0.55-0.45-1-1-1h-9V4c0-0.55-0.45-1-1-1H3C2.45 3 2 3.45 2 4v16c0 0.55 0.45 1 1 1h13V19zM18 11h-2v2h2V11zM18 15h-2v2h2V15zM24 20c0 0.55-0.45 1-1 1h-1v1c0 0.55-0.45 1-1 1s-1-0.45-1-1v-1h-1c-0.55 0-1-0.45-1-1s0.45-1 1-1h1v-1c0-0.55 0.45-1 1-1 0.55 0 1 0.45 1 1v1h1C23.55 19 24 19.45 24 20z"/>
</svg>
