<svg xmlns="http://www.w3.org/2000/svg" width="24" height="24">
  <path fill="none" d="M0 0h24v24H0V0z"/>
  <path d="M16 1C13.687855774288575 0.9996885409288812 11.524709946796893 2.141140923947847 10.219999999999999 4.05l0.02-0.03C9.84 4 9.42 4 9 4c-4.42 0-8 0.5-8 4v10c0 0.88 0.39 1.67 1 2.22V22C2 22.552284749830793 2.4477152501692068 23 3 23h1C4.552284749830793 23 5 22.552284749830793 5 22v-1h8v1C13 22.552284749830793 13.447715250169207 23 14 23h1C15.552284749830793 23 16 22.552284749830793 16 22v-1.78c0.61-0.55 1-1.34 1-2.22v-3.08C20.60902174911155 14.37036547541833 23.189680512509334 11.139462603279512 22.92809637915697 7.498211467014586 22.666512245804604 3.8569603307496614 19.650526760582373 1.0281152350921632 16 0.9999999999999991zM4.5 19C3.67157287525381 19 3 18.32842712474619 3 17.5 3 16.67157287525381 3.6715728752538097 16 4.5 16 5.32842712474619 16 6 16.67157287525381 6 17.5 6 18.32842712474619 5.32842712474619 19 4.5 19zM3 13V8h6c0 1.96 0.81 3.73 2.11 5H3z m10.5 6C12.67157287525381 19 12 18.32842712474619 12 17.5 12 16.67157287525381 12.67157287525381 16 13.5 16 14.32842712474619 16 15 16.67157287525381 15 17.5 15 18.32842712474619 14.32842712474619 19 13.5 19z m2.5-6C13.238576250846034 13 11 10.761423749153966 11 8 11 5.238576250846034 13.238576250846032 3.000000000000001 15.999999999999998 3 18.761423749153966 3 21 5.238576250846034 21 8 21 10.761423749153966 18.761423749153966 13 16 13z m-1-9h2v5h-2z m0 6h2v2h-2z"/>
</svg>
