<svg xmlns="http://www.w3.org/2000/svg" width="24" height="24">
  <path fill="none" d="M0 0h24v24H0V0z m0 0h24v24H0V0z"/>
  <path d="M4 17h16V7H4v10z m13-9h2v2h-2V8z m0 3h2v2h-2v-2z m-3-3h2v2h-2V8z m0 3h2v2h-2v-2z m-3-3h2v2h-2V8z m0 3h2v2h-2v-2zM8 8h2v2H8V8z m0 3h2v2H8v-2z m0 3h8v2H8v-2zM5 8h2v2H5V8z m0 3h2v2H5v-2z" opacity=".3"/>
  <path d="M20 5H4c-1.1 0-1.99 0.9-1.99 2L2 17c0 1.1 0.9 2 2 2h16c1.1 0 2-0.9 2-2V7c0-1.1-0.9-2-2-2z m0 12H4V7h16v10z m-9-9h2v2h-2z m0 3h2v2h-2zM8 8h2v2H8z m0 3h2v2H8z m-3 0h2v2H5z m0-3h2v2H5z m3 6h8v2H8z m6-3h2v2h-2z m0-3h2v2h-2z m3 3h2v2h-2z m0-3h2v2h-2z"/>
</svg>
