<svg xmlns="http://www.w3.org/2000/svg" width="24" height="24">
  <path fill="none" d="M0 0H24V24H0z"/>
  <path d="M13 3c0-1.1 0.9-2 2-2s2 0.9 2 2c0 1.1-0.9 2-2 2S13 4.1 13 3zM7.25 22.5c-0.41 0-0.75 0.34-0.75 0.75S6.84 24 7.25 24 8 23.66 8 23.25 7.66 22.5 7.25 22.5zM15.75 22.5c-0.41 0-0.75 0.34-0.75 0.75S15.34 24 15.75 24s0.75-0.34 0.75-0.75S16.16 22.5 15.75 22.5zM19.24 19c-0.24 0-0.45 0.11-0.59 0.3-0.55 0.73-1.42 1.2-2.4 1.2H16v-6l-4.32-2.67 1.8-2.89C14.63 10.78 16.68 12 19 12v-2c-1.85 0-3.44-1.12-4.13-2.72l-0.52-1.21C14.16 5.64 13.61 5 12.7 5H7L4.5 9l1.7 1.06L8.1 7h2.35l-2.89 4.63 1.62 5.03-3.12 3.76c-0.7-0.16-1.3-0.57-1.71-1.12C4.21 19.11 3.99 19 3.75 19 3.31 19 3 19.36 3 19.75c0 0.15 0.05 0.31 0.15 0.45 0.82 1.1 2.13 1.8 3.6 1.8h9.5c1.47 0 2.78-0.7 3.6-1.8 0.1-0.14 0.15-0.3 0.15-0.45C20 19.36 19.68 19 19.24 19zM14 20.5H8.6l2.9-3.5-1-3.3 3.5 2.2V20.5z"/>
</svg>
