<svg xmlns="http://www.w3.org/2000/svg" width="24" height="24">
  <path fill="none" d="M0 0h24v24H0V0z"/>
  <path d="M7 7l4 1V5H5v6h3z m1 6H5v6h6v-3l-4 1z m9 4l-4-1v3h6v-6h-3z m-4-9l4-1-1 4h3V5h-6z" opacity=".3"/>
  <path d="M19 3H5c-1.1 0-2 0.9-2 2v14c0 1.1 0.9 2 2 2h14c1.1 0 2-0.9 2-2V5c0-1.1-0.9-2-2-2zM5 5h6v3L7 7l1 4H5V5z m6 14H5v-6h3l-1 4 4-1v3z m-1.63-4.37l0.91-2.63-0.91-2.63 2.63 0.91 2.63-0.91-0.91 2.63 0.91 2.63-2.63-0.91-2.63 0.91zM19 19h-6v-3l4 1-1-4h3v6z m0-8h-3l1-4-4 1V5h6v6z"/>
</svg>
