<svg xmlns="http://www.w3.org/2000/svg" width="24" height="24">
  <path fill="none" d="M0 0H24V24H0z"/>
  <path d="M8.58 10H2.56c-0.49 0-0.69 0.62-0.29 0.91l4.91 3.51-1.89 6.1c-0.14 0.46 0.39 0.84 0.78 0.55L11 17.31l4.93 3.75c0.39 0.29 0.92-0.08 0.78-0.55l-1.89-6.1 4.91-3.51c0.4-0.28 0.2-0.91-0.29-0.91h-6.02l-1.95-6.42c-0.14-0.47-0.81-0.47-0.96 0L8.58 10zM20.9 20.51l-1.4-4.52 2.91-2.08c0.4-0.28 0.2-0.91-0.29-0.91h-1.88l-3.08 2.2 1.46 4.72 1.5 1.14c0.39 0.29 0.92-0.09 0.78-0.55zM17 8l-1.34-4.42c-0.14-0.47-0.81-0.47-0.96 0l-0.57 1.87 0.78 2.55H17z"/>
</svg>
