<svg xmlns="http://www.w3.org/2000/svg" width="24" height="24">
  <g fill="none">
    <path d="M0 0H24V24H0z"/>
    <path d="M0 0H24V24H0z"/>
  </g>
  <path d="M16.24 13.65c-1.17-0.52-2.61-0.9-4.24-0.9-1.63 0-3.07 0.39-4.24 0.9C6.68 14.13 6 15.21 6 16.39L6 17c0 0.55 0.45 1 1 1h10c0.55 0 1-0.45 1-1l0-0.61C18 15.21 17.32 14.13 16.24 13.65z"/>
  <path d="M1.22 14.58C0.48 14.9 0 15.62 0 16.43L0 17c0 0.55 0.45 1 1 1l3.5 0v-1.61c0-0.83 0.23-1.61 0.63-2.29C4.76 14.04 4.39 14 4 14 3.01 14 2.07 14.21 1.22 14.58z"/>
  <path d="M22.78 14.58C21.93 14.21 20.99 14 20 14c-0.39 0-0.76 0.04-1.13 0.1 0.4 0.68 0.63 1.46 0.63 2.29V18l3.5 0c0.55 0 1-0.45 1-1l0-0.57C24 15.62 23.52 14.9 22.78 14.58z"/>
  <path d="M12 12c1.66 0 3-1.34 3-3 0-1.66-1.34-3-3-3S9 7.34 9 9C9 10.66 10.34 12 12 12z"/>
  <path d="M2.23 9.23H5.77V12.77H2.23z" transform="rotate(-45.001 4 11)"/>
  <path d="M20 9 17.5 13 22.5 13z"/>
</svg>
