<svg xmlns="http://www.w3.org/2000/svg" width="24" height="24">
  <path fill="none" d="M0 0H24V24H0z"/>
  <path d="M7.06 8.94L5 8l2.06-0.94L8 5l0.94 2.06L11 8 8.94 8.94 8 11 7.06 8.94zM8 21l0.94-2.06L11 18l-2.06-0.94L8 15l-0.94 2.06L5 18l2.06 0.94L8 21zM4.37 12.37L3 13l1.37 0.63L5 15l0.63-1.37L7 13l-1.37-0.63L5 11 4.37 12.37zM12 12c0-3.09 1.38-5.94 3.44-8L12 4V2h7v7h-2l0-3.72c-1.8 1.74-3 4.2-3 6.72 0 3.32 2.1 6.36 5 7.82L19 22C14.91 20.41 12 16.35 12 12zM24 14h-2v-2h-2v2h-2v2h2v2h2v-2h2V14z"/>
</svg>
