<svg xmlns="http://www.w3.org/2000/svg" width="24" height="24">
  <path fill="none" d="M0 0h24v24H0V0z"/>
  <path d="M3 15h0.78c0.55-0.61 1.34-1 2.22-1s1.67 0.39 2.22 1H15V6H3v9z" opacity=".3"/>
  <path d="M17 8V4H3c-1.1 0-2 0.9-2 2v11h2c0 1.66 1.34 3 3 3s3-1.34 3-3h6c0 1.66 1.34 3 3 3s3-1.34 3-3h2v-5l-3-4h-3zM6 18c-0.55 0-1-0.45-1-1s0.45-1 1-1 1 0.45 1 1-0.45 1-1 1z m9-3H8.22c-0.55-0.61-1.33-1-2.22-1s-1.67 0.39-2.22 1H3V6h12v9z m3 3c-0.55 0-1-0.45-1-1s0.45-1 1-1 1 0.45 1 1-0.45 1-1 1z m-1-6V9.5h2.5l1.96 2.5H17z"/>
</svg>
