<svg xmlns="http://www.w3.org/2000/svg" width="24" height="24">
  <path fill="none" d="M0 0h24v24H0V0z"/>
  <path d="M7 16c0 0.55 0.45 1 1 1h8c0.55 0 1-0.45 1-1s-0.45-1-1-1H8c-0.55 0-1 0.45-1 1z m-3 5h16c0.55 0 1-0.45 1-1s-0.45-1-1-1H4c-0.55 0-1 0.45-1 1s0.45 1 1 1z m0-8h16c0.55 0 1-0.45 1-1s-0.45-1-1-1H4c-0.55 0-1 0.45-1 1s0.45 1 1 1z m3-5c0 0.55 0.45 1 1 1h8c0.55 0 1-0.45 1-1s-0.45-1-1-1H8c-0.55 0-1 0.45-1 1zM3 4c0 0.55 0.45 1 1 1h16c0.55 0 1-0.45 1-1s-0.45-1-1-1H4c-0.55 0-1 0.45-1 1z"/>
</svg>
