<svg xmlns="http://www.w3.org/2000/svg" width="24" height="24" style="enable-background:new 0 0 24 24">
  <path d="M9.6 16.8H14.399999999999999V18.6H9.6z" style="fill:none"/>
  <path d="M20 18C21.1 18 21.99 17.1 21.99 16L22 6C22 4.89 21.1 4 20 4L4 4C2.89 4 2 4.89 2 6L2 16C2 17.1 2.89 18 4 18L0 18 0 20 24 20 24 18 20 18ZM4 16L4 6 20 6 20 16 20 16.01 4 16ZM9.0967 9.9531C9.0967 8.9261 9.9327 8.0891 10.9607 8.0891 11.9877 8.0891 12.8247 8.9261 12.8247 9.9531 12.8247 10.9801 11.9877 11.8171 10.9607 11.8171 9.9327 11.8171 9.0967 10.9801 9.0967 9.9531ZM16.1287 14.1891L13.6467 11.7071C13.9777 11.2021 14.1737 10.6001 14.1737 9.9531 14.1737 8.1811 12.7327 6.7401 10.9607 6.7401 9.1887 6.7401 7.7467 8.1811 7.7467 9.9531 7.7467 11.7251 9.1887 13.1671 10.9607 13.1671 11.5967 13.1671 12.1857 12.9751 12.6847 12.6561L15.1737 15.1441 16.1287 14.1891Z"/>
  <path d="M0 0H24V24H0z" style="fill:none"/>
</svg>
