<svg xmlns="http://www.w3.org/2000/svg" width="24" height="24">
  <path fill="none" d="M0 0H24V24H0z"/>
  <path d="M21.79 17.06l-5.55-5.55 1.57-1.57-3.75-3.75-1.57 1.57L6.94 2.21 2.21 6.94l5.55 5.55L3 17.25V21h3.75l4.76-4.76 5.55 5.55 0 0v0L21.79 17.06zM9.18 11.07L5.04 6.94l1.9-1.9 1.27 1.27L7.02 7.5l1.41 1.41 1.19-1.19 1.45 1.45L9.18 11.07zM12.93 14.82l1.9-1.9 1.45 1.45-1.19 1.19 1.41 1.41 1.19-1.19 1.27 1.27-1.9 1.9L12.93 14.82z"/>
  <path d="M16.48 3.08H20.07V8.379999999999999H16.48z" transform="rotate(-45.001 18.272 5.728)"/>
</svg>
