<svg xmlns="http://www.w3.org/2000/svg" width="24" height="24">
  <path fill="none" d="M0 0h24v24H0V0z"/>
  <path d="M18.5 11.5c0.92 0 1.75 0.26 2.49 0.69V5c0-1.1-0.89-2-1.99-2H5c-1.1 0-2 0.9-2 2v10c0 1.1 0.9 2 2 2h8.55c-0.02-0.17-0.05-0.33-0.05-0.5 0-2.76 2.24-5 5-5z m-5.61-1.45c-0.56 0.28-1.23 0.28-1.79 0l-5.61-2.8c-0.3-0.15-0.49-0.46-0.49-0.8 0-0.66 0.7-1.1 1.29-0.8L12 8.5l5.71-2.85c0.59-0.3 1.29 0.13 1.29 0.8 0 0.34-0.19 0.65-0.49 0.8l-5.62 2.8zM18.5 13c-1.93 0-3.5 1.57-3.5 3.5s1.57 3.5 3.5 3.5 3.5-1.57 3.5-3.5-1.57-3.5-3.5-3.5z m2 3.5c0 0.28-0.22 0.5-0.5 0.5h-3c-0.28 0-0.5-0.22-0.5-0.5s0.22-0.5 0.5-0.5h3c0.28 0 0.5 0.22 0.5 0.5z"/>
</svg>
