<svg xmlns="http://www.w3.org/2000/svg" width="24" height="24">
  <g fill="none">
    <path d="M0 0H24V24H0z"/>
    <path d="M0 0H24V24H0z"/>
  </g>
  <path d="M8 21c0.55 0 1-0.45 1-1l0-5.09c0-0.98-0.71-1.8-1.67-1.97C5.44 12.63 4 10.98 4 9c0-2.21 1.79-4 4-4 1.98 0 3.63 1.44 3.94 3.33C12.11 9.29 12.93 10 13.91 10l4.26 0-0.88 0.88c-0.39 0.39-0.39 1.02 0 1.41 0.39 0.39 1.02 0.39 1.41 0l2.59-2.59c0.39-0.39 0.39-1.02 0-1.41l-2.59-2.59c-0.39-0.39-1.02-0.39-1.41 0-0.39 0.39-0.39 1.02 0 1.41L18.17 8l-4.25 0C13.44 5.16 10.97 3 8 3 4.69 3 2 5.69 2 9c0 2.97 2.16 5.44 5 5.92L7 20C7 20.55 7.45 21 8 21z"/>
</svg>
