<svg xmlns="http://www.w3.org/2000/svg" width="24" height="24">
  <g fill="none">
    <path d="M0 0H24V24H0z"/>
    <path d="M0 0H24V24H0z"/>
  </g>
  <path d="M16 21c-0.55 0-1-0.45-1-1l0-5.09c0-0.98 0.71-1.8 1.67-1.97C18.56 12.63 20 10.98 20 9c0-2.21-1.79-4-4-4-1.98 0-3.63 1.44-3.94 3.33C11.89 9.29 11.07 10 10.09 10l-4.26 0 0.88 0.88c0.39 0.39 0.39 1.02 0 1.41-0.39 0.39-1.02 0.39-1.41 0L2.71 9.71c-0.39-0.39-0.39-1.02 0-1.41l2.59-2.59c0.39-0.39 1.02-0.39 1.41 0 0.39 0.39 0.39 1.02 0 1.41L5.83 8l4.25 0c0.48-2.84 2.94-5 5.92-5 3.31 0 6 2.69 6 6 0 2.97-2.16 5.44-5 5.92L17 20C17 20.55 16.55 21 16 21z"/>
</svg>
