<svg xmlns="http://www.w3.org/2000/svg" width="24" height="24">
  <path fill="none" d="M0 0h24v24H0V0z"/>
  <path d="M9.83 18l0.59 0.59L12 20.17l1.59-1.59 0.58-0.58H19V4H5v14h4.83zM12 5c1.65 0 3 1.35 3 3s-1.35 3-3 3-3-1.35-3-3 1.35-3 3-3zM6 15.58C6 13.08 9.97 12 12 12s6 1.08 6 3.58V17H6v-1.42z" opacity=".3"/>
  <path d="M9 20l3 3 3-3h4c1.1 0 2-0.9 2-2V4c0-1.1-0.9-2-2-2H5c-1.11 0-2 0.9-2 2v14c0 1.1 0.89 2 2 2h4zM5 4h14v14h-4.83l-0.59 0.59L12 20.17l-1.59-1.59-0.58-0.58H5V4z m7 7c1.65 0 3-1.35 3-3s-1.35-3-3-3-3 1.35-3 3 1.35 3 3 3z m0-4c0.55 0 1 0.45 1 1s-0.45 1-1 1-1-0.45-1-1 0.45-1 1-1z m6 8.58c0-2.5-3.97-3.58-6-3.58s-6 1.08-6 3.58V17h12v-1.42zM8.48 15c0.74-0.51 2.23-1 3.52-1s2.78 0.49 3.52 1H8.48z"/>
</svg>
