<svg xmlns="http://www.w3.org/2000/svg" width="24" height="24">
  <path fill="none" d="M0 0H24V24H0z"/>
  <path d="M13.51 5 10.49 5 9.89 7 14.11 7z" opacity=".3"/>
  <path d="M14.71 9 9.29 9 8.69 11 15.31 11z" opacity=".3"/>
  <path d="M15.91 13 8.09 13 7.49 15 4 15 4 20 9 20 9 15 15 15 15 20 20 20 20 15 16.51 15z" opacity=".3"/>
  <path d="M20 11v2h-2L15 3V1h-2v2h-2.03V1h-2v2.12L6 13H4v-2H2v11h9v-5h2v5h9V11h-2z m-9.51-6h3.02l0.6 2H9.89l0.6-2z m-1.2 4h5.42l0.6 2H8.69l0.6-2zM20 20h-5v-5H9v5H4v-5h3.49l0.6-2h7.82l0.6 2H20v5z"/>
</svg>
