<svg xmlns="http://www.w3.org/2000/svg" width="24" height="24">
  <path fill="none" d="M0 0h24v24H0V0z"/>
  <path d="M17 11h2v2h-2v2h2v2h-2v2h4V5h-9v1.4l5 3.57V11zM17 7h2v2h-2V7z" opacity=".3"/>
  <path d="M10 3 10 4.97 10.96 5.66 12 6.4 12 5 21 5 21 19 17 19 17 21 23 21 23 3z"/>
  <path d="M3 12 3 19 5 19 5 14 11 14 11 19 13 19 13 12 8 8.5z" opacity=".3"/>
  <path d="M17 7H19V9H17z"/>
  <path d="M17 11H19V13H17z"/>
  <path d="M17 15H19V17H17z"/>
  <path d="M1 11v10h6v-5h2v5h6V11L8 6 1 11zM13 19h-2v-5H5v5H3v-7l5-3.5 5 3.5V19z"/>
</svg>
