<svg xmlns="http://www.w3.org/2000/svg" width="24" height="24">
  <path fill="none" d="M0 0h24v24H0V0z"/>
  <path d="M22 3H2C0.9 3 0 3.9 0 5v14c0 1.1 0.9 2 2 2h20c1.1 0 1.99-0.9 1.99-2L24 5c0-1.1-0.9-2-2-2z m0 16H2V5h20v14z m-2.99-1.01L21 16l-1.51-2h-1.64c-0.22-0.63-0.35-1.3-0.35-2s0.13-1.37 0.35-2h1.64L21 8l-1.99-1.99c-1.31 0.98-2.28 2.37-2.73 3.99-0.18 0.64-0.28 1.31-0.28 2s0.1 1.36 0.28 2c0.45 1.61 1.42 3.01 2.73 3.99zM9 12c1.65 0 3-1.35 3-3s-1.35-3-3-3-3 1.35-3 3 1.35 3 3 3z m0-4c0.55 0 1 0.45 1 1s-0.45 1-1 1-1-0.45-1-1 0.45-1 1-1z m6 8.59c0-2.5-3.97-3.58-6-3.58s-6 1.08-6 3.58V18h12v-1.41zM5.48 16c0.74-0.5 2.22-1 3.52-1s2.77 0.49 3.52 1H5.48z"/>
</svg>
