<svg xmlns="http://www.w3.org/2000/svg" width="24" height="24">
  <path fill="none" d="M0 0h24v24H0V0z"/>
  <path d="M12 2c-4.42 0-8 0.5-8 4v10c0 0.88 0.39 1.67 1 2.22V20c0 0.55 0.45 1 1 1h1c0.55 0 1-0.45 1-1v-1h8v1c0 0.55 0.45 1 1 1h1c0.55 0 1-0.45 1-1v-1.78c0.61-0.55 1-1.34 1-2.22V6c0-3.5-3.58-4-8-4z m5.66 2.99H6.34C6.89 4.46 8.31 4 12 4s5.11 0.46 5.66 0.99z m0.34 2V10H6V6.99h12z m-0.34 9.74l-0.29 0.27H6.63l-0.29-0.27C6.21 16.62 6 16.37 6 16v-4h12v4c0 0.37-0.21 0.62-0.34 0.73z"/>
  <circle cx="8.5" cy="14.5" r="1.5"/>
  <circle cx="15.5" cy="14.5" r="1.5"/>
</svg>
