<svg xmlns="http://www.w3.org/2000/svg" width="24" height="24">
  <path fill="none" d="M0 0H24V24H0z"/>
  <path d="M11.23 6C9.57 6 8.01 6.66 6.87 7.73 6.54 6.73 5.61 6 4.5 6 3.12 6 2 7.12 2 8.5 2 9.88 3.12 11 4.5 11c0.21 0 0.41-0.03 0.61-0.08-0.05 0.25-0.09 0.51-0.1 0.78-0.18 3.68 2.95 6.68 6.68 6.27 2.55-0.28 4.68-2.26 5.19-4.77 0.15-0.71 0.15-1.4 0.06-2.06-0.09-0.6 0.38-1.13 0.99-1.13H22V6H11.23zM4.5 9C4.22 9 4 8.78 4 8.5 4 8.22 4.22 8 4.5 8S5 8.22 5 8.5C5 8.78 4.78 9 4.5 9zM11 15c-1.66 0-3-1.34-3-3s1.34-3 3-3 3 1.34 3 3S12.66 15 11 15z"/>
  <circle cx="11" cy="12" r="2"/>
</svg>
