<svg xmlns="http://www.w3.org/2000/svg" width="24" height="24">
  <path fill="none" d="M0 0h24v24H0V0z"/>
  <path d="M8 18c0.55 0 1-0.45 1-1V7c0-0.55-0.45-1-1-1s-1 0.45-1 1v10c0 0.55 0.45 1 1 1z m4 4c0.55 0 1-0.45 1-1V3c0-0.55-0.45-1-1-1s-1 0.45-1 1v18c0 0.55 0.45 1 1 1z m-8-8c0.55 0 1-0.45 1-1v-2c0-0.55-0.45-1-1-1s-1 0.45-1 1v2c0 0.55 0.45 1 1 1z m12 4c0.55 0 1-0.45 1-1V7c0-0.55-0.45-1-1-1s-1 0.45-1 1v10c0 0.55 0.45 1 1 1z m3-7v2c0 0.55 0.45 1 1 1s1-0.45 1-1v-2c0-0.55-0.45-1-1-1s-1 0.45-1 1z"/>
</svg>
