<svg xmlns="http://www.w3.org/2000/svg" width="24" height="24">
  <path fill="none" d="M0 0H24V24H0z"/>
  <path d="M5 2c0-0.55-0.45-1-1-1S3 1.45 3 2v4H2C1.45 6 1 6.45 1 7v5h6V7c0-0.55-0.45-1-1-1H5V2zM9 16c0 1.3 0.84 2.4 2 2.82V22c0 0.55 0.45 1 1 1h0c0.55 0 1-0.45 1-1v-3.18c1.16-0.41 2-1.51 2-2.82v-2H9V16zM1 16c0 1.3 0.84 2.4 2 2.82V22c0 0.55 0.45 1 1 1h0c0.55 0 1-0.45 1-1v-3.18C6.16 18.4 7 17.3 7 16v-2H1V16zM21 6V2c0-0.55-0.45-1-1-1s-1 0.45-1 1v4h-1c-0.55 0-1 0.45-1 1v5h6V7c0-0.55-0.45-1-1-1H21zM13 2c0-0.55-0.45-1-1-1s-1 0.45-1 1v4h-1C9.45 6 9 6.45 9 7v5h6V7c0-0.55-0.45-1-1-1h-1V2zM17 16c0 1.3 0.84 2.4 2 2.82V22c0 0.55 0.45 1 1 1h0c0.55 0 1-0.45 1-1v-3.18c1.16-0.41 2-1.51 2-2.82v-2h-6V16z"/>
</svg>
