<svg xmlns="http://www.w3.org/2000/svg" width="24" height="24">
  <path fill="none" d="M0 0H24V24H0z"/>
  <path d="M8.66 15.5c1.01 0 1.3-0.65 2.42-0.9l-0.91-3.39 3.86-1.04 1.42 5.31c1.03-0.07 1.3-0.85 2.85-0.96L16.16 6.5l-5.74-2.09L6.5 9.09l1.7 6.36C8.33 15.48 8.48 15.5 8.66 15.5z" opacity=".3"/>
  <path d="M18.67 19c-1.95 0-2.09 1-3.33 1-1.19 0-1.42-1-3.33-1-1.95 0-2.1 1-3.34 1-1.24 0-1.38-1-3.33-1-1.95 0-2.1 1-3.34 1v2c1.95 0 2.11-1 3.34-1 1.24 0 1.38 1 3.33 1 1.95 0 2.1-1 3.34-1 1.22 0 1.4 1 3.33 1 1.93 0 2.1-1 3.33-1 1.22 0 1.4 1 3.33 1v-2C20.76 20 20.62 19 18.67 19z"/>
  <path d="M8.68 17.5c1.95 0 2.09-1 3.33-1 1.19 0 1.42 1 3.33 1 1.95 0 2.09-1 3.33-1 1.19 0 1.4 0.98 3.31 1v-2c-0.63 0-1-0.28-1.48-0.55l-2.02-7.53 2.09 0.85 0.74-1.86L9.78 2 2 11.61l1.57 1.23 1.39-1.78 0.93 3.48c-0.18-0.02-0.35-0.05-0.56-0.05-1.95 0-2.09 1-3.33 1v2c1.9 0 2.17-1 3.35-1C6.54 16.5 6.77 17.5 8.68 17.5zM10.42 4.41l5.74 2.09 2.15 8.02c-1.54 0.11-1.82 0.89-2.85 0.96l-1.42-5.31-3.86 1.04 0.91 3.39c-1.12 0.25-1.41 0.9-2.42 0.9-0.18 0-0.33-0.02-0.45-0.05L6.5 9.09 10.42 4.41z"/>
</svg>
