<svg xmlns="http://www.w3.org/2000/svg" width="24" height="24">
  <path fill="none" d="M0 0h24v24H0V0z"/>
  <circle cx="15.5" cy="9.5" r="1.5"/>
  <circle cx="8.5" cy="9.5" r="1.5"/>
  <path d="M11.99 2C6.47 2 2 6.48 2 12s4.47 10 9.99 10C17.52 22 22 17.52 22 12S17.52 2 11.99 2zM12 20c-4.42 0-8-3.58-8-8s3.58-8 8-8 8 3.58 8 8-3.58 8-8 8z m0-4c-0.73 0-1.38-0.18-1.96-0.52-0.12 0.14-0.86 0.98-1.01 1.15 0.86 0.55 1.87 0.87 2.97 0.87 1.11 0 2.12-0.33 2.98-0.88-0.97-1.09-0.01-0.02-1.01-1.15-0.59 0.35-1.24 0.53-1.97 0.53z"/>
</svg>
