<svg xmlns="http://www.w3.org/2000/svg" width="24" height="24">
  <path fill="none" d="M0 0h24v24H0V0z"/>
  <path d="M7.06 5L2.4 12l4.67 7H22V5H7.06c0.01 0 0.01 0 0 0zM19 10.5c0.83 0 1.5 0.67 1.5 1.5s-0.67 1.5-1.5 1.5-1.5-0.67-1.5-1.5 0.67-1.5 1.5-1.5z m-5 0c0.83 0 1.5 0.67 1.5 1.5s-0.67 1.5-1.5 1.5-1.5-0.67-1.5-1.5 0.67-1.5 1.5-1.5z m-5 0c0.83 0 1.5 0.67 1.5 1.5s-0.67 1.5-1.5 1.5-1.5-0.67-1.5-1.5 0.67-1.5 1.5-1.5z" opacity=".3"/>
  <path d="M22 3H7c-0.69 0-1.23 0.35-1.59 0.88L0 12l5.41 8.11c0.36 0.53 0.97 0.89 1.66 0.89H22c1.1 0 2-0.9 2-2V5c0-1.1-0.9-2-2-2z m0 16H7.07L2.4 12l4.66-7H22v14z"/>
  <circle cx="9" cy="12" r="1.5"/>
  <circle cx="14" cy="12" r="1.5"/>
  <circle cx="19" cy="12" r="1.5"/>
</svg>
