<svg xmlns="http://www.w3.org/2000/svg" width="24" height="24">
  <path fill="none" d="M0 0h24v24H0V0z"/>
  <path d="M20 5h-3.17l-1.24-1.35c-0.37-0.41-0.91-0.65-1.47-0.65H9.88c-0.56 0-1.1 0.24-1.48 0.65L7.17 5H4c-1.1 0-2 0.9-2 2v12c0 1.1 0.9 2 2 2h7v-2.09c-2.45-0.42-4.41-2.32-4.89-4.75-0.12-0.61 0.38-1.16 0.99-1.16 0.49 0 0.88 0.35 0.98 0.83C8.47 15.64 10.07 17 12 17s3.53-1.36 3.91-3.17c0.1-0.48 0.5-0.83 0.98-0.83 0.61 0 1.11 0.55 0.99 1.16-0.48 2.43-2.44 4.34-4.89 4.75V21h7c1.1 0 2-0.9 2-2V7C22 5.9 21.1 5 20 5z m-6 8c0 1.1-0.9 2-2 2s-2-0.9-2-2V9c0-1.1 0.9-2 2-2s2 0.9 2 2v4z"/>
</svg>
