<svg xmlns="http://www.w3.org/2000/svg" width="24" height="24">
  <path fill="none" d="M0 0h24v24H0V0z"/>
  <path d="M5.5 21c0.83 0 1.5-0.67 1.5-1.5V18h10v1.5c0 0.83 0.67 1.5 1.5 1.5s1.5-0.67 1.5-1.5V17c0-1.1-0.9-2-2-2H6c-1.1 0-2 0.9-2 2v2.5c0 0.83 0.67 1.5 1.5 1.5zM20 10h1c0.55 0 1 0.45 1 1v1c0 0.55-0.45 1-1 1h-1c-0.55 0-1-0.45-1-1v-1c0-0.55 0.45-1 1-1zM3 10h1c0.55 0 1 0.45 1 1v1c0 0.55-0.45 1-1 1H3c-0.55 0-1-0.45-1-1v-1c0-0.55 0.45-1 1-1z m14 3H7V5c0-1.1 0.9-2 2-2h6c1.1 0 2 0.9 2 2v8z"/>
</svg>
