<svg xmlns="http://www.w3.org/2000/svg" width="24" height="24">
  <path fill="none" d="M0 0h24v24H0V0z"/>
  <path d="M12 8c-2.21 0-4 1.79-4 4s1.79 4 4 4 4-1.79 4-4-1.79-4-4-4z m-8 7c-0.55 0-1 0.45-1 1v3c0 1.1 0.9 2 2 2h3c0.55 0 1-0.45 1-1s-0.45-1-1-1H6c-0.55 0-1-0.45-1-1v-2c0-0.55-0.45-1-1-1z m1-9c0-0.55 0.45-1 1-1h2c0.55 0 1-0.45 1-1s-0.45-1-1-1H5c-1.1 0-2 0.9-2 2v3c0 0.55 0.45 1 1 1s1-0.45 1-1V6z m14-3h-3c-0.55 0-1 0.45-1 1s0.45 1 1 1h2c0.55 0 1 0.45 1 1v2c0 0.55 0.45 1 1 1s1-0.45 1-1V5c0-1.1-0.9-2-2-2z m0 15c0 0.55-0.45 1-1 1h-2c-0.55 0-1 0.45-1 1s0.45 1 1 1h3c1.1 0 2-0.9 2-2v-3c0-0.55-0.45-1-1-1s-1 0.45-1 1v2z"/>
</svg>
