<svg xmlns="http://www.w3.org/2000/svg" width="24" height="24">
  <path fill="none" d="M0 0H24V24H0z"/>
  <path d="M12 4c-4.41 0-8 3.59-8 8s3.59 8 8 8c4.41 0 8-3.59 8-8S16.41 4 12 4zM7 7h7v2H7V7zM7 10h7v2H7V10zM10 15H7v-2h3V15zM14.05 18.36l-2.83-2.83 1.41-1.41 1.41 1.41L17.59 12 19 13.41 14.05 18.36z" opacity=".3"/>
  <path d="M12 4c4.41 0 8 3.59 8 8s-3.59 8-8 8-8-3.59-8-8S7.59 4 12 4zM12 2C6.48 2 2 6.48 2 12c0 5.52 4.48 10 10 10 5.52 0 10-4.48 10-10C22 6.48 17.52 2 12 2zM14 10H7v2h7V10zM14 7H7v2h7V7zM7 15h3v-2H7V15zM19 13.41L17.59 12l-3.54 3.54-1.41-1.41-1.41 1.41 2.83 2.83L19 13.41z"/>
</svg>
