<svg xmlns="http://www.w3.org/2000/svg" width="24" height="24">
  <g fill="none">
    <path d="M0 0H24V24H0z"/>
    <path d="M0 0H24V24H0z"/>
  </g>
  <path d="M19.28 4.93l-2.12-2.12c-0.78-0.78-2.05-0.78-2.83 0L11.5 5.64l2.12 2.12 2.12-2.12 3.54 3.54C20.45 8 20.45 6.1 19.28 4.93z"/>
  <path d="M5.49 13.77c0.59 0.59 1.54 0.59 2.12 0l2.47-2.47L7.96 9.17l-2.47 2.47C4.9 12.23 4.9 13.18 5.49 13.77L5.49 13.77z"/>
  <path d="M14.33 8.46l-0.71 0.71-3.18-3.18C9.85 5.4 8.9 5.4 8.32 5.99c-0.59 0.59-0.59 1.54 0 2.12l3.18 3.18-7 7c-0.7 0.7-0.88 1.84-0.29 2.65 0.74 1.03 2.19 1.12 3.05 0.26L16.45 12c0.39 0.39 1.02 0.39 1.41 0 0.39-0.39 0.39-1.02 0-1.41l-2.12-2.12C15.35 8.07 14.72 8.07 14.33 8.46z"/>
</svg>
