<svg xmlns="http://www.w3.org/2000/svg" width="24" height="24">
  <g fill="none">
    <path d="M0 0H24V24H0z"/>
    <path d="M0 0H24V24H0z"/>
  </g>
  <path d="M20 13c0.55 0 1-0.45 1-1s-0.45-1-1-1h-1V5h1c0.55 0 1-0.45 1-1s-0.45-1-1-1H4C3.45 3 3 3.45 3 4s0.45 1 1 1h1v6H4c-0.55 0-1 0.45-1 1s0.45 1 1 1h1v6H4c-0.55 0-1 0.45-1 1s0.45 1 1 1h16c0.55 0 1-0.45 1-1s-0.45-1-1-1h-1v-6H20zM12 16c-1.66 0-3-1.32-3-2.95 0-1.16 0.41-1.58 2.24-3.68 0.4-0.46 1.12-0.46 1.51 0 1.82 2.09 2.24 2.52 2.24 3.68C15 14.68 13.66 16 12 16z"/>
</svg>
