<svg xmlns="http://www.w3.org/2000/svg" width="24" height="24">
  <path fill="none" d="M0 0h24v24H0V0z"/>
  <path d="M18 12c-0.55 0-1 0.45-1 1v2h-2c-0.55 0-1 0.45-1 1s0.45 1 1 1h3c0.55 0 1-0.45 1-1v-3c0-0.55-0.45-1-1-1zM7 9h2c0.55 0 1-0.45 1-1s-0.45-1-1-1H6c-0.55 0-1 0.45-1 1v3c0 0.55 0.45 1 1 1s1-0.45 1-1V9z m14-6H3c-1.1 0-2 0.9-2 2v14c0 1.1 0.9 2 2 2h18c1.1 0 2-0.9 2-2V5c0-1.1-0.9-2-2-2z m-1 16.01H4c-0.55 0-1-0.45-1-1V5.99c0-0.55 0.45-1 1-1h16c0.55 0 1 0.45 1 1v12.02c0 0.55-0.45 1-1 1z"/>
</svg>
