<svg xmlns="http://www.w3.org/2000/svg" width="24" height="24">
  <path fill="none" d="M0 0H24V24H0z"/>
  <path d="M5 10.04C6.38 10.53 8.77 11 12 11s5.62-0.47 7-0.96C19 9.86 16.22 9 12 9S5 9.86 5 10.04zM20 11.8c-1.82 0.73-4.73 1.2-8 1.2s-6.18-0.47-8-1.2v6.78c0.61 0.41 2.36 1.01 5 1.28V16h6v3.86c2.64-0.27 4.39-0.87 5-1.28V11.8z" opacity=".3"/>
  <path d="M7 5L3 7V3L7 5zM18 3v4l4-2L18 3zM11 2v4l4-2L11 2zM13 18h-2l0 4c-5.05-0.15-9-1.44-9-3v-9c0-1.66 4.48-3 10-3s10 1.34 10 3v9c0 1.56-3.95 2.85-9 3L13 18zM5 10.04C6.38 10.53 8.77 11 12 11s5.62-0.47 7-0.96C19 9.86 16.22 9 12 9S5 9.86 5 10.04zM20 11.8c-1.82 0.73-4.73 1.2-8 1.2s-6.18-0.47-8-1.2v6.78c0.61 0.41 2.36 1.01 5 1.28V16h6v3.86c2.64-0.27 4.39-0.87 5-1.28V11.8z"/>
</svg>
