<svg xmlns="http://www.w3.org/2000/svg" width="24" height="24">
  <path fill="none" d="M0 0h24v24H0z"/>
  <circle cx="20" cy="12" r="2"/>
  <circle cx="4" cy="12" r="2"/>
  <circle cx="12" cy="20" r="2"/>
  <path d="M10.05 8.59L6.03 4.55h-0.01l-0.31-0.32-1.42 1.41 4.02 4.05 0.01-0.01 0.31 0.32z m3.893 0.027l4.405-4.392L19.76 5.64l-4.405 4.393zM10.01 15.36l-1.42-1.41-4.03 4.01-0.32 0.33 1.41 1.41 4.03-4.02z m9.75 2.94l-3.99-4.01-0.36-0.35L14 15.35l3.99 4.01 0.35 0.35z"/>
  <circle cx="12" cy="4" r="2"/>
</svg>
