<svg xmlns="http://www.w3.org/2000/svg" width="24" height="24">
  <path fill="none" d="M0 0h24v24H0V0z"/>
  <path d="M4.01 8.54C5.2 9.23 6 10.52 6 12c0 1.47-0.81 2.77-2 3.46V18h16V6H4L4.01 8.54zM8.14 12.53l1.26 0.99 2.39-0.64-2.4-4.16 1.4-0.38 4.01 3.74 2.44-0.65c0.51-0.14 1.04 0.17 1.18 0.68 0.13 0.51-0.17 1.04-0.69 1.19l-8.86 2.36-1.66-2.88L8.14 12.53z" opacity=".3"/>
  <path d="M20.19 4H4C2.9 4 2.01 4.9 2.01 6v4C3.11 10 4 10.9 4 12s-0.89 2-2 2v4c0 1.1 0.9 2 2 2h16c1.1 0 2-0.9 2-2V6C22 4.9 21.19 4 20.19 4zM20 18H4v-2.54c1.19-0.69 2-1.99 2-3.46 0-1.48-0.8-2.77-1.99-3.46L4 6h16V18z"/>
  <path d="M17.73 13.3c0.52-0.15 0.82-0.68 0.69-1.19-0.14-0.51-0.67-0.82-1.18-0.68l-2.44 0.65-4.01-3.74-1.4 0.38 2.4 4.16L9.4 13.52l-1.26-0.99-0.93 0.25 1.66 2.88L17.73 13.3z"/>
</svg>
