<svg xmlns="http://www.w3.org/2000/svg" width="24" height="24">
  <path fill="none" d="M0 0H24V24H0z"/>
  <path d="M21.71 11.29l-9-9C12.52315540514423 2.1027719110077334 12.269509470406096 1.9975559679229495 12.005 1.9975559679229495 11.740490529593906 1.9975559679229495 11.486844594855771 2.1027719110077334 11.3 2.2899999999999987L8.21 5.38l1.41 1.41L12 4.42 19.58 12l-2.38 2.38 1.41 1.41 3.09-3.09c0.4-0.37 0.4-1 0.01-1.41z"/>
  <path d="M13 7.5 13 10.17 15.17 12.34 16.5 11z"/>
  <path d="M1.39 4.22l3.99 3.99-3.09 3.09C2.1027719110077343 11.48684459485577 1.9975559679229504 11.740490529593906 1.9975559679229504 12.005 1.9975559679229504 12.269509470406096 2.1027719110077343 12.52315540514423 2.2899999999999996 12.71l9 9c0.39 0.39 1.02 0.39 1.41 0l3.09-3.09 3.99 3.99 1.41-1.41L2.81 2.81 1.39 4.22z m6.64 6.63c-0.01 0.05-0.04 0.1-0.04 0.15v4h2v-2.18l4.38 4.38L12 19.58 4.42 12 6.8 9.62l1.23 1.23z"/>
</svg>
