<svg xmlns="http://www.w3.org/2000/svg" width="24" height="24">
  <path fill="none" d="M0 0h24v24H0V0z"/>
  <path d="M23 8C23.00020430297886 5.168607358320732 21.294706645595255 2.6159211795129718 18.67885237747124 1.5323664826743384 16.06299810934723 0.44881178583570414 13.051994784566887 1.0478009050848307 11.050000000001056 3.049999999998944 10.367329627117659 3.012603849108295 9.683681754349319 2.995929510748091 9.00000000000006 3c-4.42 0-8 0.5-8 4v10.5C1.0000000000000004 19.432996624407778 2.5670033755922237 21 4.5 21L3 22.5v0.5h12v-0.5L13.5 21C15.432996624407778 21 17 19.432996624407778 17 17.5v-2.58C20.440926692978675 14.423347449276427 22.995925480546738 11.476582180947926 23 8.000000000000002zM3 12V7h6.08C8.821330743414997 8.756160685936477 9.243447642662042 10.544791614949364 10.260000000000007 12.000000000000007H3z m6 7c-1.1 0-2-0.9-2-2s0.9-2 2-2 2 0.9 2 2-0.9 2-2 2z m7.71-6.06l-0.2 0.03L16 13l-0.47-0.02-0.16-0.02-0.29-0.04-0.2-0.04-0.22-0.06C14.581636646264668 12.802656604469098 14.504738725179779 12.779252889356306 14.430000000000003 12.750000000000002l-0.13-0.05C11.964098615935884 11.860360907849497 10.600496800520098 9.431445174140126 11.100000000000001 7c0.04-0.19 0.09-0.37 0.15-0.54l0.05-0.14 0.15-0.38 0.07-0.15 0.2-0.36 0.07-0.12 0.3-0.42 0.02-0.02c0.24-0.3 0.52-0.57 0.82-0.81l0.01-0.01 0.46-0.32 0.03-0.02C14.211294800970727 3.2561182812394636 15.09650875422607 3.011565010106665 16.000000000000004 2.999999999999999 18.59994963747477 3.0311837491771465 20.742075837021655 5.0498762381156155 20.927327902145308 7.643405149846763 21.112579967268964 10.23693406157791 19.279122001678275 12.539596848026207 16.71 12.94zM15 4h2v5h-2z m0 6h2v2h-2z"/>
</svg>
