<svg xmlns="http://www.w3.org/2000/svg" width="24" height="24">
  <path fill="none" d="M0 0H24V24H0z"/>
  <path d="M13 19v-2h5v-2h-8c-1.66 0-3-1.34-3-3 0-1.09 0.59-2.04 1.46-2.56C8.17 9.03 8 8.54 8 8c0-0.21 0.04-0.42 0.09-0.62C6.28 8.13 5 9.92 5 12c0 2.76 2.24 5 5 5v2H5v2h14v-2H13z"/>
  <path d="M10.56 5.51C11.91 5.54 13 6.64 13 8c0 0.75-0.33 1.41-0.85 1.87l0.59 1.62 0.94-0.34 0.34 0.94 1.88-0.68-0.34-0.94 0.94-0.34L13.76 2.6l-0.94 0.34L12.48 2 10.6 2.68l0.34 0.94L10 3.97 10.56 5.51z"/>
  <circle cx="10.5" cy="8" r="1.5"/>
</svg>
