<svg xmlns="http://www.w3.org/2000/svg" width="24" height="24">
  <path fill="none" d="M0 0h24v24H0z"/>
  <path d="M22.73 22.73L2.77 2.77 2 2l-0.73-0.73L0 2.54l4.39 4.39 2.21 4.66-1.35 2.45c-0.16 0.28-0.25 0.61-0.25 0.96 0 1.1 0.9 2 2 2h7.46l1.38 1.38c-0.5 0.36-0.83 0.95-0.83 1.62 0 1.1 0.89 2 1.99 2 0.67 0 1.26-0.33 1.62-0.84L21.46 24l1.27-1.27zM7.42 15c-0.14 0-0.25-0.11-0.25-0.25l0.03-0.12 0.9-1.63h2.36l2 2H7.42z m8.13-2c0.75 0 1.41-0.41 1.75-1.03l3.58-6.49c0.08-0.14 0.12-0.31 0.12-0.48 0-0.55-0.45-1-1-1H6.54l9.01 9zM7 18c-1.1 0-1.99 0.9-1.99 2S5.9 22 7 22s2-0.9 2-2-0.9-2-2-2z"/>
</svg>
