<svg xmlns="http://www.w3.org/2000/svg" width="24" height="24">
  <g fill="none">
    <path d="M0 0H24V24H0z"/>
    <path d="M0 0H24V24H0z"/>
  </g>
  <path d="M17 10.43V3c0-0.55-0.45-1-1-1H8C7.45 2 7 2.45 7 3v7.43c0 0.35 0.18 0.68 0.49 0.86l4.18 2.51-0.99 2.34-2.22 0.19C8 16.37 7.82 16.92 8.16 17.21l1.69 1.46-0.51 2.18c-0.1 0.43 0.37 0.77 0.75 0.54L12 20.23l1.91 1.15c0.38 0.23 0.85-0.11 0.75-0.54l-0.51-2.18 1.69-1.46c0.33-0.29 0.16-0.84-0.29-0.88l-2.22-0.19-0.99-2.34 4.18-2.51C16.82 11.11 17 10.79 17 10.43zM13 12.23l-1 0.6-1-0.6V3h2V12.23z"/>
</svg>
