<svg xmlns="http://www.w3.org/2000/svg" width="24" height="24">
  <path fill="none" d="M0 0h24v24H0V0z m0 0h24v24H0V0z"/>
  <path d="M12 6c0-0.55-0.45-1-1-1H5.82l0.66-3.18 0.02-0.23c0-0.31-0.13-0.59-0.33-0.8L5.38 0 0.44 4.94C0.17 5.21 0 5.59 0 6v6.5c0 0.83 0.67 1.5 1.5 1.5h6.75c0.62 0 1.15-0.38 1.38-0.91l2.26-5.29c0.07-0.17 0.11-0.36 0.11-0.55V6z m-2 1.13L7.92 12H2V6.21l1.93-1.93L3.36 7H10v0.13zM22.5 10h-6.75c-0.62 0-1.15 0.38-1.38 0.91l-2.26 5.29c-0.07 0.17-0.11 0.36-0.11 0.55V18c0 0.55 0.45 1 1 1h5.18l-0.66 3.18-0.02 0.24c0 0.31 0.13 0.59 0.33 0.8l0.79 0.78 4.94-4.94c0.27-0.27 0.44-0.65 0.44-1.06v-6.5c0-0.83-0.67-1.5-1.5-1.5z m-0.5 7.79l-1.93 1.93 0.57-2.72H14v-0.13L16.08 12H22v5.79z"/>
</svg>
