<svg xmlns="http://www.w3.org/2000/svg" width="24" height="24">
  <path fill="none" d="M0 0h24v24H0V0z"/>
  <path d="M20 2H4c-1.1 0-2 0.9-2 2v16c0 1.1 0.9 2 2 2h16c1.1 0 2-0.9 2-2V4c0-1.1-0.9-2-2-2z m-1 18H5c-0.55 0-1-0.45-1-1V5c0-0.55 0.45-1 1-1h14c0.55 0 1 0.45 1 1v14c0 0.55-0.45 1-1 1zM16 6h-3c-1.1 0-2 0.9-2 2v2.28c-0.6 0.35-1 0.98-1 1.72 0 1.1 0.9 2 2 2s2-0.9 2-2c0-0.74-0.4-1.38-1-1.72V8h3v7c0 0.55-0.45 1-1 1H9c-0.55 0-1-0.45-1-1V8h1c0.55 0 1-0.45 1-1s-0.45-1-1-1H8c-1.1 0-2 0.9-2 2v8c0 1.1 0.9 2 2 2h8c1.1 0 2-0.9 2-2V8c0-1.1-0.9-2-2-2z"/>
</svg>
