<svg xmlns="http://www.w3.org/2000/svg" width="24" height="24">
  <path fill="none" d="M0 0h24v24H0V0z"/>
  <path d="M5 17.5c0.83 0 1.5-0.67 1.5-1.5s-0.67-1.5-1.5-1.5-1.5 0.67-1.5 1.5 0.67 1.5 1.5 1.5zM9 13c0.55 0 1-0.45 1-1s-0.45-1-1-1-1 0.45-1 1 0.45 1 1 1z m0-4c0.55 0 1-0.45 1-1s-0.45-1-1-1-1 0.45-1 1 0.45 1 1 1zM4 21h16c0.55 0 1-0.45 1-1s-0.45-1-1-1H4c-0.55 0-1 0.45-1 1s0.45 1 1 1zM5 9.5c0.83 0 1.5-0.67 1.5-1.5S5.83 6.5 5 6.5 3.5 7.17 3.5 8 4.17 9.5 5 9.5z m0 4c0.83 0 1.5-0.67 1.5-1.5s-0.67-1.5-1.5-1.5-1.5 0.67-1.5 1.5 0.67 1.5 1.5 1.5zM9 17c0.55 0 1-0.45 1-1s-0.45-1-1-1-1 0.45-1 1 0.45 1 1 1z m8-0.5c0.28 0 0.5-0.22 0.5-0.5s-0.22-0.5-0.5-0.5-0.5 0.22-0.5 0.5 0.22 0.5 0.5 0.5zM3 4c0 0.55 0.45 1 1 1h16c0.55 0 1-0.45 1-1s-0.45-1-1-1H4c-0.55 0-1 0.45-1 1z m14 4.5c0.28 0 0.5-0.22 0.5-0.5s-0.22-0.5-0.5-0.5-0.5 0.22-0.5 0.5 0.22 0.5 0.5 0.5z m0 4c0.28 0 0.5-0.22 0.5-0.5s-0.22-0.5-0.5-0.5-0.5 0.22-0.5 0.5 0.22 0.5 0.5 0.5zM13 9c0.55 0 1-0.45 1-1s-0.45-1-1-1-1 0.45-1 1 0.45 1 1 1z m0 4c0.55 0 1-0.45 1-1s-0.45-1-1-1-1 0.45-1 1 0.45 1 1 1z m0 4c0.55 0 1-0.45 1-1s-0.45-1-1-1-1 0.45-1 1 0.45 1 1 1z"/>
</svg>
