<svg xmlns="http://www.w3.org/2000/svg" width="24" height="24">
  <g fill="none">
    <path d="M0 0H24V24H0z"/>
    <path d="M0 0H24V24H0z"/>
  </g>
  <path d="M5 5h2v1c0 1.1 0.9 2 2 2h6c1.1 0 2-0.9 2-2V5h2v5h2V5c0-1.1-0.9-2-2-2h-4.18C14.4 1.84 13.3 1 12 1S9.6 1.84 9.18 3H5C3.9 3 3 3.9 3 5v14c0 1.1 0.9 2 2 2h5v-2H5V5zM12 3c0.55 0 1 0.45 1 1s-0.45 1-1 1-1-0.45-1-1S11.45 3 12 3z"/>
  <path d="M22.3 20.9l-2-2c0.58-1.01 0.95-2.23 0.51-3.65-0.53-1.72-2.04-3.05-3.84-3.22-2.87-0.28-5.23 2.07-4.95 4.95 0.18 1.79 1.5 3.31 3.22 3.84 1.43 0.44 2.64 0.07 3.65-0.51l2 2c0.39 0.39 1.01 0.39 1.4 0S22.69 21.29 22.3 20.9zM16.5 19c-1.4 0-2.5-1.1-2.5-2.5 0-1.4 1.1-2.5 2.5-2.5s2.5 1.1 2.5 2.5C19 17.9 17.9 19 16.5 19z"/>
</svg>
