<svg xmlns="http://www.w3.org/2000/svg" width="24" height="24">
  <path fill="none" d="M0 0H24V24H0z"/>
  <path d="M15 14H16.5V15.5H15z" opacity=".3"/>
  <path d="M5 19h14V5H5V19zM13 5.5h3v6h-1.5V7H13V5.5zM13.5 12.5H17c0.55 0 1 0.45 1 1V16c0 0.55-0.45 1-1 1h-2v1.5h-1.5V12.5zM7.5 9c0-0.55 0.45-1 1-1h2V7h-3V5.5H11c0.55 0 1 0.45 1 1V8c0 0.55-0.45 1-1 1H9v1h3v1.5H7.5V9zM6 13.5c0-0.55 0.45-1 1-1h4.5c0.55 0 1 0.45 1 1v5H11V14h-1v3H8.5v-3h-1v4.5H6V13.5z" opacity=".3"/>
  <path d="M19 3H5C3.9 3 3 3.9 3 5v14c0 1.1 0.9 2 2 2h14c1.1 0 2-0.9 2-2V5C21 3.9 20.1 3 19 3zM19 19H5V5h14V19z"/>
  <path d="M14.5 11.5 16 11.5 16 5.5 13 5.5 13 7 14.5 7z"/>
  <path d="M12 10H9V9h2c0.55 0 1-0.45 1-1V6.5c0-0.55-0.45-1-1-1H7.5V7h3v1h-2c-0.55 0-1 0.45-1 1v2.5H12V10z"/>
  <path d="M7.5 14h1v3H10v-3h1v4.5h1.5v-5c0-0.55-0.45-1-1-1H7c-0.55 0-1 0.45-1 1v5h1.5V14z"/>
  <path d="M15 17h2c0.55 0 1-0.45 1-1v-2.5c0-0.55-0.45-1-1-1h-3.5v6H15V17zM15 14h1.5v1.5H15V14z"/>
</svg>
