<svg xmlns="http://www.w3.org/2000/svg" width="24" height="24">
  <path fill="none" d="M0 0H24V24H0z"/>
  <path d="M12 4.67c-4.05 3.7-6 6.79-6 9.14 0 3.63 2.65 6.2 6 6.2s6-2.57 6-6.2C18 11.46 16.05 8.36 12 4.67zM12.28 18.99c-2.13 0.13-4.62-1.09-5.19-4.12C7.01 14.42 7.37 14 7.83 14c0.37 0 0.67 0.26 0.74 0.62 0.41 2.23 2.28 2.98 3.64 2.87 0.43-0.02 0.79 0.32 0.79 0.75C13 18.64 12.68 18.97 12.28 18.99z" opacity=".3"/>
  <path d="M12 2c-5.33 4.55-8 8.48-8 11.8 0 4.98 3.8 8.2 8 8.2s8-3.22 8-8.2C20 10.48 17.33 6.55 12 2zM12 20c-3.35 0-6-2.57-6-6.2 0-2.34 1.95-5.44 6-9.14 4.05 3.7 6 6.79 6 9.14C18 17.43 15.35 20 12 20zM7.83 14c0.37 0 0.67 0.26 0.74 0.62 0.41 2.22 2.28 2.98 3.64 2.87 0.43-0.02 0.79 0.32 0.79 0.75 0 0.4-0.32 0.73-0.72 0.75-2.13 0.13-4.62-1.09-5.19-4.12C7.01 14.42 7.37 14 7.83 14z"/>
</svg>
