<svg xmlns="http://www.w3.org/2000/svg" width="24" height="24">
  <path fill="none" d="M0 0h24v24H0V0z"/>
  <path d="M21 2.21c-0.13 0-0.26 0.05-0.35 0.15l-0.79 0.79c-0.2 0.2-0.51 0.2-0.71 0l-0.79-0.79c-0.2-0.2-0.51-0.2-0.71 0l-0.79 0.79c-0.2 0.2-0.51 0.2-0.71 0l-0.79-0.79c-0.2-0.2-0.51-0.2-0.71 0l-0.79 0.79c-0.2 0.2-0.51 0.2-0.71 0l-0.79-0.79c-0.2-0.2-0.51-0.2-0.71 0l-0.79 0.79c-0.2 0.2-0.51 0.2-0.71 0l-0.8-0.8c-0.2-0.2-0.51-0.2-0.71 0l-0.79 0.8c-0.2 0.2-0.51 0.2-0.71 0l-0.79-0.8c-0.2-0.2-0.51-0.2-0.71 0l-0.79 0.8c-0.2 0.2-0.51 0.2-0.71 0l-0.79-0.8c-0.09-0.09-0.22-0.14-0.35-0.14V21.8c0.13 0 0.26-0.05 0.35-0.15l0.79-0.79c0.2-0.2 0.51-0.2 0.71 0l0.79 0.79c0.2 0.2 0.51 0.2 0.71 0l0.79-0.79c0.2-0.2 0.51-0.2 0.71 0l0.79 0.79c0.2 0.2 0.51 0.2 0.71 0l0.79-0.79c0.2-0.2 0.51-0.2 0.71 0l0.79 0.79c0.2 0.2 0.51 0.2 0.71 0l0.79-0.79c0.2-0.2 0.51-0.2 0.71 0l0.79 0.79c0.2 0.2 0.51 0.2 0.71 0l0.79-0.79c0.2-0.2 0.51-0.2 0.71 0l0.79 0.79c0.2 0.2 0.51 0.2 0.71 0l0.79-0.79c0.2-0.2 0.51-0.2 0.71 0l0.79 0.79c0.1 0.1 0.23 0.15 0.35 0.15V2.21zM17 17H7c-0.55 0-1-0.45-1-1s0.45-1 1-1h10c0.55 0 1 0.45 1 1s-0.45 1-1 1z m0-4H7c-0.55 0-1-0.45-1-1s0.45-1 1-1h10c0.55 0 1 0.45 1 1s-0.45 1-1 1z m0-4H7c-0.55 0-1-0.45-1-1s0.45-1 1-1h10c0.55 0 1 0.45 1 1s-0.45 1-1 1z"/>
</svg>
