<svg xmlns="http://www.w3.org/2000/svg" width="24" height="24">
  <path fill="none" d="M0 0H24V24H0z"/>
  <path d="M7.94 5.12L6.49 3.66C8.07 2.61 9.96 2 12 2c5.52 0 10 4.48 10 10 0 2.04-0.61 3.93-1.66 5.51l-1.46-1.46C19.59 14.86 20 13.48 20 12c0-4.41-3.59-8-8-8C10.52 4 9.14 4.41 7.94 5.12zM17.66 9.53l-1.41-1.41-2.65 2.65 1.41 1.41L17.66 9.53zM19.78 22.61l-2.27-2.27C15.93 21.39 14.04 22 12 22 6.48 22 2 17.52 2 12c0-2.04 0.61-3.93 1.66-5.51L1.39 4.22l1.41-1.41 18.38 18.38L19.78 22.61zM16.06 18.88l-3.88-3.88-1.59 1.59-4.24-4.24 1.41-1.41 2.83 2.83 0.18-0.18L5.12 7.94C4.41 9.14 4 10.52 4 12c0 4.41 3.59 8 8 8C13.48 20 14.86 19.59 16.06 18.88z"/>
</svg>
