<svg xmlns="http://www.w3.org/2000/svg" width="24" height="24">
  <path fill="none" d="M0 0h24v24H0V0z"/>
  <path d="M7 20H17V21H7z" opacity=".3"/>
  <path d="M7 17.52V18h10v-0.48C15.53 16.53 13.78 16 12 16S8.47 16.53 7 17.52z" opacity=".3"/>
  <circle cx="12" cy="10" r="1" opacity=".3"/>
  <path d="M7 3H17V4H7z" opacity=".3"/>
  <path d="M17 1H7C5.9 1 5 1.9 5 3v18c0 1.1 0.9 2 2 2h10c1.1 0 2-0.9 2-2V3C19 1.9 18.1 1 17 1zM17 21H7v-1h10V21zM17 18H7v-0.48C8.47 16.53 10.22 16 12 16s3.53 0.53 5 1.52V18zM17 15.21C15.5 14.44 13.8 14 12 14s-3.5 0.44-5 1.21V6h10V15.21zM17 4H7V3h10V4z"/>
  <path d="M12 13c1.66 0 3-1.34 3-3s-1.34-3-3-3-3 1.34-3 3S10.34 13 12 13zM12 9c0.55 0 1 0.45 1 1s-0.45 1-1 1-1-0.45-1-1S11.45 9 12 9z"/>
</svg>
