<svg xmlns="http://www.w3.org/2000/svg" width="24" height="24">
  <path fill="none" d="M0 0H24V24H0z"/>
  <path d="M7.95 5.13L9.03 6.2c0.05-0.55 0.12-1.12 0.24-1.71-0.46 0.17-0.9 0.39-1.32 0.64z" opacity=".3"/>
  <path d="M5.13 7.96C4.42 9.15 4 10.52 4 12c0 4.41 3.59 8 8 8 1.45 0 2.84-0.4 4.05-1.12L5.13 7.96z" opacity=".3"/>
  <path d="M9.27 4.49c-0.13 0.59-0.2 1.15-0.24 1.71l2.05 2.05c-0.27-2.05 0.1-4.22 1.26-6.23-0.12 0-0.23-0.01-0.35-0.01-2.05 0-3.93 0.61-5.5 1.65l1.46 1.46c0.42-0.24 0.86-0.46 1.32-0.63zM2.81 2.81L1.39 4.22l2.27 2.27C2.61 8.07 2 9.97 2 12c0 5.52 4.48 10 10 10 2.04 0 3.92-0.63 5.5-1.67l2.28 2.28 1.41-1.41L2.81 2.81zM12 20c-4.41 0-8-3.59-8-8 0-1.48 0.42-2.85 1.13-4.04l10.92 10.92C14.84 19.6 13.45 20 12 20z"/>
</svg>
