<svg xmlns="http://www.w3.org/2000/svg" width="24" height="24">
  <path fill="none" d="M0 0h24v24H0V0z"/>
  <path d="M13 5l0.75-1.5H17V2H7v1.5h4.75L11 5c-3.13 0.09-6 0.73-6 3.5V17c0 1.5 1.11 2.73 2.55 2.95l-1.19 1.19c-0.32 0.32-0.1 0.86 0.35 0.86H7.8c0.13 0 0.26-0.05 0.35-0.15L10 20h4l1.85 1.85c0.09 0.09 0.22 0.15 0.35 0.15h1.09c0.45 0 0.67-0.54 0.35-0.85l-1.19-1.19C17.89 19.73 19 18.5 19 17V8.5c0-2.77-2.87-3.41-6-3.5z m-1 13.5c-0.83 0-1.5-0.67-1.5-1.5s0.67-1.5 1.5-1.5 1.5 0.67 1.5 1.5-0.67 1.5-1.5 1.5z m5-4.5H7V9h10v5z"/>
</svg>
