<svg xmlns="http://www.w3.org/2000/svg" width="24" height="24">
  <path fill="none" d="M0 0h24v24H0V0z"/>
  <path d="M8 6c-3.31 0-6 2.69-6 6s2.69 6 6 6c2.35 0 4.38-1.36 5.36-3.32l0.01-0.01c0.4-0.81 0.63-1.71 0.63-2.67 0-3.31-2.69-6-6-6z m2.3 10l-0.7-2H6.4l-0.7 2H3.8L7 7h2l3.2 9h-1.9z m-3.45-3.35h2.3L8 9z" opacity=".3"/>
  <path d="M7 7l-3.2 9h1.9l0.7-2h3.2l0.7 2h1.9L9 7H7z m-0.15 5.65L8 9l1.15 3.65h-2.3z m13.95 0.64L19.3 7h-1.6l-1.49 6.29L15 7h-0.76l-0.01 0.01C12.76 5.18 10.53 4 8 4c-4.42 0-8 3.58-8 8s3.58 8 8 8c2.96 0 5.55-1.61 6.93-4 0.03-0.06 0.05-0.12 0.08-0.18 0.05-0.08 0.09-0.17 0.14-0.25l0.1 0.43H17l1.5-6.1L20 16h1.75l2.05-9H22l-1.2 6.29z m-7.43 1.38C12.38 16.64 10.35 18 8 18c-3.31 0-6-2.69-6-6s2.69-6 6-6 6 2.69 6 6c0 0.96-0.23 1.86-0.63 2.67z"/>
</svg>
