<svg xmlns="http://www.w3.org/2000/svg" width="24" height="24">
  <path fill="none" d="M0 0h24v24H0V0z"/>
  <path d="M0.71 2.39c-0.39 0.39-0.39 1.02 0 1.41L2 5.1V19c0 1.1 0.9 2 2 2h13.9l2.29 2.29c0.39 0.39 1.02 0.39 1.41 0 0.39-0.39 0.39-1.02 0-1.41L2.12 2.39C1.73 2 1.1 2 0.71 2.39zM6 19H4v-2h2v2z m0-4H4v-2h2v2z m-2-4V9h2v2H4z m6 8H8v-2h2v2z m-2-4v-2h2v2H8z m4 4v-2h1.9l2 2H12zM8 5h2v2h-0.45L12 9.45V9h7c0.55 0 1 0.45 1 1v7.45l2 2V9c0-1.1-0.9-2-2-2h-8V5c0-1.1-0.9-2-2-2H5.55L8 5.45V5z m8 6h2v2h-2z"/>
</svg>
