<svg xmlns="http://www.w3.org/2000/svg" width="24" height="24">
  <path fill="none" d="M0 0H24V24H0z"/>
  <path d="M5 10c-0.55 0-1 0.45-1 1v7c0 0.55 0.45 1 1 1s1-0.45 1-1v-7C6 10.45 5.55 10 5 10z" opacity=".3"/>
  <path d="M10 6H16V9H10z" opacity=".3"/>
  <path d="M19 11H8v7h12v-6C20 11.45 19.55 11 19 11zM13 17H9v-5h4V17zM15 17c-0.55 0-1-0.45-1-1s0.45-1 1-1 1 0.45 1 1S15.55 17 15 17zM15 14c-0.55 0-1-0.45-1-1s0.45-1 1-1 1 0.45 1 1S15.55 14 15 14zM18 17c-0.55 0-1-0.45-1-1s0.45-1 1-1 1 0.45 1 1S18.55 17 18 17zM18 14c-0.55 0-1-0.45-1-1s0.45-1 1-1 1 0.45 1 1S18.55 14 18 14z" opacity=".3"/>
  <path d="M19 9h-1V4H8v5H7.22C6.67 8.39 5.89 8 5 8c-1.66 0-3 1.34-3 3v7c0 1.66 1.34 3 3 3 0.89 0 1.67-0.39 2.22-1H22v-8C22 10.34 20.66 9 19 9zM6 18c0 0.55-0.45 1-1 1s-1-0.45-1-1v-7c0-0.55 0.45-1 1-1s1 0.45 1 1V18zM10 6h6v3h-6V6zM20 18H8v-7h11c0.55 0 1 0.45 1 1V18z"/>
  <circle cx="15" cy="13" r="1"/>
  <circle cx="18" cy="13" r="1"/>
  <circle cx="15" cy="16" r="1"/>
  <circle cx="18" cy="16" r="1"/>
  <path d="M9 12H13V17H9z"/>
</svg>
