<svg xmlns="http://www.w3.org/2000/svg" width="24" height="24">
  <path fill="none" d="M0 0H24V24H0z"/>
  <path d="M3.99 15.15H11.72V17.15H3.99z" opacity=".3" transform="rotate(-45.001 7.853 16.147)"/>
  <path d="M20 7 20.94 4.94 23 4 20.94 3.06 20 1 19.06 3.06 17 4 19.06 4.94z"/>
  <path d="M14.17 8.42l1.41 1.41-1.46 1.46 1.41 1.41 2.17-2.17c0.39-0.39 0.39-1.02 0-1.41l-2.83-2.83C14.68 6.1 14.43 6 14.17 6c-0.26 0-0.51 0.1-0.71 0.29l-2.17 2.17 1.41 1.41L14.17 8.42z"/>
  <path d="M2.81 2.81L1.39 4.22l7.07 7.07-6.17 6.17c-0.39 0.39-0.39 1.02 0 1.41l2.83 2.83C5.32 21.9 5.57 22 5.83 22s0.51-0.1 0.71-0.29l6.17-6.17 7.07 7.07 1.41-1.41L2.81 2.81zM5.83 19.59l-1.41-1.41 5.46-5.46 1.41 1.41L5.83 19.59z"/>
</svg>
