<svg xmlns="http://www.w3.org/2000/svg" width="24" height="24">
  <path fill="none" d="M0 0h24v24H0V0z"/>
  <path d="M5 18.08V19h0.92l5.12-5.12-0.92-0.92L5 18.08zM14.06 9.02l-1.11 1.11 0.92 0.92 1.11-1.11L14.06 9.02z" opacity=".3"/>
  <path d="M14.06 9.02l0.92 0.92-1.11 1.11 1.41 1.41 2.52-2.52-3.75-3.75-2.52 2.52 1.41 1.41L14.06 9.02zM20.71 7.04c0.39-0.39 0.39-1.02 0-1.41l-2.34-2.34C18.17 3.09 17.92 3 17.66 3s-0.51 0.1-0.7 0.29l-1.83 1.83 3.75 3.75L20.71 7.04zM2.81 2.81L1.39 4.22l7.32 7.32L3 17.25V21h3.75l5.71-5.71 7.32 7.32 1.41-1.41L2.81 2.81zM5.92 19H5v-0.92l5.13-5.13 0.92 0.92L5.92 19z"/>
</svg>
