<svg xmlns="http://www.w3.org/2000/svg" width="24" height="24">
  <path fill="none" d="M0 0h24v24H0z"/>
  <circle cx="14" cy="10" r="1.5"/>
  <circle cx="14" cy="18" r="1"/>
  <circle cx="14" cy="14" r="1.5"/>
  <circle cx="14" cy="6" r="1"/>
  <path d="M3 9.5c-0.28 0-0.5 0.22-0.5 0.5s0.22 0.5 0.5 0.5 0.5-0.22 0.5-0.5-0.22-0.5-0.5-0.5zM14.5 3c0-0.28-0.22-0.5-0.5-0.5s-0.5 0.22-0.5 0.5 0.22 0.5 0.5 0.5 0.5-0.22 0.5-0.5zM21 14.5c0.28 0 0.5-0.22 0.5-0.5s-0.22-0.5-0.5-0.5-0.5 0.22-0.5 0.5 0.22 0.5 0.5 0.5z"/>
  <circle cx="18" cy="18" r="1"/>
  <path d="M13.5 21c0 0.28 0.22 0.5 0.5 0.5s0.5-0.22 0.5-0.5-0.22-0.5-0.5-0.5-0.5 0.22-0.5 0.5zM21 10.5c0.28 0 0.5-0.22 0.5-0.5s-0.22-0.5-0.5-0.5-0.5 0.22-0.5 0.5 0.22 0.5 0.5 0.5z"/>
  <circle cx="18" cy="14" r="1"/>
  <circle cx="18" cy="6" r="1"/>
  <circle cx="6" cy="18" r="1"/>
  <circle cx="6" cy="14" r="1"/>
  <path d="M3.5 14c0-0.28-0.22-0.5-0.5-0.5s-0.5 0.22-0.5 0.5 0.22 0.5 0.5 0.5 0.5-0.22 0.5-0.5z"/>
  <circle cx="10" cy="6" r="1"/>
  <circle cx="6" cy="10" r="1"/>
  <circle cx="6" cy="6" r="1"/>
  <path d="M9.5 21c0 0.28 0.22 0.5 0.5 0.5s0.5-0.22 0.5-0.5-0.22-0.5-0.5-0.5-0.5 0.22-0.5 0.5z"/>
  <circle cx="10" cy="18" r="1"/>
  <path d="M10.5 3c0-0.28-0.22-0.5-0.5-0.5s-0.5 0.22-0.5 0.5 0.22 0.5 0.5 0.5 0.5-0.22 0.5-0.5z"/>
  <circle cx="10" cy="14" r="1.5"/>
  <circle cx="10" cy="10" r="1.5"/>
  <circle cx="18" cy="10" r="1"/>
</svg>
