<svg xmlns="http://www.w3.org/2000/svg" width="24" height="24">
  <g fill="none">
    <path d="M0 0H24V24H0z"/>
    <path d="M0 0H24V24H0z"/>
  </g>
  <path d="M19.05 4.91C17.18 3.03 14.69 2 12.04 2c-5.46 0-9.91 4.45-9.91 9.91 0 1.75 0.46 3.45 1.32 4.95L2.05 22l5.25-1.38c1.45 0.79 3.08 1.21 4.74 1.21h0c0 0 0 0 0 0 5.46 0 9.91-4.45 9.91-9.91C21.95 9.27 20.92 6.78 19.05 4.91zM12.04 20.15L12.04 20.15c-1.48 0-2.93-0.4-4.2-1.15l-0.3-0.18-3.12 0.82 0.83-3.04-0.2-0.31c-0.82-1.31-1.26-2.83-1.26-4.38 0-4.54 3.7-8.24 8.24-8.24 2.2 0 4.27 0.86 5.82 2.42 1.56 1.56 2.41 3.63 2.41 5.83C20.28 16.46 16.58 20.15 12.04 20.15zM16.56 13.99c-0.25-0.12-1.47-0.72-1.69-0.81-0.23-0.08-0.39-0.12-0.56 0.12-0.17 0.25-0.64 0.81-0.78 0.97-0.14 0.17-0.29 0.19-0.54 0.06-0.25-0.12-1.05-0.39-1.99-1.23-0.74-0.66-1.23-1.47-1.38-1.72-0.14-0.25-0.02-0.38 0.11-0.51 0.11-0.11 0.25-0.29 0.37-0.43 0.12-0.14 0.17-0.25 0.25-0.41 0.08-0.17 0.04-0.31-0.02-0.43-0.06-0.12-0.56-1.34-0.76-1.84-0.2-0.48-0.41-0.42-0.56-0.43C8.86 7.33 8.7 7.33 8.53 7.33c-0.17 0-0.43 0.06-0.66 0.31C7.65 7.89 7.01 8.49 7.01 9.71c0 1.22 0.89 2.4 1.01 2.56 0.12 0.17 1.75 2.67 4.23 3.74 0.59 0.26 1.05 0.41 1.41 0.52 0.59 0.19 1.13 0.16 1.56 0.1 0.48-0.07 1.47-0.6 1.67-1.18 0.21-0.58 0.21-1.07 0.14-1.18S16.81 14.11 16.56 13.99z"/>
</svg>
