<svg xmlns="http://www.w3.org/2000/svg" width="24" height="24">
  <path fill="none" d="M0 0h24v24H0V0z"/>
  <path d="M12 6c-3.86 0-7 3.14-7 7s3.14 7 7 7 7-3.14 7-7-3.14-7-7-7z m3.75 10.85L11 14V8h1.5v5.25l4 2.37-0.75 1.23z" opacity=".3"/>
  <path d="M12.5 8H11v6l4.75 2.85 0.75-1.23-4-2.37z m4.837-6.19l4.607 3.845-1.28 1.535-4.61-3.843z m-10.674 0l1.282 1.536L3.337 7.19l-1.28-1.536zM12 4c-4.97 0-9 4.03-9 9s4.03 9 9 9 9-4.03 9-9-4.03-9-9-9z m0 16c-3.86 0-7-3.14-7-7s3.14-7 7-7 7 3.14 7 7-3.14 7-7 7z"/>
</svg>
