<svg xmlns="http://www.w3.org/2000/svg" width="24" height="24">
  <path fill="none" d="M0 0h24v24H0z"/>
  <path d="M4.01 8.54C5.2 9.23 6 10.52 6 12s-0.81 2.77-2 3.46V18h16v-2.54c-1.19-0.69-2-1.99-2-3.46s0.81-2.77 2-3.46V6H4l0.01 2.54zM11 7h2v2h-2V7z m0 4h2v2h-2v-2z m0 4h2v2h-2v-2z" opacity=".3"/>
  <path d="M22 10V6c0-1.11-0.9-2-2-2H4c-1.1 0-1.99 0.89-1.99 2v4c1.1 0 1.99 0.9 1.99 2s-0.89 2-2 2v4c0 1.1 0.9 2 2 2h16c1.1 0 2-0.9 2-2v-4c-1.1 0-2-0.9-2-2s0.9-2 2-2z m-2-1.46c-1.19 0.69-2 1.99-2 3.46s0.81 2.77 2 3.46V18H4v-2.54c1.19-0.69 2-1.99 2-3.46 0-1.48-0.8-2.77-1.99-3.46L4 6h16v2.54zM11 15h2v2h-2z m0-4h2v2h-2z m0-4h2v2h-2z"/>
</svg>
