<svg xmlns="http://www.w3.org/2000/svg" width="24" height="24">
  <path fill="none" d="M0 0H24V24H0z"/>
  <path d="M5 13h14V8H5V13zM16.5 9c0.83 0 1.5 0.67 1.5 1.5 0 0.83-0.67 1.5-1.5 1.5S15 11.33 15 10.5C15 9.67 15.67 9 16.5 9zM7.5 9C8.33 9 9 9.67 9 10.5 9 11.33 8.33 12 7.5 12S6 11.33 6 10.5C6 9.67 6.67 9 7.5 9z" opacity=".3"/>
  <path d="M18.92 2.01C18.72 1.42 18.16 1 17.5 1h-11C5.84 1 5.29 1.42 5.08 2.01L3 8v8c0 0.55 0.45 1 1 1h1c0.55 0 1-0.45 1-1v-1h12v1c0 0.55 0.45 1 1 1h1c0.55 0 1-0.45 1-1V8L18.92 2.01zM6.85 3h10.29l1.08 3.11H5.77L6.85 3zM19 13H5V8h14V13z"/>
  <circle cx="7.5" cy="10.5" r="1.5"/>
  <circle cx="16.5" cy="10.5" r="1.5"/>
  <path d="M7 20 11 20 11 18 17 21 13 21 13 23z"/>
</svg>
