<svg xmlns="http://www.w3.org/2000/svg" width="24" height="24">
  <path fill="none" d="M0 0h24v24H0V0z"/>
  <path d="M0.31 2c-0.39 0.39-0.39 1.02 0 1.41l0.69 0.68V16c0 1.1 0.9 2 2 2h7v2H9c-0.55 0-1 0.45-1 1s0.45 1 1 1h6c0.55 0 1-0.45 1-1s-0.45-1-1-1h-1v-2h0.9l5.29 5.29c0.39 0.39 1.02 0.39 1.41 0 0.39-0.39 0.39-1.02 0-1.41L1.72 2C1.33 1.61 0.7 1.61 0.31 2z m2.68 13V6.09L12.9 16H3.99c-0.55 0-1-0.45-1-1zM4.55 2l2 2H20c0.55 0 1 0.45 1 1v10c0 0.55-0.45 1-1 1h-1.45l2 2h0.44c1.1 0 2-0.9 2-2V4c0-1.1-0.9-2-2-2H4.55z"/>
</svg>
