<svg xmlns="http://www.w3.org/2000/svg" width="24" height="24">
  <path fill="none" d="M0 0h24v24H0V0z"/>
  <path d="M2.1 3.51L2.1 3.51c-0.39 0.39-0.39 1.02 0 1.41l6.61 6.61L3.15 17.1C3.05 17.2 3 17.32 3 17.46v3.04C3 20.78 3.22 21 3.5 21h3.04c0.13 0 0.26-0.05 0.35-0.15l5.56-5.56 6.61 6.61c0.39 0.39 1.02 0.39 1.41 0l0 0c0.39-0.39 0.39-1.02 0-1.41L3.52 3.51C3.12 3.12 2.49 3.12 2.1 3.51z"/>
  <path d="M20.71 7.04c0.39-0.39 0.39-1.02 0-1.41l-2.34-2.34c-0.39-0.39-1.02-0.39-1.41 0l-1.83 1.83 3.75 3.75L20.71 7.04z"/>
  <path d="M12.89 6.67H16.45V11.969999999999999H12.89z" transform="rotate(-45.001 14.675 9.325)"/>
</svg>
