<svg xmlns="http://www.w3.org/2000/svg" width="24" height="24">
  <path fill="none" d="M0 0h24v24H0V0z"/>
  <path d="M19 3H5c-1.1 0-2 0.9-2 2v7c0 1.1 0.9 2 2 2h14c1.1 0 2-0.9 2-2V5c0-1.1-0.9-2-2-2zM5 10h3.13c0.21 0.78 0.67 1.47 1.27 2H5v-2z m14 2h-4.4c0.6-0.53 1.06-1.22 1.27-2H19v2z m0-4h-5v1c0 1.07-0.93 2-2 2s-2-0.93-2-2V8H5V5h14v3z m-5 7v1c0 0.47-0.19 0.9-0.48 1.25-0.37 0.45-0.92 0.75-1.52 0.75s-1.15-0.3-1.52-0.75c-0.29-0.35-0.48-0.78-0.48-1.25v-1H3v4c0 1.1 0.9 2 2 2h14c1.1 0 2-0.9 2-2v-4h-7z m-9 2h3.13c0.02 0.09 0.06 0.17 0.09 0.25 0.24 0.68 0.65 1.28 1.18 1.75H5v-2z m14 2h-4.4c0.54-0.47 0.95-1.07 1.18-1.75 0.03-0.08 0.07-0.16 0.09-0.25H19v2z"/>
  <path d="M8.13 10H5v2h4.4c-0.6-0.53-1.06-1.22-1.27-2z m6.47 2H19v-2h-3.13c-0.21 0.78-0.67 1.47-1.27 2z m-6.38 5.25c-0.03-0.08-0.06-0.16-0.09-0.25H5v2h4.4c-0.53-0.47-0.94-1.07-1.18-1.75z m7.65-0.25c-0.02 0.09-0.06 0.17-0.09 0.25-0.23 0.68-0.64 1.28-1.18 1.75H19v-2h-3.13z" opacity=".3"/>
</svg>
