<svg xmlns="http://www.w3.org/2000/svg" width="24" height="24">
  <path fill="none" d="M0 0h24v24H0V0z"/>
  <path d="M5 18.31l3-1.16V5.45L5 6.46z m11 0.24l3-1.01V5.69l-3 1.17z" opacity=".3"/>
  <path d="M20.5 3l-0.16 0.03L15 5.1 9 3 3.36 4.9c-0.21 0.07-0.36 0.25-0.36 0.48V20.5c0 0.28 0.22 0.5 0.5 0.5l0.16-0.03L9 18.9l6 2.1 5.64-1.9c0.21-0.07 0.36-0.25 0.36-0.48V3.5c0-0.28-0.22-0.5-0.5-0.5zM8 17.15l-3 1.16V6.46l3-1.01v11.7z m6 1.38l-4-1.4V5.47l4 1.4v11.66z m5-0.99l-3 1.01V6.86l3-1.16v11.84z"/>
</svg>
