<svg xmlns="http://www.w3.org/2000/svg" width="24" height="24">
  <path fill="none" d="M0 0H24V24H0z"/>
  <path d="M21.67 18.17l-5.3-5.3h-0.99l-2.54 2.54v0.99l5.3 5.3c0.39 0.39 1.02 0.39 1.41 0l2.12-2.12C22.06 19.2 22.06 18.56 21.67 18.17z"/>
  <path d="M17.34 10.19l1.41-1.41 2.12 2.12c1.17-1.17 1.17-3.07 0-4.24l-3.54-3.54-1.41 1.41V1.71L15.22 1l-3.54 3.54 0.71 0.71h2.83l-1.41 1.41 1.06 1.06-2.89 2.89L7.85 6.48V5.06L4.83 2.04 2 4.87l3.03 3.03h1.41l4.13 4.13-0.85 0.85H7.6l-5.3 5.3c-0.39 0.39-0.39 1.02 0 1.41l2.12 2.12c0.39 0.39 1.02 0.39 1.41 0l5.3-5.3v-2.12l5.15-5.15L17.34 10.19z"/>
</svg>
