<svg xmlns="http://www.w3.org/2000/svg" width="24" height="24">
  <path fill="none" d="M0 0h24v24H0V0z"/>
  <path d="M17.34 1.13c-2.94-0.55-5.63 0.75-7.12 2.92 0.01-0.01 0.01-0.02 0.02-0.03C9.84 4 9.42 4 9 4c-4.42 0-8 0.5-8 4v10c0 0.88 0.39 1.67 1 2.22V23h3v-2h8v2h3v-2.78c0.61-0.55 1-1.34 1-2.22v-3.08c3.72-0.54 6.5-3.98 5.92-7.97-0.42-2.9-2.7-5.29-5.58-5.82zM4.5 19c-0.83 0-1.5-0.67-1.5-1.5S3.67 16 4.5 16s1.5 0.67 1.5 1.5S5.33 19 4.5 19zM3 13V8h6c0 1.96 0.81 3.73 2.11 5H3z m10.5 6c-0.83 0-1.5-0.67-1.5-1.5s0.67-1.5 1.5-1.5 1.5 0.67 1.5 1.5-0.67 1.5-1.5 1.5z m2.5-6c-2.76 0-5-2.24-5-5s2.24-5 5-5 5 2.24 5 5-2.24 5-5 5z m0.5-9H15v5l3.62 2.16 0.75-1.23-2.87-1.68V4z"/>
</svg>
