<svg xmlns="http://www.w3.org/2000/svg" width="24" height="24">
  <path fill="none" d="M0 0h24v24H0V0z"/>
  <path d="M15 6c1.1 0 2 0.9 2 2 0 0.99-0.73 1.82-1.67 1.97l-2.31-2.31C13.19 6.72 14.01 6 15 6m0-2c-2.21 0-4 1.79-4 4 0 0.18 0.03 0.35 0.05 0.52l3.43 3.43c0.17 0.02 0.34 0.05 0.52 0.05 2.21 0 4-1.79 4-4s-1.79-4-4-4z m1.69 10.16L22.53 20H23v-2c0-2.14-3.56-3.5-6.31-3.84z m-3.68 1.97L14.88 18H9c0.08-0.24 0.88-1.01 2.91-1.57l1.1-0.3M1.41 1.71L0 3.12l4 4V10H1v2h3v3h2v-3h2.88l2.51 2.51C9.19 15.11 7 16.3 7 18v2h9.88l4 4 1.41-1.41L1.41 1.71zM6 10v-0.88l0.88 0.88H6z"/>
</svg>
