<svg xmlns="http://www.w3.org/2000/svg" width="24" height="24">
  <path fill="none" d="M0 0h24v24H0V0z"/>
  <path d="M3 18c0 0.55 0.45 1 1 1h5v-2H4c-0.55 0-1 0.45-1 1zM3 6c0 0.55 0.45 1 1 1h9V5H4c-0.55 0-1 0.45-1 1z m10 14v-1h7c0.55 0 1-0.45 1-1s-0.45-1-1-1h-7v-1c0-0.55-0.45-1-1-1s-1 0.45-1 1v4c0 0.55 0.45 1 1 1s1-0.45 1-1zM7 10v1H4c-0.55 0-1 0.45-1 1s0.45 1 1 1h3v1c0 0.55 0.45 1 1 1s1-0.45 1-1v-4c0-0.55-0.45-1-1-1s-1 0.45-1 1z m14 2c0-0.55-0.45-1-1-1h-9v2h9c0.55 0 1-0.45 1-1z m-5-3c0.55 0 1-0.45 1-1V7h3c0.55 0 1-0.45 1-1s-0.45-1-1-1h-3V4c0-0.55-0.45-1-1-1s-1 0.45-1 1v4c0 0.55 0.45 1 1 1z"/>
</svg>
