<svg xmlns="http://www.w3.org/2000/svg" width="24" height="24">
  <path fill="none" d="M0 0h24v24H0V0z"/>
  <circle cx="14" cy="6" r="1"/>
  <path d="M13.8 11.48l0.2 0.02c0.83 0 1.5-0.67 1.5-1.5s-0.67-1.5-1.5-1.5-1.5 0.67-1.5 1.5l0.02 0.2c0.09 0.67 0.61 1.19 1.28 1.28zM14 3.5c0.28 0 0.5-0.22 0.5-0.5s-0.22-0.5-0.5-0.5-0.5 0.22-0.5 0.5 0.22 0.5 0.5 0.5z m-4 0c0.28 0 0.5-0.22 0.5-0.5s-0.22-0.5-0.5-0.5-0.5 0.22-0.5 0.5 0.22 0.5 0.5 0.5z"/>
  <circle cx="18" cy="10" r="1"/>
  <circle cx="18" cy="6" r="1"/>
  <path d="M21 10.5c0.28 0 0.5-0.22 0.5-0.5s-0.22-0.5-0.5-0.5-0.5 0.22-0.5 0.5 0.22 0.5 0.5 0.5z"/>
  <circle cx="10" cy="6" r="1"/>
  <circle cx="18" cy="14" r="1"/>
  <circle cx="6" cy="18" r="1"/>
  <path d="M14 20.5c-0.28 0-0.5 0.22-0.5 0.5s0.22 0.5 0.5 0.5 0.5-0.22 0.5-0.5-0.22-0.5-0.5-0.5z m7-7c-0.28 0-0.5 0.22-0.5 0.5s0.22 0.5 0.5 0.5 0.5-0.22 0.5-0.5-0.22-0.5-0.5-0.5z m-18 0c-0.28 0-0.5 0.22-0.5 0.5s0.22 0.5 0.5 0.5 0.5-0.22 0.5-0.5-0.22-0.5-0.5-0.5z"/>
  <circle cx="10" cy="18" r="1"/>
  <path d="M3 9.5c-0.28 0-0.5 0.22-0.5 0.5s0.22 0.5 0.5 0.5 0.5-0.22 0.5-0.5-0.22-0.5-0.5-0.5z m7 11c-0.28 0-0.5 0.22-0.5 0.5s0.22 0.5 0.5 0.5 0.5-0.22 0.5-0.5-0.22-0.5-0.5-0.5z"/>
  <circle cx="6" cy="14" r="1"/>
  <path d="M2.5 5.27L6 8.77l0.28 0.28L6 9c-0.55 0-1 0.45-1 1s0.45 1 1 1 1-0.45 1-1c0-0.1-0.03-0.19-0.06-0.28l2.81 2.81c-0.71 0.11-1.25 0.73-1.25 1.47 0 0.83 0.67 1.5 1.5 1.5 0.74 0 1.36-0.54 1.47-1.25l2.81 2.81c-0.09-0.03-0.18-0.06-0.28-0.06-0.55 0-1 0.45-1 1s0.45 1 1 1 1-0.45 1-1c0-0.1-0.03-0.19-0.06-0.28l3.78 3.78h0.01l1.41-1.41L3.91 3.86 2.5 5.27z"/>
</svg>
