<svg xmlns="http://www.w3.org/2000/svg" width="24" height="24">
  <path fill="none" d="M0 0H24V24H0z"/>
  <path d="M16.5 3c-0.96 0-1.9 0.25-2.73 0.69L12 9h3l-3 10 1-9h-3l1.54-5.39C10.47 3.61 9.01 3 7.5 3 4.42 3 2 5.42 2 8.5c0 4.13 4.16 7.18 10 12.5 5.47-4.94 10-8.26 10-12.5C22 5.42 19.58 3 16.5 3zM10.24 16.73C6.45 13.34 4 11 4 8.5 4 6.54 5.54 5 7.5 5c0.59 0 1.19 0.15 1.73 0.42L7.35 12h3.42L10.24 16.73zM15.13 15.53L17.69 7h-2.91l0.61-1.82C15.75 5.06 16.13 5 16.5 5 18.46 5 20 6.54 20 8.5 20 10.71 17.98 12.93 15.13 15.53z"/>
</svg>
