<svg xmlns="http://www.w3.org/2000/svg" width="24" height="24">
  <path fill="none" d="M0 0h24v24H0V0z"/>
  <path d="M14 7.5c0.28 0 0.5-0.22 0.5-0.5s-0.22-0.5-0.5-0.5-0.5 0.22-0.5 0.5 0.22 0.5 0.5 0.5z"/>
  <circle cx="14" cy="10" r="1"/>
  <circle cx="14" cy="14" r="1"/>
  <path d="M10 16.5c-0.28 0-0.5 0.22-0.5 0.5s0.22 0.5 0.5 0.5 0.5-0.22 0.5-0.5-0.22-0.5-0.5-0.5z"/>
  <circle cx="10" cy="10" r="1"/>
  <path d="M7 13.5c-0.28 0-0.5 0.22-0.5 0.5s0.22 0.5 0.5 0.5 0.5-0.22 0.5-0.5-0.22-0.5-0.5-0.5zM12 2C6.48 2 2 6.48 2 12s4.48 10 10 10 10-4.48 10-10S17.52 2 12 2z m0 18c-4.42 0-8-3.58-8-8s3.58-8 8-8 8 3.58 8 8-3.58 8-8 8zM7 9.5c-0.28 0-0.5 0.22-0.5 0.5s0.22 0.5 0.5 0.5 0.5-0.22 0.5-0.5-0.22-0.5-0.5-0.5z"/>
  <circle cx="10" cy="14" r="1"/>
  <path d="M10 7.5c0.28 0 0.5-0.22 0.5-0.5s-0.22-0.5-0.5-0.5-0.5 0.22-0.5 0.5 0.22 0.5 0.5 0.5z m4 9c-0.28 0-0.5 0.22-0.5 0.5s0.22 0.5 0.5 0.5 0.5-0.22 0.5-0.5-0.22-0.5-0.5-0.5z m3-7c-0.28 0-0.5 0.22-0.5 0.5s0.22 0.5 0.5 0.5 0.5-0.22 0.5-0.5-0.22-0.5-0.5-0.5z m0 4c-0.28 0-0.5 0.22-0.5 0.5s0.22 0.5 0.5 0.5 0.5-0.22 0.5-0.5-0.22-0.5-0.5-0.5z"/>
</svg>
