<svg xmlns="http://www.w3.org/2000/svg" width="24" height="24">
  <path d="M22 8c0-0.55-0.45-1-1-1h-1V5c0-1.1-0.9-2-2-2H4c-1.1 0-2 0.9-2 2v14c0 1.1 0.9 2 2 2h14c1.1 0 2-0.9 2-2v-2h1c0.55 0 1-0.45 1-1s-0.45-1-1-1h-1v-2h1c0.55 0 1-0.45 1-1s-0.45-1-1-1h-1V9h1c0.55 0 1-0.45 1-1z m-5 11H5c-0.55 0-1-0.45-1-1V6c0-0.55 0.45-1 1-1h12c0.55 0 1 0.45 1 1v12c0 0.55-0.45 1-1 1zM6.5 13h4c0.28 0 0.5 0.22 0.5 0.5v3c0 0.28-0.22 0.5-0.5 0.5h-4c-0.28 0-0.5-0.22-0.5-0.5v-3c0-0.28 0.22-0.5 0.5-0.5z m6-6h3c0.28 0 0.5 0.22 0.5 0.5v2c0 0.28-0.22 0.5-0.5 0.5h-3c-0.28 0-0.5-0.22-0.5-0.5v-2c0-0.28 0.22-0.5 0.5-0.5z m-6 0h4c0.28 0 0.5 0.22 0.5 0.5v4c0 0.28-0.22 0.5-0.5 0.5h-4c-0.28 0-0.5-0.22-0.5-0.5v-4c0-0.28 0.22-0.5 0.5-0.5z m6 4h3c0.28 0 0.5 0.22 0.5 0.5v5c0 0.28-0.22 0.5-0.5 0.5h-3c-0.28 0-0.5-0.22-0.5-0.5v-5c0-0.28 0.22-0.5 0.5-0.5z"/>
</svg>
