<svg xmlns="http://www.w3.org/2000/svg" width="24" height="24">
  <path fill="none" d="M0 0H24V24H0z"/>
  <path d="M17 9.01V9H7v0.01V12h10V9.01zM9 11.5c-0.55 0-1-0.45-1-1s0.45-1 1-1 1 0.45 1 1S9.55 11.5 9 11.5zM15 11.5c-0.55 0-1-0.45-1-1s0.45-1 1-1 1 0.45 1 1S15.55 11.5 15 11.5z" opacity=".3"/>
  <circle cx="9" cy="10.5" r="1"/>
  <circle cx="15" cy="10.5" r="1"/>
  <path d="M5.78 16h0.44C6.65 16 7 15.64 7 15.19V14h10v1.19c0 0.45 0.34 0.81 0.78 0.81h0.44c0.43 0 0.78-0.36 0.78-0.81v-6.5c0 0-1.34-4.03-1.56-4.69-0.05-0.16-0.12-0.29-0.19-0.4-0.02-0.02-0.03-0.04-0.05-0.07C16.82 3.01 16.28 3 16.28 3H7.72c0 0-0.54 0.01-0.92 0.54C6.78 3.56 6.77 3.58 6.75 3.6 6.68 3.71 6.61 3.84 6.56 4 6.34 4.66 5 8.69 5 8.69v6.5C5 15.64 5.35 16 5.78 16zM8.33 5h7.34l0.23 0.69L16.33 7H7.67L8.33 5zM7 9.01V9h10v0.01V12H7V9.01z"/>
  <path d="M4 17.01 4 19 11 19 11 22 13 22 13 19 20 19 20 17.01z"/>
</svg>
