<svg xmlns="http://www.w3.org/2000/svg" width="24" height="24">
  <path fill="none" d="M0 0h24v24H0V0z"/>
  <path d="M10 10h1v4h-1z m6 0h1v4h-1zM4 18h16V6H4v12z m10-9c0-0.55 0.45-1 1-1h3c0.55 0 1 0.45 1 1v6c0 0.55-0.45 1-1 1h-3c-0.55 0-1-0.45-1-1V9zM8 9c0-0.55 0.45-1 1-1h3c0.55 0 1 0.45 1 1v6c0 0.55-0.45 1-1 1H9c-0.55 0-1-0.45-1-1V9zM5 8h2v8H5V8z" opacity=".3"/>
  <path d="M15 16h3c0.55 0 1-0.45 1-1V9c0-0.55-0.45-1-1-1h-3c-0.55 0-1 0.45-1 1v6c0 0.55 0.45 1 1 1z m1-6h1v4h-1v-4z m-7 6h3c0.55 0 1-0.45 1-1V9c0-0.55-0.45-1-1-1H9c-0.55 0-1 0.45-1 1v6c0 0.55 0.45 1 1 1z m1-6h1v4h-1v-4zM5 8h2v8H5zM2 4v16h20V4H2z m18 14H4V6h16v12z"/>
</svg>
