<svg xmlns="http://www.w3.org/2000/svg" width="24" height="24">
  <path fill="none" d="M0 0h24v24H0V0z"/>
  <path d="M21 15h2v2h-2v-2z m0-4h2v2h-2v-2z m2 8h-2v2c1 0 2-1 2-2zM13 3h2v2h-2V3z m8 4h2v2h-2V7z m0-4v2h2c0-1-1-2-2-2zM1 7h2v2H1V7z m16-4h2v2h-2V3z m0 16h2v2h-2v-2zM3 3C2 3 1 4 1 5h2V3z m6 0h2v2H9V3zM5 3h2v2H5V3z m-4 8v8c0 1.1 0.9 2 2 2h12v-8c0-1.1-0.9-2-2-2H1z m2.63 7.19l1.49-1.91c0.2-0.25 0.57-0.26 0.78-0.01l1.39 1.67 2.1-2.7c0.2-0.26 0.6-0.26 0.79 0.01l2.22 2.96c0.25 0.33 0.01 0.8-0.4 0.8H4.02c-0.41-0.01-0.65-0.49-0.39-0.82z"/>
</svg>
