<svg xmlns="http://www.w3.org/2000/svg" width="24" height="24">
  <g fill="none">
    <path d="M0 0H24V24H0z"/>
    <path d="M0 0H24V24H0z"/>
  </g>
  <path d="M20 3H4C2.9 3 2 3.9 2 5v12c0 1.1 0.89 2 2 2h4v1c0 0.55 0.45 1 1 1h6c0.55 0 1-0.45 1-1v-1h4c1.1 0 2-0.9 2-2V5C22 3.89 21.1 3 20 3zM20 17H4V5h16V17z"/>
  <path d="M6 8.25H14V9.75H6z"/>
  <path d="M16.5 9.75 18 9.75 18 8.25 16.5 8.25 16.5 7 15 7 15 11 16.5 11z"/>
  <path d="M10 12.25H18V13.75H10z"/>
  <path d="M7.5 15 9 15 9 11 7.5 11 7.5 12.25 6 12.25 6 13.75 7.5 13.75z"/>
</svg>
