<svg xmlns="http://www.w3.org/2000/svg" width="24" height="24">
  <path fill="none" d="M0 0h24v24H0V0z"/>
  <path d="M5 15h14V9H5V15zM7 11h10v2H7V11z"/>
  <path d="M11 2H13V5H11z"/>
  <path d="M17.62 5.2H20.16V7.2H17.62z" transform="rotate(-45.203 18.893 6.2)"/>
  <path d="M11 19H13V22H11z"/>
  <path d="M17.29 17.71 19.08 19.51 20.5 18.09 18.7 16.3z"/>
  <path d="M4.1 4.93H6.09V7.459999999999999H4.1z" transform="rotate(-45.001 5.1 6.2)"/>
  <path d="M3.83 16.89H6.37V18.89H3.83z" transform="rotate(-44.798 5.1 17.893)"/>
</svg>
