<svg xmlns="http://www.w3.org/2000/svg" width="24" height="24">
  <path fill="none" d="M0 0h24v24H0V0z"/>
  <path d="M4 6H2v14c0 1.1 0.9 2 2 2h14v-2H4V6z"/>
  <path d="M10 9h1v1h-1z m4 0h1v3h-1z m-6 7h12V4H8v12z m9-8h2v1h-1v1h1v1h-1v2h-1V8z m-4 0h2c0.55 0 1 0.45 1 1v3c0 0.55-0.45 1-1 1h-2V8zM9 8h2c0.55 0 1 0.45 1 1v1c0 0.55-0.45 1-1 1h-1v2H9V8z" opacity=".3"/>
  <path d="M20 2H8c-1.1 0-2 0.9-2 2v12c0 1.1 0.9 2 2 2h12c1.1 0 2-0.9 2-2V4c0-1.1-0.9-2-2-2z m0 14H8V4h12v12z m-4-4V9c0-0.55-0.45-1-1-1h-2v5h2c0.55 0 1-0.45 1-1z m-2-3h1v3h-1V9z m4 2h1v-1h-1V9h1V8h-2v5h1z m-8 0h1c0.55 0 1-0.45 1-1V9c0-0.55-0.45-1-1-1H9v5h1v-2z m0-2h1v1h-1V9z"/>
</svg>
