<svg xmlns="http://www.w3.org/2000/svg" width="24" height="24">
  <path fill="none" d="M0 0H24V24H0z"/>
  <path d="M2 22 16 17 7 8z"/>
  <path d="M14.53 12.53l5.59-5.59c0.49-0.49 1.28-0.49 1.77 0l0.59 0.59 1.06-1.06-0.59-0.59c-1.07-1.07-2.82-1.07-3.89 0l-5.59 5.59L14.53 12.53z"/>
  <path d="M10.06 6.88L9.47 7.47l1.06 1.06 0.59-0.59c1.07-1.07 1.07-2.82 0-3.89l-0.59-0.59L9.47 4.53l0.59 0.59C10.54 5.6 10.54 6.4 10.06 6.88z"/>
  <path d="M17.06 11.88l-1.59 1.59 1.06 1.06 1.59-1.59c0.49-0.49 1.28-0.49 1.77 0l1.61 1.61 1.06-1.06-1.61-1.61C19.87 10.81 18.13 10.81 17.06 11.88z"/>
  <path d="M15.06 5.88l-3.59 3.59 1.06 1.06 3.59-3.59c1.07-1.07 1.07-2.82 0-3.89l-1.59-1.59-1.06 1.06 1.59 1.59C15.54 4.6 15.54 5.4 15.06 5.88z"/>
</svg>
