<svg xmlns="http://www.w3.org/2000/svg" width="24" height="24">
  <path fill="none" d="M0 0H24V24H0z"/>
  <path d="M3 3H15V5H3z"/>
  <path d="M7.5 17.5 10.5 17.5 10.5 15 13 15 13 12 10.5 12 10.5 9.5 7.5 9.5 7.5 12 5 12 5 15 7.5 15z"/>
  <path d="M14 6H4C2.9 6 2 6.9 2 8v11c0 1.1 0.9 2 2 2h10c1.1 0 2-0.9 2-2V8C16 6.9 15.1 6 14 6zM14 19H4V8h10V19z"/>
  <path d="M20 6c-1.68 0-3 1.76-3 4 0 1.77 0.83 3.22 2 3.76V20c0 0.55 0.45 1 1 1s1-0.45 1-1v-6.24c1.17-0.54 2-1.99 2-3.76C23 7.76 21.68 6 20 6zM20 12c-0.41 0-1-0.78-1-2s0.59-2 1-2 1 0.78 1 2S20.41 12 20 12z"/>
</svg>
