<svg xmlns="http://www.w3.org/2000/svg" width="24" height="24">
  <path fill="none" d="M0.01 0h24v24h-24V0z"/>
  <path d="M5.5 21v-6.5H5c-0.55 0-1-0.45-1-1V9c0-1.1 0.9-2 2-2h3c1.1 0 2 0.9 2 2v4.5c0 0.55-0.45 1-1 1h-0.5V21c0 0.55-0.45 1-1 1h-2c-0.55 0-1-0.45-1-1zM18 21v-5h1.61c0.68 0 1.16-0.67 0.95-1.32l-2.1-6.31C18.18 7.55 17.42 7 16.56 7h-0.12c-0.86 0-1.63 0.55-1.9 1.37l-2.1 6.31c-0.22 0.65 0.26 1.32 0.95 1.32H15v5c0 0.55 0.45 1 1 1h1c0.55 0 1-0.45 1-1zM7.5 6c1.11 0 2-0.89 2-2s-0.89-2-2-2-2 0.89-2 2 0.89 2 2 2z m9 0c1.11 0 2-0.89 2-2s-0.89-2-2-2-2 0.89-2 2 0.89 2 2 2z"/>
</svg>
