<svg xmlns="http://www.w3.org/2000/svg" width="24" height="24">
  <path fill="none" d="M0 0H24V24H0z"/>
  <path d="M16.5 9c-0.42 0-0.83 0.04-1.24 0.11L1.01 3 1 10l10.06 1.34c-0.42 0.44-0.78 0.93-1.09 1.46L1 14l0.01 7 8.07-3.46C9.59 21.19 12.71 24 16.5 24c4.14 0 7.5-3.36 7.5-7.5S20.64 9 16.5 9zM3 8.25l0.01-2.22 7.51 3.22L3 8.25zM9.1 15.36L3 17.97v-2.22l6.17-0.82C9.14 15.07 9.12 15.21 9.1 15.36zM16.5 22c-3.03 0-5.5-2.47-5.5-5.5s2.47-5.5 5.5-5.5 5.5 2.47 5.5 5.5S19.53 22 16.5 22z"/>
  <path d="M18.27 14.03 16.5 15.79 14.73 14.03 14.03 14.73 15.79 16.5 14.03 18.27 14.73 18.97 16.5 17.21 18.27 18.97 18.97 18.27 17.21 16.5 18.97 14.73z"/>
</svg>
