<svg xmlns="http://www.w3.org/2000/svg" width="24" height="24">
  <path fill="none" d="M0 0h24v24H0V0z"/>
  <path d="M10.5 9h3c0.28 0 0.5-0.22 0.5-0.5V6h1.79c0.45 0 0.67-0.54 0.35-0.85l-3.79-3.79c-0.2-0.2-0.51-0.2-0.71 0L7.85 5.15c-0.31 0.31-0.09 0.85 0.36 0.85H10v2.5c0 0.28 0.22 0.5 0.5 0.5z m-2 1H6V8.21c0-0.45-0.54-0.67-0.85-0.35l-3.79 3.79c-0.2 0.2-0.2 0.51 0 0.71l3.79 3.79c0.31 0.31 0.85 0.09 0.85-0.36V14h2.5c0.28 0 0.5-0.22 0.5-0.5v-3c0-0.28-0.22-0.5-0.5-0.5z m14.15 1.65l-3.79-3.79c-0.32-0.32-0.86-0.1-0.86 0.35V10h-2.5c-0.28 0-0.5 0.22-0.5 0.5v3c0 0.28 0.22 0.5 0.5 0.5H18v1.79c0 0.45 0.54 0.67 0.85 0.35l3.79-3.79c0.2-0.19 0.2-0.51 0.01-0.7zM13.5 15h-3c-0.28 0-0.5 0.22-0.5 0.5V18H8.21c-0.45 0-0.67 0.54-0.35 0.85l3.79 3.79c0.2 0.2 0.51 0.2 0.71 0l3.79-3.79c0.31-0.31 0.09-0.85-0.35-0.85H14v-2.5c0-0.28-0.22-0.5-0.5-0.5z"/>
</svg>
