<svg xmlns="http://www.w3.org/2000/svg" width="24" height="24">
  <path fill="none" d="M0 0H24V24H0z"/>
  <path d="M12 3.19L5 6.3V11c0 4.52 2.98 8.69 7 9.93 4.02-1.23 7-5.41 7-9.93V6.3L12 3.19zM14.5 12.59l0.9 3.88L12 14.42l-3.4 2.05 0.9-3.87-3-2.59 3.96-0.34L12 6.02l1.54 3.64L17.5 10 14.5 12.59z" opacity=".3"/>
  <path d="M14.5 12.59l0.9 3.88L12 14.42l-3.4 2.05 0.9-3.87-3-2.59 3.96-0.34L12 6.02l1.54 3.64L17.5 10 14.5 12.59zM12 3.19l7 3.11V11c0 4.52-2.98 8.69-7 9.93C7.98 19.69 5 15.52 5 11V6.3L12 3.19M12 1L3 5v6c0 5.55 3.84 10.74 9 12 5.16-1.26 9-6.45 9-12V5L12 1 12 1z"/>
</svg>
