<svg xmlns="http://www.w3.org/2000/svg" width="24" height="24">
  <path fill="none" d="M0 0H24V24H0z"/>
  <path d="M3.64 14.29H13.780000000000001V16.29H3.64z" opacity=".3" transform="rotate(-45.001 8.707 15.293)"/>
  <path d="M20 7 20.94 4.94 23 4 20.94 3.06 20 1 19.06 3.06 17 4 19.06 4.94z"/>
  <path d="M8.5 7 9.44 4.94 11.5 4 9.44 3.06 8.5 1 7.56 3.06 5.5 4 7.56 4.94z"/>
  <path d="M20 12.5 19.06 14.56 17 15.5 19.06 16.44 20 18.5 20.94 16.44 23 15.5 20.94 14.56z"/>
  <path d="M17.71 9.12l-2.83-2.83C14.68 6.1 14.43 6 14.17 6c-0.26 0-0.51 0.1-0.71 0.29L2.29 17.46c-0.39 0.39-0.39 1.02 0 1.41l2.83 2.83C5.32 21.9 5.57 22 5.83 22s0.51-0.1 0.71-0.29l11.17-11.17C18.1 10.15 18.1 9.51 17.71 9.12zM5.83 19.59l-1.41-1.41L11.59 11 13 12.41 5.83 19.59zM14.41 11L13 9.59l1.17-1.17 1.41 1.41L14.41 11z"/>
</svg>
