<svg xmlns="http://www.w3.org/2000/svg" width="24" height="24">
  <g fill="none">
    <path d="M0 0H24V24H0z"/>
    <path d="M0 0H24V24H0z"/>
  </g>
  <path d="M8.71 7.71c-0.39-0.39-0.39-1.02 0-1.41l2.59-2.59c0.39-0.39 1.02-0.39 1.41 0l2.59 2.59c0.39 0.39 0.39 1.02 0 1.41-0.39 0.39-1.02 0.39-1.41 0L13 6.83v5.1c0 1.06 0.42 2.08 1.17 2.83l4.12 4.12c0.39 0.39 0.39 1.02 0 1.41s-1.02 0.39-1.41 0L12 15.41l-4.88 4.88c-0.39 0.39-1.02 0.39-1.41 0-0.39-0.39-0.39-1.02 0-1.41l4.12-4.12c0.75-0.75 1.17-1.77 1.17-2.83v-5.1l-0.88 0.88C9.73 8.1 9.1 8.1 8.71 7.71z"/>
</svg>
