<svg xmlns="http://www.w3.org/2000/svg" width="24" height="24">
  <path fill="none" d="M0 0h24v24H0V0z"/>
  <path d="M12 5H9V3H7v2H4v15h8v-2h8V7h-8V5z m-1 12H9v-2h2v2z m0-7H9V8h2v2z m6-2h2v2h-2V8z m0 7h2v2h-2v-2z m-4-7h2v2h-2V8z m0 7h2v2h-2v-2z" opacity=".3"/>
  <path d="M14 5c0-1.1-0.9-2-2-2h-1V2c0-0.55-0.45-1-1-1H6c-0.55 0-1 0.45-1 1v1H4c-1.1 0-2 0.9-2 2v15c0 1.1 0.9 2 2 2h8c1.1 0 2-0.9 2-2h8V5h-8z m6 13h-8v2H4V5h3V3h2v2h3v2h8v11zM9 15h2v2H9z m0-7h2v2H9z m4 7h2v2h-2z m0-7h2v2h-2z m4 7h2v2h-2z m0-7h2v2h-2z"/>
</svg>
