<svg xmlns="http://www.w3.org/2000/svg" width="24" height="24">
  <path fill="none" d="M0 0H24V24H0z"/>
  <path d="M3 2H11V4H3z"/>
  <path d="M6 11 8 11 8 7 11 7 11 5 3 5 3 7 6 7z"/>
  <path d="M11.5 16H22.5V18H11.5z" transform="rotate(-45.001 17 17)"/>
  <circle cx="14.5" cy="14.5" r="1.5"/>
  <circle cx="19.5" cy="19.5" r="1.5"/>
  <path d="M15.5 11c1.38 0 2.5-1.12 2.5-2.5V4h3V2h-4v4.51C16.58 6.19 16.07 6 15.5 6 14.12 6 13 7.12 13 8.5 13 9.88 14.12 11 15.5 11z"/>
  <path d="M9.74 15.96l-1.41 1.41-0.71-0.71 0.35-0.35c0.98-0.98 0.98-2.56 0-3.54-0.49-0.49-1.13-0.73-1.77-0.73-0.64 0-1.28 0.24-1.77 0.73-0.98 0.98-0.98 2.56 0 3.54l0.35 0.35-1.06 1.06c-0.98 0.98-0.98 2.56 0 3.54C4.22 21.76 4.86 22 5.5 22s1.28-0.24 1.77-0.73l1.06-1.06 1.41 1.41 1.41-1.41-1.41-1.41 1.41-1.41L9.74 15.96zM5.85 14.2c0.12-0.12 0.26-0.15 0.35-0.15s0.23 0.03 0.35 0.15c0.19 0.2 0.19 0.51 0 0.71l-0.35 0.35L5.85 14.9C5.66 14.71 5.66 14.39 5.85 14.2zM5.85 19.85C5.73 19.97 5.59 20 5.5 20s-0.23-0.03-0.35-0.15c-0.19-0.19-0.19-0.51 0-0.71l1.06-1.06 0.71 0.71L5.85 19.85z"/>
</svg>
