<svg xmlns="http://www.w3.org/2000/svg" width="24" height="24">
  <path fill="none" d="M0 0H24V24H0z"/>
  <path d="M4 17h16V5H4V17zM18 13.75h-8v-1.5h8V13.75zM15 7h1.5v1.25H18v1.5h-1.5V11H15V7zM6 8.25h8v1.5H6V8.25zM6 12.25h1.5V11H9v4H7.5v-1.25H6V12.25z" opacity=".3"/>
  <path d="M20 3H4C2.89 3 2 3.89 2 5v12c0 1.1 0.89 2 2 2h4v2h8v-2h4c1.1 0 2-0.9 2-2V5C22 3.89 21.1 3 20 3zM20 17H4V5h16V17z"/>
  <path d="M6 8.25H14V9.75H6z"/>
  <path d="M16.5 9.75 18 9.75 18 8.25 16.5 8.25 16.5 7 15 7 15 11 16.5 11z"/>
  <path d="M10 12.25H18V13.75H10z"/>
  <path d="M7.5 15 9 15 9 11 7.5 11 7.5 12.25 6 12.25 6 13.75 7.5 13.75z"/>
</svg>
