<svg xmlns="http://www.w3.org/2000/svg" width="24" height="24">
  <path fill="none" d="M0 0h24v24H0V0z"/>
  <path d="M22.41 10.41l-4.83-4.83c-0.37-0.37-0.88-0.58-1.41-0.58H3c-1.1 0-2 0.89-2 2v7c0 1.1 0.9 2 2 2 0 1.66 1.34 3 3 3s3-1.34 3-3h6c0 1.66 1.34 3 3 3s3-1.34 3-3c1.1 0 2-0.9 2-2v-2.17c0-0.53-0.21-1.04-0.59-1.42zM3 10V8c0-0.55 0.45-1 1-1h3v4H4c-0.55 0-1-0.45-1-1z m3 7.25c-0.69 0-1.25-0.56-1.25-1.25s0.56-1.25 1.25-1.25 1.25 0.56 1.25 1.25-0.56 1.25-1.25 1.25zM13 11H9V7h4v4z m5 6.25c-0.69 0-1.25-0.56-1.25-1.25s0.56-1.25 1.25-1.25 1.25 0.56 1.25 1.25-0.56 1.25-1.25 1.25zM15 11V7h1l4 4h-5z"/>
</svg>
