<svg xmlns="http://www.w3.org/2000/svg" width="24" height="24">
  <g fill="none">
    <path d="M0 0H24V24H0z"/>
    <path d="M0 0H24V24H0z"/>
  </g>
  <path d="M20 2H4C2.9 2 2 2.9 2 4v16c0 1.1 0.9 2 2 2h16c1.1 0 2-0.9 2-2V4C22 2.9 21.1 2 20 2zM20 19c0 0.55-0.45 1-1 1h-1v-1c0-0.55-0.45-1-1-1h-1.15c0.71-0.85 1.15-1.89 1.15-3 0-1.89-1.09-2.84-1.85-3.36-1.86-1.27-2.23-2.78-2.25-3.72-0.01-0.4-0.43-0.63-0.77-0.43-5.8 3.43-5.15 7-5.13 7.51 0.03 0.96 0.49 2.07 1.24 3H7c-0.55 0-1 0.45-1 1v1H5c-0.55 0-1-0.45-1-1V5c0-0.55 0.45-1 1-1h14c0.55 0 1 0.45 1 1V19zM13.2 13.74c-0.08-0.46-0.07-0.85 0.08-1.28 0.54 1.21 2.15 1.64 1.98 3.18-0.19 1.69-2.11 2.37-3.39 1.32 0.76-0.24 1.4-1.04 1.53-1.63C13.52 14.78 13.29 14.29 13.2 13.74z"/>
</svg>
