<svg xmlns="http://www.w3.org/2000/svg" width="24" height="24">
  <path fill="none" d="M0 0h24v24H0V0z"/>
  <path d="M7.29 7c0.45 0 0.67-0.54 0.35-0.85l-2.29-2.3c-0.2-0.2-0.51-0.2-0.71 0l-2.29 2.3c-0.31 0.31-0.09 0.85 0.36 0.85H4v10H2.71c-0.45 0-0.67 0.54-0.35 0.85l2.29 2.29c0.2 0.2 0.51 0.2 0.71 0l2.29-2.29c0.31-0.31 0.09-0.85-0.36-0.85H6V7h1.29zM11 7h10c0.55 0 1-0.45 1-1s-0.45-1-1-1H11c-0.55 0-1 0.45-1 1s0.45 1 1 1z m10 10H11c-0.55 0-1 0.45-1 1s0.45 1 1 1h10c0.55 0 1-0.45 1-1s-0.45-1-1-1z m0-6H11c-0.55 0-1 0.45-1 1s0.45 1 1 1h10c0.55 0 1-0.45 1-1s-0.45-1-1-1z"/>
</svg>
