<svg xmlns="http://www.w3.org/2000/svg" width="24" height="24">
  <path fill="none" d="M0 0H24V24H0z"/>
  <path d="M18 7H6v12h12V7zM7.5 11.5C7.5 10.67 8.17 10 9 10s1.5 0.67 1.5 1.5S9.83 13 9 13 7.5 12.33 7.5 11.5zM16 17H8v-2h8V17zM15 13c-0.83 0-1.5-0.67-1.5-1.5S14.17 10 15 10s1.5 0.67 1.5 1.5S15.83 13 15 13z" opacity=".3"/>
  <path d="M8 15H16V17H8z"/>
  <path d="M20 9V7c0-1.1-0.9-2-2-2h-3c0-1.66-1.34-3-3-3S9 3.34 9 5H6C4.9 5 4 5.9 4 7v2c-1.66 0-3 1.34-3 3 0 1.66 1.34 3 3 3v4c0 1.1 0.9 2 2 2h12c1.1 0 2-0.9 2-2v-4c1.66 0 3-1.34 3-3C23 10.34 21.66 9 20 9zM18 19H6V7h12V19z"/>
  <circle cx="15" cy="11.5" r="1.5"/>
  <circle cx="9" cy="11.5" r="1.5"/>
</svg>
