<svg xmlns="http://www.w3.org/2000/svg" width="24" height="24">
  <path fill="none" d="M0 0h24v24H0z"/>
  <path d="M4 16h3c0.55 0 1-0.45 1-1s-0.45-1-1-1H4c-0.55 0-1 0.45-1 1s0.45 1 1 1z m6.5 0h3c0.55 0 1-0.45 1-1s-0.45-1-1-1h-3c-0.55 0-1 0.45-1 1s0.45 1 1 1z m6.5 0h3c0.55 0 1-0.45 1-1s-0.45-1-1-1h-3c-0.55 0-1 0.45-1 1s0.45 1 1 1zM4 20c0.55 0 1-0.45 1-1s-0.45-1-1-1-1 0.45-1 1 0.45 1 1 1z m4 0c0.55 0 1-0.45 1-1s-0.45-1-1-1-1 0.45-1 1 0.45 1 1 1z m4 0c0.55 0 1-0.45 1-1s-0.45-1-1-1-1 0.45-1 1 0.45 1 1 1z m4 0c0.55 0 1-0.45 1-1s-0.45-1-1-1-1 0.45-1 1 0.45 1 1 1z m4 0c0.55 0 1-0.45 1-1s-0.45-1-1-1-1 0.45-1 1 0.45 1 1 1zM4 12h6c0.55 0 1-0.45 1-1s-0.45-1-1-1H4c-0.55 0-1 0.45-1 1s0.45 1 1 1z m10 0h6c0.55 0 1-0.45 1-1s-0.45-1-1-1h-6c-0.55 0-1 0.45-1 1s0.45 1 1 1zM3 5v2c0 0.55 0.45 1 1 1h16c0.55 0 1-0.45 1-1V5c0-0.55-0.45-1-1-1H4c-0.55 0-1 0.45-1 1z"/>
</svg>
