<svg xmlns="http://www.w3.org/2000/svg" width="24" height="24">
  <path fill="none" d="M0 0H24V24H0z"/>
  <path d="M4 19h16V5H4V19zM13.41 10.75l1.41 1.42L17.99 9l1.42 1.42L14.82 15 12 12.16 13.41 10.75zM5 7h5v2H5V7zM5 11h5v2H5V11zM5 15h5v2H5V15z" opacity=".3"/>
  <path d="M20 3H4C2.9 3 2 3.9 2 5v14c0 1.1 0.9 2 2 2h16c1.1 0 2-0.9 2-2V5C22 3.9 21.1 3 20 3zM20 19H4V5h16V19z"/>
  <path d="M19.41 10.42 17.99 9 14.82 12.17 13.41 10.75 12 12.16 14.82 15z"/>
  <path d="M5 7H10V9H5z"/>
  <path d="M5 11H10V13H5z"/>
  <path d="M5 15H10V17H5z"/>
</svg>
