<svg xmlns="http://www.w3.org/2000/svg" width="24" height="24">
  <path fill="none" d="M0 0h24v24H0V0z"/>
  <path d="M14 9.5h3c0.55 0 1-0.45 1-1s-0.45-1-1-1h-3c-0.55 0-1 0.45-1 1s0.45 1 1 1z m0 7h3c0.55 0 1-0.45 1-1s-0.45-1-1-1h-3c-0.55 0-1 0.45-1 1s0.45 1 1 1z m5 4.5H5c-1.1 0-2-0.9-2-2V5c0-1.1 0.9-2 2-2h14c1.1 0 2 0.9 2 2v14c0 1.1-0.9 2-2 2zM7 11h3c0.55 0 1-0.45 1-1V7c0-0.55-0.45-1-1-1H7c-0.55 0-1 0.45-1 1v3c0 0.55 0.45 1 1 1z m0-4h3v3H7V7z m0 11h3c0.55 0 1-0.45 1-1v-3c0-0.55-0.45-1-1-1H7c-0.55 0-1 0.45-1 1v3c0 0.55 0.45 1 1 1z m0-4h3v3H7v-3z"/>
</svg>
