<svg xmlns="http://www.w3.org/2000/svg" width="24" height="24">
  <path fill="none" d="M0 0h24v24H0V0z"/>
  <path d="M3 12c0 2.21 0.91 4.2 2.36 5.64l-1.51 1.51c-0.31 0.31-0.09 0.85 0.36 0.85H8.5c0.28 0 0.5-0.22 0.5-0.5v-4.29c0-0.45-0.54-0.67-0.85-0.35l-1.39 1.39C5.68 15.15 5 13.66 5 12c0-2.39 1.4-4.46 3.43-5.42 0.34-0.16 0.57-0.47 0.57-0.84v-0.19c0-0.68-0.71-1.11-1.32-0.82C4.92 5.99 3 8.77 3 12z m8 5h2v-2h-2v2z m8.79-13H15.5c-0.28 0-0.5 0.22-0.5 0.5v4.29c0 0.45 0.54 0.67 0.85 0.35l1.39-1.39C18.32 8.85 19 10.34 19 12c0 2.39-1.4 4.46-3.43 5.42-0.34 0.16-0.57 0.47-0.57 0.84v0.18c0 0.68 0.71 1.11 1.32 0.82C19.08 18.01 21 15.23 21 12c0-2.21-0.91-4.2-2.36-5.64l1.51-1.51c0.31-0.31 0.09-0.85-0.36-0.85zM12 13c0.55 0 1-0.45 1-1V8c0-0.55-0.45-1-1-1s-1 0.45-1 1v4c0 0.55 0.45 1 1 1z"/>
</svg>
