<svg xmlns="http://www.w3.org/2000/svg" width="24" height="24">
  <path fill="none" d="M0 0h24v24H0V0z"/>
  <path d="M19 3H5c-1.1 0-2 0.9-2 2v14c0 1.1 0.9 2 2 2h14c1.1 0 2-0.9 2-2V5c0-1.1-0.9-2-2-2zM5 5h3c0 1.66-1.34 3-3 3V5z m0 5.91c0-0.49 0.36-0.9 0.85-0.98 2.08-0.36 3.72-2 4.08-4.08 0.08-0.49 0.49-0.85 0.98-0.85 0.61 0 1.09 0.53 1 1.13-0.48 2.96-2.81 5.3-5.77 5.78-0.6 0.1-1.14-0.39-1.14-1z m0.63 6.28l2.49-3.2c0.2-0.25 0.58-0.26 0.78-0.01l2.1 2.53 3.1-3.99c0.2-0.26 0.6-0.26 0.8 0.01l3.51 4.68c0.25 0.33 0.01 0.8-0.4 0.8H6.02c-0.41-0.01-0.65-0.49-0.39-0.82z"/>
</svg>
