<svg xmlns="http://www.w3.org/2000/svg" width="24" height="24">
  <path fill="none" d="M0 0H24V24H0z"/>
  <path d="M3 19h18V6H3V19zM17 8h2v2h-2V8zM17 12h2v2h-2V12zM13 8h2v2h-2V8zM13 12h2v2h-2V12zM9 8h2v2H9V8zM9 12h2v2H9V12zM8 16h8v1H8V16zM5 8h2v2H5V8zM5 12h2v2H5V12z" opacity=".3"/>
  <path d="M21 4H3C1.9 4 1 4.9 1 6v13c0 1.1 0.9 2 2 2h18c1.1 0 2-0.9 2-2V6C23 4.9 22.1 4 21 4zM21 19H3V6h18V19z"/>
  <path d="M9 8H11V10H9z"/>
  <path d="M5 8H7V10H5z"/>
  <path d="M8 16H16V17H8z"/>
  <path d="M13 8H15V10H13z"/>
  <path d="M9 12H11V14H9z"/>
  <path d="M5 12H7V14H5z"/>
  <path d="M13 12H15V14H13z"/>
  <path d="M17 8H19V10H17z"/>
  <path d="M17 12H19V14H17z"/>
</svg>
