<svg xmlns="http://www.w3.org/2000/svg" width="24" height="24">
  <g fill="none">
    <path d="M0 0H24V24H0z"/>
    <path d="M0 0H24V24H0z"/>
  </g>
  <path d="M12.79 21L3 11.21v2c0 0.53 0.21 1.04 0.59 1.41l7.79 7.79c0.78 0.78 2.05 0.78 2.83 0l6.21-6.21c0.78-0.78 0.78-2.05 0-2.83L12.79 21z"/>
  <path d="M11.38 17.41c0.78 0.78 2.05 0.78 2.83 0l6.21-6.21c0.78-0.78 0.78-2.05 0-2.83l-7.79-7.79C12.25 0.21 11.74 0 11.21 0H5C3.9 0 3 0.9 3 2v6.21c0 0.53 0.21 1.04 0.59 1.41L11.38 17.41zM7.25 3C7.94 3 8.5 3.56 8.5 4.25S7.94 5.5 7.25 5.5 6 4.94 6 4.25 6.56 3 7.25 3z"/>
</svg>
