<svg xmlns="http://www.w3.org/2000/svg" width="24" height="24">
  <path fill="none" d="M0 0h24v24H0V0z"/>
  <circle cx="18" cy="4.54" r="2"/>
  <path d="M15 17h-2c0 1.65-1.35 3-3 3s-3-1.35-3-3 1.35-3 3-3v-2c-2.76 0-5 2.24-5 5s2.24 5 5 5 5-2.24 5-5z m3-3.5h-1.86l1.67-3.67C18.42 8.5 17.44 7 15.96 7h-5.2c-0.81 0-1.54 0.47-1.87 1.2l-0.28 0.76c-0.21 0.56 0.11 1.17 0.68 1.33 0.49 0.14 1-0.11 1.2-0.58l0.3-0.71H13l-1.83 4.1c-0.6 1.33 0.39 2.9 1.85 2.9H18v4c0 0.55 0.45 1 1 1s1-0.45 1-1v-4.5c0-1.1-0.9-2-2-2z"/>
</svg>
