<svg xmlns="http://www.w3.org/2000/svg" width="24" height="24">
  <path fill="none" d="M0 0H24V24H0z"/>
  <path d="M13 5h-2V1h2v4zM1 11h4v2H1v-2z m18 2v-2h4v2h-4z m-1.34-5.24l-1.41-1.41 2.83-2.83 1.41 1.41-2.83 2.83zM3.51 4.93l1.41-1.41 2.83 2.83-1.41 1.41-2.83-2.83zM4.75 17C4.75 17.69035593728849 5.3096440627115085 18.25 6 18.25 6.6903559372884915 18.25 7.25 17.69035593728849 7.25 17 7.25 16.30964406271151 6.6903559372884915 15.75 6 15.75 5.3096440627115085 15.75 4.75 16.30964406271151 4.75 17z m12 0C16.75 17.69035593728849 17.30964406271151 18.25 18 18.25 18.69035593728849 18.25 19.25 17.69035593728849 19.25 17 19.25 16.30964406271151 18.69035593728849 15.75 18 15.75 17.30964406271151 15.75 16.75 16.30964406271151 16.75 17z m-9 4C7.75 21.69035593728849 8.30964406271151 22.25 9 22.25 9.690355937288492 22.25 10.25 21.69035593728849 10.25 21 10.25 20.30964406271151 9.690355937288492 19.75 9 19.75 8.30964406271151 19.75 7.75 20.30964406271151 7.75 21z m3-4C10.75 17.69035593728849 11.30964406271151 18.25 12 18.25 12.690355937288492 18.25 13.25 17.69035593728849 13.25 17 13.25 16.30964406271151 12.690355937288492 15.75 12 15.75 11.30964406271151 15.75 10.75 16.30964406271151 10.75 17z m3 4C13.75 21.69035593728849 14.30964406271151 22.25 15 22.25 15.690355937288492 22.25 16.25 21.69035593728849 16.25 21 16.25 20.30964406271151 15.690355937288492 19.75 15 19.75 14.30964406271151 19.75 13.75 20.30964406271151 13.75 21zM17 13v-1c0-2.76-2.24-5-5-5s-5 2.24-5 5v1h10z"/>
</svg>
