<svg xmlns="http://www.w3.org/2000/svg" width="24" height="24">
  <path fill="none" d="M0 0h24v24H0V0z"/>
  <path d="M19 6H5v12h14V6z m-8 5H9.5v-0.5h-2v3h2V13H11v1c0 0.55-0.45 1-1 1H7c-0.55 0-1-0.45-1-1v-4c0-0.55 0.45-1 1-1h3c0.55 0 1 0.45 1 1v1z m7 0h-1.5v-0.5h-2v3h2V13H18v1c0 0.55-0.45 1-1 1h-3c-0.55 0-1-0.45-1-1v-4c0-0.55 0.45-1 1-1h3c0.55 0 1 0.45 1 1v1z" opacity=".3"/>
  <path d="M5 20h14c1.1 0 2-0.9 2-2V6c0-1.1-0.9-2-2-2H5c-1.11 0-2 0.9-2 2v12c0 1.1 0.89 2 2 2zM5 6h14v12H5V6z m5 3H7c-0.55 0-1 0.45-1 1v4c0 0.55 0.45 1 1 1h3c0.55 0 1-0.45 1-1v-1H9.5v0.5h-2v-3h2v0.5H11v-1c0-0.55-0.45-1-1-1z m7 0h-3c-0.55 0-1 0.45-1 1v4c0 0.55 0.45 1 1 1h3c0.55 0 1-0.45 1-1v-1h-1.5v0.5h-2v-3h2v0.5H18v-1c0-0.55-0.45-1-1-1z"/>
</svg>
