<svg xmlns="http://www.w3.org/2000/svg" width="24" height="24">
  <path fill="none" d="M0 0h24v24H0V0z"/>
  <path d="M20 4H4c-1.1 0-2 0.9-2 2v12c0 1.1 0.9 2 2 2h16c1.1 0 2-0.9 2-2V6c0-1.1-0.9-2-2-2z m0 14H4V6h16v12zM4 0h16v2H4z m0 22h16v2H4z m8-10c1.38 0 2.5-1.12 2.5-2.5S13.38 7 12 7 9.5 8.12 9.5 9.5 10.62 12 12 12z m0-3.5c0.55 0 1 0.45 1 1s-0.45 1-1 1-1-0.45-1-1 0.45-1 1-1z m5 7.49C17 13.9 13.69 13 12 13s-5 0.9-5 2.99V17h10v-1.01z m-8.19-0.49c0.61-0.52 2.03-1 3.19-1 1.17 0 2.59 0.48 3.2 1H8.81z"/>
</svg>
